<?xml version="1.0" encoding="UTF-8"?>
<svg version="1.1" xmlns="http://www.w3.org/2000/svg" width="421" height="438">
<path d="M0 0 C138.93 0 277.86 0 421 0 C421 144.54 421 289.08 421 438 C282.07 438 143.14 438 0 438 C0 293.46 0 148.92 0 0 Z " fill="#081E3D" transform="translate(0,0)"/>
<path d="M0 0 C6.88161006 3.26752708 9.83607102 9.52741181 13.625 15.875 C14.92911621 18.01857684 16.23378709 20.16181633 17.5390625 22.3046875 C18.13879883 23.30854492 18.73853516 24.31240234 19.35644531 25.34667969 C20.65973207 27.45067858 22.01418313 29.36799805 23.5234375 31.3203125 C25.5704989 35.03534986 25.09773165 36.94853259 24 41 C22.96246233 43.56731812 21.74190045 45.99659222 20.4375 48.4375 C20.10814453 49.07365234 19.77878906 49.70980469 19.43945312 50.36523438 C18.63546752 51.91494576 17.81902334 53.45818322 17 55 C14.13105103 54.66748771 13.16553664 54.19428016 11.26074219 51.95874023 C10.69516602 51.08419189 10.12958984 50.20964355 9.546875 49.30859375 C8.61875 47.89223633 8.61875 47.89223633 7.671875 46.44726562 C7.03765625 45.45404297 6.4034375 44.46082031 5.75 43.4375 C5.1003125 42.44041016 4.450625 41.44332031 3.78125 40.41601562 C2.17694752 37.95058019 0.58383269 35.47861587 -1 33 C-3.69286454 33.35371453 -4.75485319 33.70627155 -6.52392578 35.82592773 C-6.9929834 36.60395752 -7.46204102 37.3819873 -7.9453125 38.18359375 C-8.46480469 39.02857422 -8.98429687 39.87355469 -9.51953125 40.74414062 C-10.31423828 42.07735352 -10.31423828 42.07735352 -11.125 43.4375 C-12.18799068 45.18748346 -13.25300325 46.93624082 -14.3203125 48.68359375 C-14.78711426 49.46275146 -15.25391602 50.24190918 -15.73486328 51.04467773 C-17 53 -17 53 -19 55 C-20.98901367 54.84106445 -20.98901367 54.84106445 -23 54 C-24.2043457 52.48120117 -24.2043457 52.48120117 -25.17578125 50.54296875 C-25.52833984 49.84236328 -25.88089844 49.14175781 -26.24414062 48.41992188 C-26.59669922 47.68322266 -26.94925781 46.94652344 -27.3125 46.1875 C-27.68439453 45.46240234 -28.05628906 44.73730469 -28.43945312 43.99023438 C-31.08173426 38.61218358 -31.08173426 38.61218358 -30.73339844 36.00317383 C-29.94429799 33.84785785 -28.98138929 32.04783705 -27.77734375 30.09375 C-27.09889404 28.98604248 -27.09889404 28.98604248 -26.40673828 27.85595703 C-25.92188965 27.07849121 -25.43704102 26.30102539 -24.9375 25.5 C-24.44233887 24.70062012 -23.94717773 23.90124023 -23.43701172 23.07763672 C-21.96609601 20.7132407 -20.48508731 18.35551491 -19 16 C-18.59700684 15.35708008 -18.19401367 14.71416016 -17.77880859 14.05175781 C-8.09100287 -1.32098006 -8.09100287 -1.32098006 0 0 Z " fill="#5690C7" transform="translate(217,194)"/>
<path d="M0 0 C2.92483867 1.82547936 5.43429205 3.86858411 7 7 C7.85982459 13.7754178 5.40095493 17.37719243 1.75 22.75 C0.65316367 24.42155872 -0.44317524 26.09344391 -1.5390625 27.765625 C-2.39226074 29.05049805 -2.39226074 29.05049805 -3.26269531 30.36132812 C-6.1180022 34.69805619 -8.86634245 39.10142665 -11.625 43.5 C-12.61634232 45.07344948 -13.60846764 46.64640606 -14.6015625 48.21875 C-15.01744629 48.87810547 -15.43333008 49.53746094 -15.86181641 50.21679688 C-16.8877891 51.82419811 -17.94222895 53.41334342 -19 55 C-20.86621094 54.70019531 -20.86621094 54.70019531 -23 54 C-24.61325163 51.58601034 -25.94327679 49.31988897 -27.25 46.75 C-27.79527344 45.74646484 -27.79527344 45.74646484 -28.3515625 44.72265625 C-30.32407499 40.94818685 -31.44635174 38.35527294 -31 34 C-29.93359375 31.78686523 -29.93359375 31.78686523 -28.4375 29.55859375 C-27.89150146 28.73278809 -27.34550293 27.90698242 -26.78295898 27.05615234 C-26.19458252 26.19199707 -25.60620605 25.3278418 -25 24.4375 C-24.40711182 23.5501416 -23.81422363 22.6627832 -23.20336914 21.74853516 C-22.01885103 19.97683796 -20.8302019 18.20789492 -19.63720703 16.44189453 C-18.22846121 14.34074993 -16.85163858 12.225493 -15.49609375 10.08984375 C-14.81675781 9.02894531 -14.13742187 7.96804687 -13.4375 6.875 C-12.85871094 5.96492187 -12.27992188 5.05484375 -11.68359375 4.1171875 C-8.47956301 0.08798875 -5.02662385 -0.70372734 0 0 Z " fill="#5690C6" transform="translate(275,194)"/>
<path d="M0 0 C4.2113306 2.06923076 6.17345033 4.27813795 8.59375 8.26171875 C9.23183594 9.29876953 9.86992187 10.33582031 10.52734375 11.40429688 C11.17832031 12.48775391 11.82929688 13.57121094 12.5 14.6875 C13.15097656 15.75162109 13.80195313 16.81574219 14.47265625 17.91210938 C15.74262423 19.98895601 17.00461547 22.07070555 18.2578125 24.15771484 C19.33911484 25.92180142 20.45344673 27.66661598 21.6171875 29.37744141 C24.98218496 34.32617212 24.98218496 34.32617212 25.06640625 37.51171875 C23.54606196 41.05918876 21.80738384 44.43766647 19.9375 47.8125 C19.56044922 48.50537109 19.18339844 49.19824219 18.79492188 49.91210938 C17.86916148 51.61128985 16.93537688 53.30609425 16 55 C13.12090812 54.67726878 12.18334749 54.22614641 10.32763672 51.93725586 C9.78381348 51.03885986 9.23999023 50.14046387 8.6796875 49.21484375 C8.06617432 48.21646484 7.45266113 47.21808594 6.82055664 46.18945312 C6.17852295 45.11630859 5.53648926 44.04316406 4.875 42.9375 C3.53838768 40.73789996 2.20114629 38.53868207 0.86328125 36.33984375 C0.20924316 35.25815918 -0.44479492 34.17647461 -1.11865234 33.06201172 C-2.76626374 30.38042048 -4.46054945 27.74668161 -6.20703125 25.12890625 C-6.67415527 24.42064697 -7.1412793 23.7123877 -7.62255859 22.98266602 C-8.47016964 21.70463978 -9.33033017 20.43480557 -10.20556641 19.17553711 C-13.24852008 14.51286229 -13.64081443 11.39398577 -13 6 C-10.03143128 1.29244724 -5.51470888 -1.07896478 0 0 Z " fill="#568FC6" transform="translate(160,194)"/>
<path d="M0 0 C1.65 0.33 3.3 0.66 5 1 C4.6875 2.9375 4.6875 2.9375 4 5 C1.36280942 5.87906353 -0.44420314 6.14322669 -3.1640625 6.3125 C-8.20385312 6.84236072 -11.98532673 8.55220781 -16.375 11 C-17.47690674 11.60013916 -17.47690674 11.60013916 -18.60107422 12.21240234 C-25.03568109 15.81978883 -30.56109374 19.99956474 -36 25 C-36.61746094 25.5259375 -37.23492187 26.051875 -37.87109375 26.59375 C-45.1357855 33.170561 -51.83155084 42.87176477 -54.875 52.1875 C-56.07478844 55.33545977 -56.7921853 55.89749302 -59.8984375 57.4296875 C-62.9157395 58.44952151 -65.8939339 59.3016235 -69 60 C-75.64356383 88.14616996 -74.20072971 114.37973111 -59.1875 139.75 C-44.31667461 162.76034914 -22.47314596 178.82834591 4.33422852 184.92578125 C16.27926513 187.1625367 28.90861391 186.32296696 41 186 C41.33 185.01 41.66 184.02 42 183 C43.32 183.33 44.64 183.66 46 184 C46 185.32 46 186.64 46 188 C24.46954467 194.38999473 -2.26361627 187.62993522 -21.89599609 178.14257812 C-25.06979971 176.41904588 -27.84849915 174.28145843 -30.6875 172.0625 C-35.77406534 168.22481003 -39.15706739 167.43395914 -45.3125 167.4375 C-50.26173721 167.42647849 -53.71634687 167.34513798 -57.4375 163.75 C-58.6835793 162.21234364 -59.86651455 160.62243996 -61 159 C-61.74636719 157.99839844 -62.49273437 156.99679687 -63.26171875 155.96484375 C-76 138.52008064 -76 138.52008064 -76 133 C-76.99 133 -77.98 133 -79 133 C-79 131.35 -79 129.7 -79 128 C-77.35 128 -75.7 128 -74 128 C-73.690625 129.8871875 -73.690625 129.8871875 -73.375 131.8125 C-70.80652484 143.08916148 -63.25028891 152.27811779 -56 161 C-55.03707031 162.16982422 -55.03707031 162.16982422 -54.0546875 163.36328125 C-51.33179873 165.53227439 -49.68325065 165.41348813 -46.25 165.25 C-45.26515625 165.21390625 -44.2803125 165.1778125 -43.265625 165.140625 C-42.51796875 165.09421875 -41.7703125 165.0478125 -41 165 C-41.78503906 164.24976563 -42.57007813 163.49953125 -43.37890625 162.7265625 C-61.39003116 145.28653604 -74.58310007 121.98364858 -75.30078125 96.390625 C-75.31944706 94.01048665 -75.32292606 91.6301887 -75.3125 89.25 C-75.31048584 88.01386963 -75.30847168 86.77773926 -75.30639648 85.50415039 C-75.19950191 75.79466656 -74.07778833 67.23336498 -71 58 C-69.16182278 57.5176623 -67.30268835 57.11416694 -65.4375 56.75 C-61.10311326 55.42304236 -59.38294909 54.54394672 -56.7421875 50.79296875 C-55.37781462 48.20248125 -54.16016682 45.54709951 -52.921875 42.89453125 C-50.22848477 37.16898588 -46.23835473 32.64828196 -42 28 C-41.32582031 27.23300781 -40.65164062 26.46601563 -39.95703125 25.67578125 C-30.23309995 15.22209901 -17.47561857 7.57873228 -4 3 C-3.01 3 -2.02 3 -1 3 C-0.67 2.01 -0.34 1.02 0 0 Z " fill="#508EBC" transform="translate(188,132)"/>
<path d="M0 0 C1.74570501 1.62828091 3.47497888 3.27435354 5.1875 4.9375 C8.28172051 7.844192 10.17158611 9.58600528 14.5 9.625 C17.83687188 9.19948801 17.83687188 9.19948801 20 8 C10.92000938 -2.18839452 10.92000938 -2.18839452 -1 -8 C-1.495 -9.98 -1.495 -9.98 -2 -12 C0.475 -12.495 0.475 -12.495 3 -13 C3.680625 -11.7934375 3.680625 -11.7934375 4.375 -10.5625 C7.69541616 -5.56427639 12.53480236 -1.93677188 17 2 C37.96710674 20.65349496 50.90412032 49.22480915 53 77 C54.11409463 102.20958015 49.95016241 123.16903583 38.9453125 145.87109375 C38.04159584 147.90632343 37.46530105 149.82694511 37 152 C35.68 152.33 34.36 152.66 33 153 C31.875 149.25 31.875 149.25 33 147 C33.99 146.67 34.98 146.34 36 146 C50.89187253 121.62492535 54.3812924 87.68764817 47.76367188 60.22216797 C47.21286506 58.13517027 46.61916327 56.0676363 46 54 C45.649375 52.79085937 45.29875 51.58171875 44.9375 50.3359375 C40.75151014 37.4582048 34.40113806 24.97634209 25.43359375 14.78515625 C24 13 24 13 24 11 C23.18917969 11.17660156 22.37835938 11.35320312 21.54296875 11.53515625 C16.45550749 12.33469906 12.62958044 12.9308817 8.0390625 10.30859375 C5.26500249 7.95978362 2.63058072 5.50776747 0 3 C-18.68718045 -11.98088966 -42.23710279 -19.40747231 -66 -19.375 C-67.17175781 -19.37411377 -68.34351563 -19.37322754 -69.55078125 -19.37231445 C-86.10894689 -19.48571306 -86.10894689 -19.48571306 -100.83203125 -13.34375 C-101.21746094 -12.9003125 -101.60289062 -12.456875 -102 -12 C-104.6875 -12.3125 -104.6875 -12.3125 -107 -13 C-106.67 -14.32 -106.34 -15.64 -106 -17 C-104.9275 -17.103125 -103.855 -17.20625 -102.75 -17.3125 C-98.0914394 -17.88243029 -93.64830595 -19.05209078 -89.125 -20.28125 C-58.41254336 -27.34511503 -25.01901846 -18.61880444 0 0 Z " fill="#3F6A9F" transform="translate(279,133)"/>
<path d="M0 0 C1.65 0.33 3.3 0.66 5 1 C5.061875 1.886875 5.12375 2.77375 5.1875 3.6875 C5.85853655 8.56238314 7.85068604 12.91640827 9.74609375 17.42578125 C15.85575039 34.84115766 15.08791251 56.56809946 7.23242188 73.20336914 C-3.41825833 94.7013192 -18.58512801 109.93418929 -41.53125 118.28515625 C-61.53023083 124.68391273 -82.50722998 123.56497992 -101.375 114.25 C-112.73887289 108.34310469 -123.44497647 100.81689807 -130.75 90.125 C-132.7945019 87.28541403 -133.75410189 86.08196604 -137 85 C-136.67 83.68 -136.34 82.36 -136 81 C-134.35 81.33 -132.7 81.66 -131 82 C-130.74992188 82.88042969 -130.49984375 83.76085937 -130.2421875 84.66796875 C-124.99380266 98.74618343 -110.26288348 107.41833443 -97.3203125 113.5625 C-78.00979792 121.9228169 -55.92060654 120.73979228 -36.48828125 113.4765625 C-16.31754627 104.93844624 -2.48261187 90.13357937 6.25 70.1875 C13.15657669 51.58142055 13.0389793 30.3909381 5.3125 12.0625 C4.87550781 11.12535156 4.43851563 10.18820313 3.98828125 9.22265625 C3 7 3 7 3 5 C1.02 4.505 1.02 4.505 -1 4 C-0.67 2.68 -0.34 1.36 0 0 Z " fill="#3F689F" transform="translate(279,179)"/>
<path d="M0 0 C1.875 0.25 1.875 0.25 4 1 C4.268125 1.598125 4.53625 2.19625 4.8125 2.8125 C6.2565432 5.47257958 7.88653544 7.12941061 10.55859375 8.57421875 C15.2960717 9.4004349 19.86687375 7.02982197 24.26171875 5.38671875 C46.30899077 -2.79173639 73.28184991 1.65543813 94.2265625 11.1484375 C114.4399379 20.81482383 130.82992687 37.10203083 141 57 C141 57.66 141 58.32 141 59 C142.32 59.33 143.64 59.66 145 60 C144.67 61.32 144.34 62.64 144 64 C142.68 64 141.36 64 140 64 C139.87625 63.443125 139.7525 62.88625 139.625 62.3125 C136.03425235 49.0267337 126.07895379 37.0470609 116 28 C115.40058594 27.41476563 114.80117188 26.82953125 114.18359375 26.2265625 C111.02417352 24.45186133 109.26028432 25.39497709 105.8125 26.3125 C98.28064154 27.61729291 94.04749176 25.73101091 87.41625977 22.24755859 C82.61300919 19.72712209 78.00080587 17.81692135 72.75 16.4375 C70.97882813 15.97150391 70.97882813 15.97150391 69.171875 15.49609375 C66.00706184 15.0011045 64.02518292 14.99870706 61 16 C58.28168187 18.79382697 56.57642484 21.10913233 56 25 C54.35 25 52.7 25 51 25 C51 23.35 51 21.7 51 20 C52.65 20 54.3 20 56 20 C56.268125 19.401875 56.53625 18.80375 56.8125 18.1875 C58.04509321 15.91693357 58.97235251 14.59282466 61 13 C71.33099288 12.0100965 82.39109902 16.47218562 91.25 21.3125 C96.79115573 24.23740714 99.94039056 24.46603454 106 23 C106.99 22.505 106.99 22.505 108 22 C82.37640729 6.72439665 55.84282894 0.63387883 26.1953125 7.1328125 C22.33438106 8.18064475 18.71603136 9.52761022 15 11 C12.375 11.5 12.375 11.5 10 11 C7.97945196 9.35830472 5.97956942 7.69088222 4 6 C1.27886497 5.13457301 1.27886497 5.13457301 -1 5 C-0.67 3.35 -0.34 1.7 0 0 Z " fill="#3F679E" transform="translate(161,119)"/>
<path d="M0 0 C0.66 0.33 1.32 0.66 2 1 C1.154375 1.73863281 0.30875 2.47726563 -0.5625 3.23828125 C-17.82136574 18.56364454 -28.61640841 36.96177703 -30.2265625 60.28125 C-30.51753716 71.81442727 -28.6467908 83.07569277 -25 94 C-25.24317021 97.24226945 -26.06468588 99.11942008 -27.625 102 C-29.22085209 105.4818591 -29.06378033 106.41645717 -28 110 C-16.90628877 129.64511364 2.20733089 143.12853399 23.5625 149.4375 C38.51316548 153.43989904 53.76608552 152.95475639 68.77734375 149.65625 C72 149 72 149 76 149 C76.66 147.68 77.32 146.36 78 145 C79.32 145.33 80.64 145.66 82 146 C81.67 147.65 81.34 149.3 81 151 C80.071875 150.938125 79.14375 150.87625 78.1875 150.8125 C74.78363007 150.79874699 71.88885015 151.49185565 68.625 152.4375 C63.69071236 153.85301959 59.12368737 154.73921352 54 155 C52.27523437 155.09667969 52.27523437 155.09667969 50.515625 155.1953125 C35.58689455 155.6378638 21.44767371 152.5889748 8 146 C6.61941406 145.33871094 6.61941406 145.33871094 5.2109375 144.6640625 C-1.97410663 141.00070197 -7.98008522 136.33876235 -14 131 C-14.69867188 130.39671875 -15.39734375 129.7934375 -16.1171875 129.171875 C-20.60046332 125.03069653 -24.10650382 120.31340911 -27.5625 115.3125 C-28.0169751 114.67038574 -28.4714502 114.02827148 -28.93969727 113.36669922 C-30.83492357 110.52256597 -32.02840303 108.65968339 -31.87890625 105.1875 C-31 103 -31 103 -29.375 100.6875 C-26.68844057 95.43649748 -29.01915016 89.92628738 -30.5234375 84.546875 C-32.18326 77.92320569 -32.53867892 71.62096868 -32.5 64.8125 C-32.49427979 63.63284668 -32.48855957 62.45319336 -32.48266602 61.23779297 C-32.02103577 38.5106633 -21.84307682 20.50998718 -5.859375 4.69140625 C-3.988979 2.9899746 -2.04757846 1.48132335 0 0 Z " fill="#5091BB" transform="translate(165,156)"/>
<path d="M0 0 C1.32 0 2.64 0 4 0 C4 1.65 4 3.3 4 5 C3.10796875 5.24878906 2.2159375 5.49757812 1.296875 5.75390625 C-15.01869443 11.92057289 -26.95415473 33.02757881 -34 48 C-30.33027244 47.55697454 -27.26725879 46.75597168 -24 45 C-21.85757319 42.18079048 -20.33573178 39.29786266 -18.73046875 36.14453125 C-16.55905205 32.19872889 -13.83649925 29.23407291 -10.69921875 26.03515625 C-8.83360369 23.80070694 -7.9386002 21.7395691 -7 19 C-5.68 19 -4.36 19 -3 19 C-3 20.65 -3 22.3 -3 24 C-4.10021484 24.3403125 -4.10021484 24.3403125 -5.22265625 24.6875 C-8.59866717 26.28291444 -10.11683974 28.08779888 -12.4375 31 C-13.22382813 31.98097656 -14.01015625 32.96195313 -14.8203125 33.97265625 C-16.80307655 36.72649521 -18.29422137 39.41441858 -19.8125 42.4375 C-21.59732617 45.65521478 -22.42133053 46.77509203 -25.89453125 48.125 C-26.96058594 48.393125 -28.02664062 48.66125 -29.125 48.9375 C-33.62616845 50.05274188 -33.62616845 50.05274188 -36.59375 53.39453125 C-37.6245072 56.24863548 -38.3648011 59.03436356 -39 62 C-39.21914062 62.73089844 -39.43828125 63.46179688 -39.6640625 64.21484375 C-41.06157184 68.91979187 -41.17315586 73.15163597 -41 78 C-42.98 78.495 -42.98 78.495 -45 79 C-46.39647059 74.93754011 -45.63199826 72.44663508 -44.01953125 68.56640625 C-42.71413398 65.28040623 -41.6490227 61.92519005 -40.5625 58.5625 C-38.69930932 52.86553132 -36.5664775 47.41811917 -34 42 C-37.3 42.66 -40.6 43.32 -44 44 C-49.05462678 58.40568633 -52.11404725 71.66064468 -52 87 C-53.65 87 -55.3 87 -57 87 C-56.85594727 86.2884375 -56.71189453 85.576875 -56.56347656 84.84375 C-56.0131561 82.06639611 -55.49599049 79.28471836 -54.984375 76.5 C-49.53797076 47.53797076 -49.53797076 47.53797076 -44 42 C-39.89729367 40.60662804 -36.33784263 39.73710045 -32 40 C-31.59974609 38.90751953 -31.59974609 38.90751953 -31.19140625 37.79296875 C-25.87295386 25.32512135 -13.21018489 11.47345659 -2 4 C-0.80767387 1.94996045 -0.80767387 1.94996045 0 0 Z " fill="#497EAF" transform="translate(148,129)"/>
<path d="M0 0 C1.32 0 2.64 0 4 0 C4.309375 1.423125 4.309375 1.423125 4.625 2.875 C5.55418716 6.14678579 6.95159147 8.74378005 8.75 11.625 C19.11216432 28.33083076 24.41606323 46.57749772 24.3125 66.1875 C24.30621582 67.8267041 24.30621582 67.8267041 24.29980469 69.49902344 C24.17721387 78.3386036 23.21717497 86.43844126 21 95 C20.73316406 96.08796875 20.46632813 97.1759375 20.19140625 98.296875 C17.4292776 108.36329941 12.79525775 118.30711338 7 127 C6.71855181 130.49204366 6.71855181 130.49204366 6.8125 134.375 C6.81894531 135.68210937 6.82539063 136.98921875 6.83203125 138.3359375 C6.97094408 141.36617548 7.29098605 144.06184619 8 147 C6.68 147.33 5.36 147.66 4 148 C2.9375 146.125 2.9375 146.125 2 144 C2.495 143.01 2.495 143.01 3 142 C3.02648224 139.91673082 3.04615066 137.83337335 3.0625 135.75 C3.52308352 128.35801207 6.14378699 123.51098169 9.9375 117.42578125 C13.08901524 112.19116218 15.10200557 106.78854528 17 101 C17.39316406 99.90558594 17.78632813 98.81117188 18.19140625 97.68359375 C22.92726803 82.38692523 22.98377264 62.67424866 20 47 C16.81123264 43.53790973 13.48519132 42.2516813 9 41 C9.33 39.35 9.66 37.7 10 36 C11.8125 36.1875 11.8125 36.1875 14 37 C15.625 39.5 15.625 39.5 17 42 C17.66 42.33 18.32 42.66 19 43 C16.3237755 30.96973368 11.4575325 16.29648344 3 7 C0.91980389 5.7737613 0.91980389 5.7737613 -1 5 C-0.67 3.35 -0.34 1.7 0 0 Z " fill="#35538C" transform="translate(298,153)"/>
<path d="M0 0 C2.0625 0.4375 2.0625 0.4375 4 1 C4 2.32 4 3.64 4 5 C3.01 5.33 2.02 5.66 1 6 C0.30123592 7.98901312 -0.35962025 9.99142881 -1 12 C-7.31954173 22.69460908 -15.60393415 33.47521139 -25.9375 40.5 C-31.31759512 44.36634076 -32.53737962 49.77107825 -34 56 C-32.53426066 55.09522263 -31.07764244 54.17565859 -29.625 53.25 C-28.81289063 52.73953125 -28.00078125 52.2290625 -27.1640625 51.703125 C-24.91444321 49.9326665 -24.04093152 48.63092581 -23 46 C-21.02 46.495 -21.02 46.495 -19 47 C-19.33 48.65 -19.66 50.3 -20 52 C-21.02738281 52.25136719 -22.05476563 52.50273437 -23.11328125 52.76171875 C-26.9211029 53.85117086 -29.87751109 55.61842623 -33.1875 57.8125 C-47.64651639 67 -47.64651639 67 -54 67 C-54.226875 67.66 -54.45375 68.32 -54.6875 69 C-55.120625 69.99 -55.55375 70.98 -56 72 C-56.20238281 72.66257812 -56.40476563 73.32515625 -56.61328125 74.0078125 C-57.75055781 76.72324817 -58.71997103 78.098604 -61 80 C-78.50467319 85.63583295 -99.33295945 84.0842151 -117 80 C-117.66 79.34 -118.32 78.68 -119 78 C-117.49986903 78.14447983 -115.99990298 78.29067215 -114.5 78.4375 C-113.24703125 78.55931641 -113.24703125 78.55931641 -111.96875 78.68359375 C-109.75399456 78.91964005 -107.54470989 79.20812046 -105.33984375 79.5234375 C-100.25200971 80.16286258 -95.18478006 80.19093058 -90.0625 80.1875 C-88.5619104 80.1884668 -88.5619104 80.1884668 -87.03100586 80.18945312 C-78.24646662 80.12782198 -69.6791794 79.30478939 -61 78 C-60.70351562 77.25492187 -60.40703125 76.50984375 -60.1015625 75.7421875 C-59.73804688 74.83726562 -59.37453125 73.93234375 -59 73 C-58.76023438 72.34257812 -58.52046875 71.68515625 -58.2734375 71.0078125 C-54.49359023 63.08656736 -45.7755206 60.76156114 -38 58 C-37.34 58 -36.68 58 -36 58 C-35.89042969 57.34773438 -35.78085937 56.69546875 -35.66796875 56.0234375 C-35.43013672 54.71246094 -35.43013672 54.71246094 -35.1875 53.375 C-34.96126953 52.08722656 -34.96126953 52.08722656 -34.73046875 50.7734375 C-33.1583145 44.80429568 -30.7952679 41.4226786 -25.875 37.75 C-14.06555285 28.41446865 -3.29723782 16.31491878 -1 1 C-0.67 0.67 -0.34 0.34 0 0 Z " fill="#4374A6" transform="translate(301,258)"/>
<path d="M0 0 C1.65 0.33 3.3 0.66 5 1 C4.6875 2.9375 4.6875 2.9375 4 5 C1.36280942 5.87906353 -0.44420314 6.14322669 -3.1640625 6.3125 C-8.20385312 6.84236072 -11.98532673 8.55220781 -16.375 11 C-17.47690674 11.60013916 -17.47690674 11.60013916 -18.60107422 12.21240234 C-25.03568109 15.81978883 -30.56109374 19.99956474 -36 25 C-36.61746094 25.5259375 -37.23492187 26.051875 -37.87109375 26.59375 C-45.1357855 33.170561 -51.83155084 42.87176477 -54.875 52.1875 C-56.07478844 55.33545977 -56.7921853 55.89749302 -59.8984375 57.4296875 C-62.9157395 58.44952151 -65.8939339 59.3016235 -69 60 C-75.21048869 86.31140077 -75.10382533 112.89849571 -60.75 136.796875 C-60.1725 137.85390625 -59.595 138.9109375 -59 140 C-59.495 140.99 -59.495 140.99 -60 142 C-74.37964613 120.85346157 -78.32412859 95.29620791 -74.3515625 70.1953125 C-73.47389513 66.01553027 -72.34888151 62.04664454 -71 58 C-69.16182278 57.5176623 -67.30268835 57.11416694 -65.4375 56.75 C-61.10311326 55.42304236 -59.38294909 54.54394672 -56.7421875 50.79296875 C-55.37781462 48.20248125 -54.16016682 45.54709951 -52.921875 42.89453125 C-50.22848477 37.16898588 -46.23835473 32.64828196 -42 28 C-41.32582031 27.23300781 -40.65164062 26.46601563 -39.95703125 25.67578125 C-30.23309995 15.22209901 -17.47561857 7.57873228 -4 3 C-3.01 3 -2.02 3 -1 3 C-0.67 2.01 -0.34 1.02 0 0 Z " fill="#5499C2" transform="translate(188,132)"/>
<path d="M0 0 C1.65 0.33 3.3 0.66 5 1 C5.19335938 2.00933594 5.38671875 3.01867187 5.5859375 4.05859375 C6.97155799 8.88157226 10.05112354 11.69073434 13.625 15.0625 C14.26018555 15.67230713 14.89537109 16.28211426 15.54980469 16.91040039 C17.35212241 18.6231548 19.17416749 20.31240757 21 22 C21.77601563 22.75023437 22.55203125 23.50046875 23.3515625 24.2734375 C26.15752715 26.73298676 27.88766997 27.93485622 31.66796875 28.15625 C36.19384483 28.01413721 36.19384483 28.01413721 40 26 C36.09897612 23.21355437 32.61513112 21.31860889 28 20 C28.33 18.68 28.66 17.36 29 16 C30.32 16 31.64 16 33 16 C33.18820313 16.56847656 33.37640625 17.13695312 33.5703125 17.72265625 C35.62942482 21.00260839 38.59677272 22.54797465 41.875 24.4375 C42.55119385 24.83219482 43.2273877 25.22688965 43.92407227 25.63354492 C61.41068334 35.64914719 79.52689506 39.17404103 99.5 39.1875 C100.98113281 39.20586914 100.98113281 39.20586914 102.4921875 39.22460938 C103.90371094 39.22750977 103.90371094 39.22750977 105.34375 39.23046875 C106.61508789 39.23663208 106.61508789 39.23663208 107.91210938 39.24291992 C110.22052585 39.19324105 110.22052585 39.19324105 112 37 C114.125 37.375 114.125 37.375 116 38 C115.67 39.65 115.34 41.3 115 43 C113.69675781 42.83113281 112.39351563 42.66226563 111.05078125 42.48828125 C107.14600574 42.05306227 103.39095555 41.98517224 99.4699707 42.11669922 C81.85936369 42.66296898 63.39023683 38.93728267 47.90234375 30.265625 C44.49839327 28.78126436 42.99820107 28.94638352 39.4375 29.8125 C30.47914883 31.90913538 30.47914883 31.90913538 26.59765625 29.5234375 C20.95343948 24.74020295 15.57455724 19.76225663 10.3125 14.5625 C9.68802979 13.94745605 9.06355957 13.33241211 8.42016602 12.69873047 C4 8.24577666 4 8.24577666 4 6 C2.35 5.67 0.7 5.34 -1 5 C-0.67 3.35 -0.34 1.7 0 0 Z " fill="#477AAC" transform="translate(115,289)"/>
<path d="M0 0 C1.65 0.33 3.3 0.66 5 1 C5 1.66 5 2.32 5 3 C5.83144531 3.09152344 6.66289062 3.18304688 7.51953125 3.27734375 C11.64478417 4.13387775 14.95584074 5.65580623 18.6875 7.5625 C19.38794434 7.91747559 20.08838867 8.27245117 20.81005859 8.63818359 C28.38631126 12.57644644 35.51496429 17.10438426 41.25 23.5 C43.85035264 26.35149325 43.85035264 26.35149325 47.75 26.4375 C50.8804951 26.19470598 50.8804951 26.19470598 53 25 C51.78575607 23.50855895 50.55293955 22.03222597 49.3125 20.5625 C48.28576172 19.32693359 48.28576172 19.32693359 47.23828125 18.06640625 C44.75977388 15.77822056 43.30863187 15.31869484 40 15 C38.875 11.25 38.875 11.25 40 9 C41.75 9.125 41.75 9.125 44 10 C44.92915662 11.34211512 45.84378263 12.6963431 46.6875 14.09375 C48.30776422 16.44699089 50.20891114 18.37646993 52.1875 20.4375 C64.27410561 33.73674203 71.86853819 50.4354349 73.578125 68.3046875 C73.75138441 71.14422093 73.75138441 71.14422093 76 73 C75.625 75.625 75.625 75.625 75 78 C73.0625 77.6875 73.0625 77.6875 71 77 C70 74 70 74 70.54296875 70.80078125 C71.05150874 66.57164097 70.42850343 63.22525222 69.3125 59.1875 C69.12534424 58.48463867 68.93818848 57.78177734 68.74536133 57.05761719 C65.99379045 47.00357828 62.07466477 37.55527033 56 29 C52.74159132 27.91386377 51.99790025 28.16511091 48.8125 28.9375 C45.74482438 29.32838125 44.5180641 29.37650007 41.984375 27.53515625 C40.65740782 26.12997353 39.35527272 24.70106938 38.07421875 23.25390625 C30.93768058 15.4991369 17.97770984 7.3909952 7.375 6.125 C6.26125 6.08375 5.1475 6.0425 4 6 C1.5625 5.625 1.5625 5.625 0 5 C-0.33 4.01 -0.66 3.02 -1 2 C-0.67 1.34 -0.34 0.68 0 0 Z " fill="#4068A0" transform="translate(228,141)"/>
<path d="M0 0 C3.22466576 3.70639937 4.7652644 7.91079178 6.5 12.4375 C6.80824707 13.23865234 7.11649414 14.03980469 7.43408203 14.86523438 C19.09457415 45.91850876 15.49511243 78.66680876 2.46875 108.5078125 C1.64504709 110.3036764 0.80714266 112.09321232 -0.0546875 113.87109375 C-0.95840416 115.90632343 -1.53469895 117.82694511 -2 120 C-3.98 120.495 -3.98 120.495 -6 121 C-7.125 117.25 -7.125 117.25 -6 115 C-4.515 114.505 -4.515 114.505 -3 114 C11.91684512 89.58405012 15.30930772 55.75547099 8.77685547 28.24414062 C6.33236734 18.88801521 2.98408045 9.80691469 -1 1 C-0.67 0.67 -0.34 0.34 0 0 Z " fill="#36538D" transform="translate(318,165)"/>
<path d="M0 0 C2.125 0.375 2.125 0.375 4 1 C3.30636825 40.24192862 3.30636825 40.24192862 0 47 C-3.99740008 50.26044923 -8.70001026 53 -14 53 C-14.309375 54.1446875 -14.309375 54.1446875 -14.625 55.3125 C-18.61845781 66.02222777 -25.03686594 73.97279498 -32.55908203 82.36962891 C-34.76482306 84.86538265 -36.88120316 87.43022989 -39 90 C-40.65 89.67 -42.3 89.34 -44 89 C-43.67 87.68 -43.34 86.36 -43 85 C-42.030625 84.87625 -41.06125 84.7525 -40.0625 84.625 C-29.9676202 81.67387586 -23.77025137 68.48871012 -19 60 C-18.59652344 59.12472656 -18.19304687 58.24945313 -17.77734375 57.34765625 C-15.06128723 51.49693951 -15.06128723 51.49693951 -11.35546875 49.76171875 C-10.37191406 49.40722656 -9.38835937 49.05273438 -8.375 48.6875 C-4.26474487 47.11816225 -4.26474487 47.11816225 -1.84301758 43.63110352 C-0.04183629 35.48257318 0.5352614 27.58397589 0.6875 19.25 C0.72166016 17.96867187 0.75582031 16.68734375 0.79101562 15.3671875 C0.87256845 12.24487938 0.94201577 9.12281941 1 6 C0.34 6 -0.32 6 -1 6 C-1.625 4.125 -1.625 4.125 -2 2 C-1.34 1.34 -0.68 0.68 0 0 Z " fill="#3A5C94" transform="translate(309,202)"/>
<path d="M0 0 C3.26427749 1.29984703 6.11933159 1.801105 9.609375 2.0390625 C9.609375 3.6890625 9.609375 5.3390625 9.609375 7.0390625 C7.959375 6.7090625 6.309375 6.3790625 4.609375 6.0390625 C4.114375 4.5540625 4.114375 4.5540625 3.609375 3.0390625 C1.87281955 2.11888064 1.87281955 2.11888064 -0.29296875 1.546875 C-1.10749512 1.29969727 -1.92202148 1.05251953 -2.76123047 0.79785156 C-3.62893066 0.54745117 -4.49663086 0.29705078 -5.390625 0.0390625 C-6.24156738 -0.21907227 -7.09250977 -0.47720703 -7.96923828 -0.74316406 C-10.62503672 -1.54422156 -13.28764694 -2.31775483 -15.953125 -3.0859375 C-16.84708984 -3.35019531 -17.74105469 -3.61445312 -18.66210938 -3.88671875 C-28.37950649 -6.68749012 -37.33918352 -7.12315068 -47.42700195 -7.09130859 C-49.4520615 -7.08594032 -51.47690023 -7.09128431 -53.50195312 -7.09765625 C-54.79681641 -7.09636719 -56.09167969 -7.09507813 -57.42578125 -7.09375 C-58.5950415 -7.09262207 -59.76430176 -7.09149414 -60.96899414 -7.09033203 C-64.50285615 -6.9566933 -67.90099277 -6.52081317 -71.390625 -5.9609375 C-71.390625 -5.3009375 -71.390625 -4.6409375 -71.390625 -3.9609375 C-72.710625 -3.6309375 -74.030625 -3.3009375 -75.390625 -2.9609375 C-76.453125 -4.8359375 -76.453125 -4.8359375 -77.390625 -6.9609375 C-77.060625 -7.6209375 -76.730625 -8.2809375 -76.390625 -8.9609375 C-75.215 -8.9403125 -74.039375 -8.9196875 -72.828125 -8.8984375 C-70.22164522 -8.85270978 -67.88990849 -9.04079861 -65.3046875 -9.453125 C-43.09210379 -12.33499714 -20.43537911 -9.00261296 0 0 Z " fill="#4275A3" transform="translate(260.390625,110.9609375)"/>
<path d="M0 0 C1.65 0.33 3.3 0.66 5 1 C5.061875 1.886875 5.12375 2.77375 5.1875 3.6875 C5.85853655 8.56238314 7.85068604 12.91640827 9.74609375 17.42578125 C15.85575039 34.84115766 15.08791251 56.56809946 7.23242188 73.20336914 C2.06333535 83.63695291 -4.05272321 92.46777136 -12 101 C-12.66 100.34 -13.32 99.68 -14 99 C-13.29875 98.319375 -12.5975 97.63875 -11.875 96.9375 C2.68546807 82.21343116 10.84795788 63.96712019 11.375 43.125 C11.06628881 31.25975237 9.02025356 20.0139361 3.98828125 9.22265625 C3 7 3 7 3 5 C1.68 4.67 0.36 4.34 -1 4 C-0.67 2.68 -0.34 1.36 0 0 Z " fill="#395592" transform="translate(279,179)"/>
<path d="M0 0 C2.125 0.375 2.125 0.375 4 1 C4 2.32 4 3.64 4 5 C3.34 5 2.68 5 2 5 C2.15339844 5.97839844 2.30679688 6.95679688 2.46484375 7.96484375 C3.82497542 18.53150156 3.82497542 18.53150156 1.47265625 22.71875 C0.17782539 24.17511422 -1.1304554 25.61965274 -2.453125 27.05078125 C-4.34792372 29.06062054 -4.34792372 29.06062054 -4.25 32.625 C-3.7982018 34.66558576 -3.7982018 34.66558576 -3 37 C-2.62488281 38.18464844 -2.24976562 39.36929688 -1.86328125 40.58984375 C-1.02524824 43.17879001 -0.14993576 45.74600517 0.74609375 48.31640625 C1.95191189 51.8587318 3.00253818 55.39521939 4 59 C5.32 59.33 6.64 59.66 8 60 C8 61.32 8 62.64 8 64 C6.02 64.495 6.02 64.495 4 65 C2.83770074 62.90786133 2.02787297 61.15619901 1.60546875 58.7890625 C1.00944626 56.04351375 0.09159666 53.58386816 -0.96801758 50.98754883 C-5.93972446 38.74842652 -8.42915653 25.91430383 -11 13 C-9.35 13 -7.7 13 -6 13 C-6.01160156 13.75925781 -6.02320312 14.51851562 -6.03515625 15.30078125 C-6.04417969 16.29464844 -6.05320312 17.28851563 -6.0625 18.3125 C-6.07410156 19.29863281 -6.08570312 20.28476563 -6.09765625 21.30078125 C-6.12329862 24.09963849 -6.12329862 24.09963849 -5 27 C0.37841386 21.35266545 0.51222105 16.86941323 0.37109375 9.20703125 C0.03003182 6.25953815 -0.45922234 4.49370842 -2 2 C-1.34 1.34 -0.68 0.68 0 0 Z " fill="#5290C0" transform="translate(102,215)"/>
<path d="M0 0 C1.9375 1.125 1.9375 1.125 3 3 C3.50030235 6.93094707 3.5996142 9.1005787 1.375 12.4375 C-1.75683492 14.49791771 -3.31544773 14.6767545 -7 14 C-9.9375 11.9375 -9.9375 11.9375 -12 9 C-12.06625411 5.1572617 -11.81899419 3.00799284 -9.375 0 C-5.91616747 -1.45635054 -3.58701629 -0.91305869 0 0 Z " fill="#5BA0CF" transform="translate(190,245)"/>
<path d="M0 0 C2.375 1.5 2.375 1.5 4 4 C4.58428517 6.9631605 4.39344818 8.90159561 4 12 C1.81246717 14.6923481 0.41576045 14.93936827 -3 15.4375 C-6 15 -6 15 -8.375 13.4375 C-10.62340519 10.06489221 -10.56783945 7.97487617 -10 4 C-7.26646839 -0.10029741 -4.80388991 -0.80064832 0 0 Z " fill="#5999CD" transform="translate(246,244)"/>
<path d="M0 0 C1.875 0.25 1.875 0.25 4 1 C4.268125 1.598125 4.53625 2.19625 4.8125 2.8125 C6.2565432 5.47257958 7.88653544 7.12941061 10.55859375 8.57421875 C15.2960717 9.4004349 19.86687375 7.02982197 24.26171875 5.38671875 C40.37792493 -0.59160225 60.58711747 0.37126987 77 5 C77.99 5.66 78.98 6.32 80 7 C78.64567321 6.85566132 77.29154775 6.70943339 75.9375 6.5625 C74.80634766 6.44068359 74.80634766 6.44068359 73.65234375 6.31640625 C71.74067851 6.08835782 69.83560078 5.80246799 67.9375 5.48046875 C50.06443079 3.29952876 31.79343085 4.3459991 15 11 C12.375 11.5 12.375 11.5 10 11 C7.97945196 9.35830472 5.97956942 7.69088222 4 6 C1.27886497 5.13457301 1.27886497 5.13457301 -1 5 C-0.67 3.35 -0.34 1.7 0 0 Z " fill="#4479A7" transform="translate(161,119)"/>
<path d="M0 0 C2.475 0.495 2.475 0.495 5 1 C4.67 2.32 4.34 3.64 4 5 C2.700625 5.144375 1.40125 5.28875 0.0625 5.4375 C-13.57399074 8.19956541 -25.51541025 17.28534099 -36 26 C-36.68449219 26.53238281 -37.36898437 27.06476563 -38.07421875 27.61328125 C-44.20968595 32.50786744 -50.9966872 38.95916457 -52 47 C-53.65 46.67 -55.3 46.34 -57 46 C-56.67 44.68 -56.34 43.36 -56 42 C-55.38125 41.9175 -54.7625 41.835 -54.125 41.75 C-51.29396576 40.75081145 -51.30419765 39.65001863 -50 37 C-38.47228774 21.89007809 -20.60365408 9.86244142 -3 3 C-2.34 3 -1.68 3 -1 3 C-0.67 2.01 -0.34 1.02 0 0 Z " fill="#4370A5" transform="translate(171,106)"/>
<path d="M0 0 C1.32 0 2.64 0 4 0 C4.309375 1.423125 4.309375 1.423125 4.625 2.875 C5.55418716 6.14678579 6.95159147 8.74378005 8.75 11.625 C15.5340703 22.56224504 23.23368264 36.73791165 22 50 C21.401875 49.21625 20.80375 48.4325 20.1875 47.625 C16.9260224 43.71122688 13.76124289 42.48127557 9 41 C9.33 39.35 9.66 37.7 10 36 C11.8125 36.1875 11.8125 36.1875 14 37 C15.625 39.5 15.625 39.5 17 42 C17.66 42.33 18.32 42.66 19 43 C16.3237755 30.96973368 11.4575325 16.29648344 3 7 C0.91980389 5.7737613 0.91980389 5.7737613 -1 5 C-0.67 3.35 -0.34 1.7 0 0 Z " fill="#3F679E" transform="translate(298,153)"/>
<path d="M0 0 C0.87398437 0.38671875 1.74796875 0.7734375 2.6484375 1.171875 C22.41149649 9.66829655 40.68773417 10.56926126 62 10 C62.33 9.01 62.66 8.02 63 7 C64.32 7.33 65.64 7.66 67 8 C67 9.32 67 10.64 67 12 C44.93968756 18.54725031 19.13648489 11.17873063 -1 2 C-0.67 1.34 -0.34 0.68 0 0 Z " fill="#3C6298" transform="translate(167,308)"/>
<path d="M0 0 C1.32 0.33 2.64 0.66 4 1 C3.67 2.65 3.34 4.3 3 6 C1.6078125 5.9071875 1.6078125 5.9071875 0.1875 5.8125 C-3.21636993 5.79874699 -6.11114985 6.49185565 -9.375 7.4375 C-14.30928764 8.85301959 -18.87631263 9.73921352 -24 10 C-25.72476563 10.09667969 -25.72476563 10.09667969 -27.484375 10.1953125 C-40.15274983 10.57085721 -52.04956365 8.18453765 -64 4 C-63.34 3.34 -62.68 2.68 -62 2 C-61.07058594 2.27714844 -60.14117187 2.55429687 -59.18359375 2.83984375 C-57.32927734 3.38318359 -57.32927734 3.38318359 -55.4375 3.9375 C-53.61025391 4.47697266 -53.61025391 4.47697266 -51.74609375 5.02734375 C-37.79318855 8.6501523 -23.17330332 7.72170246 -9.22265625 4.65625 C-6 4 -6 4 -2 4 C-1.34 2.68 -0.68 1.36 0 0 Z " fill="#3C6398" transform="translate(243,301)"/>
<path d="M0 0 C2.375 0.125 2.375 0.125 5 1 C6.00083613 2.6661647 7.0007066 4.33290957 8 6 C9.48852516 7.47240395 11.03532616 8.88742243 12.625 10.25 C13.51574219 11.03761719 14.40648437 11.82523438 15.32421875 12.63671875 C16.20722656 13.41660156 17.09023438 14.19648438 18 15 C23.82786591 20.18589789 28.50045389 25.80056734 32.9375 32.1875 C33.64700806 33.20372437 33.64700806 33.20372437 34.37084961 34.24047852 C36.9431115 38.04910825 38.77911025 41.51410222 40 46 C37.2828836 43.53812787 35.53184905 40.80662186 33.625 37.6875 C31.59346324 34.42668941 29.5831325 31.33874083 27.0625 28.4375 C25 26 25 26 25 24 C23.69675781 24.19529297 23.69675781 24.19529297 22.3671875 24.39453125 C13.06654037 25.50769595 13.06654037 25.50769595 9.80078125 23.953125 C8.1875 22.5625 8.1875 22.5625 6 20 C6.99 20 7.98 20 9 20 C9.66 20.66 10.32 21.32 11 22 C12.91180549 22.28005058 12.91180549 22.28005058 15 22.1875 C15.70125 22.18105469 16.4025 22.17460937 17.125 22.16796875 C19.09056373 22.10706133 19.09056373 22.10706133 21 21 C11.92000938 10.81160548 11.92000938 10.81160548 0 5 C-0.5625 3.0625 -0.5625 3.0625 -1 1 C-0.67 0.67 -0.34 0.34 0 0 Z " fill="#4470A6" transform="translate(278,120)"/>
<path d="M0 0 C0.66 0 1.32 0 2 0 C2.36351562 0.92619141 2.36351562 0.92619141 2.734375 1.87109375 C5.01987168 7.64636804 7.43194836 13.34482245 10 19 C9.01 19 8.02 19 7 19 C7 18.34 7 17.68 7 17 C1.07766039 15.73762328 1.07766039 15.73762328 -4.4375 17.4375 C-4.953125 17.953125 -5.46875 18.46875 -6 19 C-6.66 19 -7.32 19 -8 19 C-6.32102366 14.63466152 -4.27423445 10.54889661 -2.12109375 6.40234375 C-1.11748571 4.2517551 -0.47601536 2.31589496 0 0 Z " fill="#0E2647" transform="translate(242,229)"/>
<path d="M0 0 C2.0625 0.4375 2.0625 0.4375 4 1 C4.37358273 14.85504661 4.37358273 14.85504661 0.67480469 19.75585938 C-3.36302286 23.59654163 -8.14505492 26.32355592 -13 29 C-13.69609375 29.39574219 -14.3921875 29.79148437 -15.109375 30.19921875 C-20.0998075 33.02275293 -25.15468658 35.68786373 -30.36328125 38.08984375 C-32.18611848 38.90194574 -32.18611848 38.90194574 -33 41 C-34.65 41 -36.3 41 -38 41 C-37.67 39.35 -37.34 37.7 -37 36 C-35.80375 35.814375 -34.6075 35.62875 -33.375 35.4375 C-22.37458465 32.95074991 -13.10031259 26.74585173 -4.42578125 19.8203125 C-2 18 -2 18 1 17 C0.85764543 15.27054347 0.71095618 13.54144346 0.5625 11.8125 C0.48128906 10.84957031 0.40007812 9.88664062 0.31640625 8.89453125 C0.04941042 6.0001302 0.04941042 6.0001302 -0.59765625 3.19921875 C-0.79681641 2.11060547 -0.79681641 2.11060547 -1 1 C-0.67 0.67 -0.34 0.34 0 0 Z " fill="#497EAF" transform="translate(289,294)"/>
<path d="M0 0 C1.65 0.33 3.3 0.66 5 1 C5.25007812 1.88042969 5.50015625 2.76085937 5.7578125 3.66796875 C11.05741606 17.88357202 25.81325192 26.28851214 38.7734375 32.58984375 C41.81103304 33.91741275 44.83777256 35.01120683 48 36 C48 36.66 48 37.32 48 38 C31.10223543 34.46609251 15.50702231 23.21117654 5.4375 9.375 C5.04433594 8.76398438 4.65117187 8.15296875 4.24609375 7.5234375 C2.72521653 5.66405783 1.18873914 4.93472581 -1 4 C-0.67 2.68 -0.34 1.36 0 0 Z " fill="#5090BB" transform="translate(143,260)"/>
<path d="M0 0 C1.67542976 0.28604898 3.34385343 0.61781233 5 1 C5 2.32 5 3.64 5 5 C4.01 5.495 4.01 5.495 3 6 C1.52815348 9.76867707 1.80894064 13.88673314 1.8125 17.875 C1.81185547 18.62297852 1.81121094 19.37095703 1.81054688 20.14160156 C1.86734583 26.23199856 2.53737729 32.03851691 3.5625 38.046875 C3.96354255 40.75391219 4.0808992 43.26965202 4 46 C4.99 46 5.98 46 7 46 C7.625 47.875 7.625 47.875 8 50 C7.34 50.66 6.68 51.32 6 52 C3.875 51.625 3.875 51.625 2 51 C1.93941406 50.27554688 1.87882812 49.55109375 1.81640625 48.8046875 C1.73261719 47.83789062 1.64882812 46.87109375 1.5625 45.875 C1.44068359 44.44800781 1.44068359 44.44800781 1.31640625 42.9921875 C1.04279172 40.02714743 1.04279172 40.02714743 0.48413086 37.23730469 C-0.0244999 33.83617316 -0.09693683 30.6484024 -0.0625 27.2109375 C-0.05476563 25.93992188 -0.04703125 24.66890625 -0.0390625 23.359375 C-0.01946421 21.36034901 0.00013936 19.36132298 0.02050781 17.36230469 C0.03860808 15.41604946 0.0506323 13.46974071 0.0625 11.5234375 C0.07410156 10.36763184 0.08570312 9.21182617 0.09765625 8.02099609 C0.01492868 5.46181874 -0.35840572 3.44860701 -1 1 C-0.67 0.67 -0.34 0.34 0 0 Z " fill="#477AAC" transform="translate(123,200)"/>
<path d="M0 0 C3.10219938 0.62699052 6.14840133 1.42879366 9.21484375 2.2109375 C17.58880624 3.95659325 25.96897668 4.18175133 34.5 4.1875 C35.48742187 4.19974609 36.47484375 4.21199219 37.4921875 4.22460938 C38.43320313 4.22654297 39.37421875 4.22847656 40.34375 4.23046875 C41.19130859 4.23457764 42.03886719 4.23868652 42.91210938 4.24291992 C45.22052585 4.19324105 45.22052585 4.19324105 47 2 C49.125 2.375 49.125 2.375 51 3 C50.67 4.65 50.34 6.3 50 8 C48.69675781 7.83113281 47.39351562 7.66226562 46.05078125 7.48828125 C42.14500813 7.05295108 38.38877473 6.98609207 34.46679688 7.11572266 C23.3517064 7.465748 8.53043749 7.35362499 -1 1 C-0.67 0.67 -0.34 0.34 0 0 Z " fill="#3C6499" transform="translate(180,324)"/>
<path d="M0 0 C1.32 0.33 2.64 0.66 4 1 C3.8125 3.375 3.8125 3.375 3 6 C1.34015202 6.68346682 -0.32836805 7.34588315 -2 8 C-2.93674144 9.08718779 -3.85058138 10.19423888 -4.75 11.3125 C-8.83698275 15.64041842 -13.79796855 16.64945612 -19.36254883 18.07202148 C-25.72904849 19.75252237 -30.92712939 22.37317628 -36.55859375 25.7421875 C-37.36425781 26.15726563 -38.16992188 26.57234375 -39 27 C-39.66 26.67 -40.32 26.34 -41 26 C-32.41132786 20.47056727 -23.62810273 16.11392178 -13.6875 13.625 C-8.44059805 12.13795533 -5.24603474 9.32489176 -2 5 C-0.54930036 2.26831665 -0.54930036 2.26831665 0 0 Z " fill="#3E639B" transform="translate(208,129)"/>
<path d="M0 0 C1 3 1 3 0.41088867 4.76171875 C0.0832251 5.39722656 -0.24443848 6.03273438 -0.58203125 6.6875 C-0.93716797 7.38617188 -1.29230469 8.08484375 -1.65820312 8.8046875 C-2.03912109 9.52914063 -2.42003906 10.25359375 -2.8125 11 C-3.36647461 12.08667969 -3.36647461 12.08667969 -3.93164062 13.1953125 C-5.50403565 16.25541341 -7.08765239 19.13147858 -9 22 C-9.28144819 25.49204366 -9.28144819 25.49204366 -9.1875 29.375 C-9.18105469 30.68210937 -9.17460937 31.98921875 -9.16796875 33.3359375 C-9.02905592 36.36617548 -8.70901395 39.06184619 -8 42 C-9.98 42.495 -9.98 42.495 -12 43 C-13.0625 41.125 -13.0625 41.125 -14 39 C-13.67 38.34 -13.34 37.68 -13 37 C-12.97351776 34.91673082 -12.95384934 32.83337335 -12.9375 30.75 C-12.47638404 23.25686572 -9.96868121 18.47556781 -6.01171875 12.22265625 C-3.54973283 8.27869822 -1.77425254 4.28777697 0 0 Z " fill="#487DAE" transform="translate(314,258)"/>
<path d="M0 0 C1.65 0 3.3 0 5 0 C5.20625 1.258125 5.4125 2.51625 5.625 3.8125 C8.47721074 16.33487728 17.83296332 28.2342852 27 37 C26.67 37.66 26.34 38.32 26 39 C16.22508827 30.1839352 8.54089897 18.92922954 3 7 C3 6.34 3 5.68 3 5 C2.01 5 1.02 5 0 5 C0 3.35 0 1.7 0 0 Z " fill="#4A7EB1" transform="translate(109,260)"/>
<path d="M0 0 C0 0.33 0 0.66 0 1 C-0.62865967 1.07516846 -1.25731934 1.15033691 -1.9050293 1.2277832 C-21.88503483 2.15984411 -21.88503483 2.15984411 -39 10 C-41.6875 9.6875 -41.6875 9.6875 -44 9 C-43.67 7.68 -43.34 6.36 -43 5 C-41.9275 4.896875 -40.855 4.79375 -39.75 4.6875 C-36.07462082 4.23785255 -32.58244053 3.43198009 -29 2.5 C-19.24121456 0.00865378 -9.99972495 -0.11718428 0 0 Z " fill="#4782AC" transform="translate(216,111)"/>
<path d="M0 0 C1.65 0.33 3.3 0.66 5 1 C5.061875 1.886875 5.12375 2.77375 5.1875 3.6875 C5.70950195 7.47969067 7.0132708 10.76868263 8.4375 14.3125 C12.92475592 25.73814297 13.25318595 35.87520607 13 48 C12.67 48 12.34 48 12 48 C11.89042969 46.69546875 11.78085937 45.3909375 11.66796875 44.046875 C10.5706373 31.67167815 9.29608187 20.04367303 3.76953125 8.7421875 C3 7 3 7 3 5 C1.68 4.67 0.36 4.34 -1 4 C-0.67 2.68 -0.34 1.36 0 0 Z " fill="#3A5493" transform="translate(279,179)"/>
<path d="M0 0 C6.71663694 8.02863308 8.51139297 19.12266515 9.54296875 29.234375 C9.7465067 32.13474415 9.7465067 32.13474415 12 34 C11.625 36.625 11.625 36.625 11 39 C9.0625 38.6875 9.0625 38.6875 7 38 C6 35 6 35 6.54296875 31.796875 C7.05007406 27.58400014 6.4281551 24.26949552 5.3125 20.25 C5.03937988 19.21262695 5.03937988 19.21262695 4.76074219 18.15429688 C3.18212814 12.31098792 1.2399546 6.6237158 -1 1 C-0.67 0.67 -0.34 0.34 0 0 Z " fill="#395A94" transform="translate(292,180)"/>
<path d="M0 0 C1.68551333 3.37102667 -0.31321437 6.80721917 -1.375 10.25 C-4.21822404 19.90380492 -5.05585294 28.92785348 -5 39 C-6.65 39 -8.3 39 -10 39 C-9.78500854 37.93700684 -9.78500854 37.93700684 -9.56567383 36.85253906 C-9.00498807 34.02515349 -8.47486648 31.19346669 -7.94921875 28.359375 C-7.52899507 26.15618336 -7.10840996 23.95306063 -6.6875 21.75 C-6.48705078 20.65558594 -6.28660156 19.56117188 -6.08007812 18.43359375 C-4.80224804 11.82685617 -3.07762746 5.99545319 0 0 Z " fill="#4D8AB7" transform="translate(101,177)"/>
<path d="M0 0 C1.9375 0.8125 1.9375 0.8125 4 2 C4.33 2.99 4.66 3.98 5 5 C7.18396598 6.57066046 9.31311003 7.95572737 11.625 9.3125 C12.28636963 9.70622803 12.94773926 10.09995605 13.62915039 10.50561523 C20.45260552 14.45290234 27.60235635 17.32425655 35 20 C31.53690981 21.21760043 29.77694761 20.80744321 26.453125 19.34765625 C25.60878906 18.98349609 24.76445312 18.61933594 23.89453125 18.24414062 C23.02183594 17.85419922 22.14914063 17.46425781 21.25 17.0625 C20.36183594 16.67642578 19.47367188 16.29035156 18.55859375 15.89257812 C16.36772604 14.93849057 14.18204402 13.97405887 12 13 C12 12.34 12 11.68 12 11 C10.8553125 10.566875 10.8553125 10.566875 9.6875 10.125 C7 9 7 9 4 7 C2.01200182 6.29835358 0.01301483 5.62627128 -2 5 C-1.125 1.125 -1.125 1.125 0 0 Z " fill="#518DBD" transform="translate(145,304)"/>
<path d="M0 0 C2.0625 0.4375 2.0625 0.4375 4 1 C4 2.32 4 3.64 4 5 C3.01 5.33 2.02 5.66 1 6 C0.31049116 7.99224045 -0.35161878 9.99399745 -1 12 C-2.38524476 14.26701157 -3.77637238 16.40684322 -5.3125 18.5625 C-5.88000977 19.38911133 -5.88000977 19.38911133 -6.45898438 20.23242188 C-9.02058833 23.88628335 -11.78206593 26.94153877 -15 30 C-14.39729488 26.4710029 -13.03130281 24.53518531 -10.75 21.8125 C-5.52828686 15.26924218 -1.70330777 9.43969318 -1 1 C-0.67 0.67 -0.34 0.34 0 0 Z " fill="#3C6097" transform="translate(301,258)"/>
<path d="M0 0 C1.32 0 2.64 0 4 0 C4 1.65 4 3.3 4 5 C3.26652344 5.226875 2.53304687 5.45375 1.77734375 5.6875 C-5.87497755 9.30378686 -10.80230685 18.84583346 -14.61328125 26.1015625 C-16 28 -16 28 -18.16796875 28.7734375 C-18.77253906 28.84820312 -19.37710938 28.92296875 -20 29 C-20.33 28.34 -20.66 27.68 -21 27 C-20.11054687 26.92265625 -20.11054687 26.92265625 -19.203125 26.84375 C-15.94505438 25.59597827 -15.33713393 23.55099532 -13.75 20.5 C-10.90927777 15.34007042 -7.81478 11.23157332 -3.69921875 7.03515625 C-1.83360369 4.80070694 -0.9386002 2.7395691 0 0 Z " fill="#4370A5" transform="translate(141,148)"/>
<path d="M0 0 C1.97302469 3.60807756 3.22648197 7.41862216 4.5 11.3125 C4.71269531 11.95123047 4.92539063 12.58996094 5.14453125 13.24804688 C6.53932035 17.47092062 7.80316369 21.71687747 9 26 C10.32 26.33 11.64 26.66 13 27 C13 28.32 13 29.64 13 31 C11.68 31.33 10.36 31.66 9 32 C7.85217015 29.93390628 7.03421626 28.193657 6.62109375 25.85546875 C5.79845332 22.07339231 4.4074979 18.59841444 3 15 C-0.53333333 5.96666667 -0.53333333 5.96666667 -1 2 C-0.67 1.34 -0.34 0.68 0 0 Z " fill="#4373A4" transform="translate(97,248)"/>
<path d="M0 0 C11.46614173 1.98567298 11.46614173 1.98567298 15 5.51953125 C10.18467618 4.59198937 5.41050133 3.65952876 0.6875 2.33203125 C-3.76787724 1.34048523 -3.76787724 1.34048523 -8 2.51953125 C-10.71831813 5.31335822 -12.42357516 7.62866358 -13 11.51953125 C-14.65 11.51953125 -16.3 11.51953125 -18 11.51953125 C-18 9.86953125 -18 8.21953125 -18 6.51953125 C-16.35 6.51953125 -14.7 6.51953125 -13 6.51953125 C-12.731875 5.92140625 -12.46375 5.32328125 -12.1875 4.70703125 C-9.00495097 -1.15555908 -6.2356502 -0.75458001 0 0 Z " fill="#4E87B9" transform="translate(230,132.48046875)"/>
<path d="M0 0 C1.67542976 0.28604898 3.34385343 0.61781233 5 1 C5 2.32 5 3.64 5 5 C3.68 5.33 2.36 5.66 1 6 C0.67 9.63 0.34 13.26 0 17 C-1.65 17.33 -3.3 17.66 -5 18 C-5.33 16.68 -5.66 15.36 -6 14 C-5.35417969 13.78472656 -4.70835937 13.56945312 -4.04296875 13.34765625 C-1.72318853 12.15671036 -1.72318853 12.15671036 -1.42578125 9.43359375 C-1.38839844 8.44488281 -1.35101563 7.45617187 -1.3125 6.4375 C-1.06811989 1.06811989 -1.06811989 1.06811989 0 0 Z " fill="#4C80B4" transform="translate(258,296)"/>
<path d="M0 0 C7.4813288 1.63156639 14.2738144 3.85774336 21.28515625 6.92578125 C24.59629642 8.23594463 27.46402987 8.75891113 31 9 C31 10.65 31 12.3 31 14 C28.525 13.505 28.525 13.505 26 13 C25.67 12.01 25.34 11.02 25 10 C21.99867189 8.82090681 19.09338465 7.89329771 16 7 C14.54011372 6.56725165 13.08049968 6.13358429 11.62109375 5.69921875 C7.41805762 4.45221243 3.21010587 3.2229125 -1 2 C-0.67 1.34 -0.34 0.68 0 0 Z " fill="#3C6098" transform="translate(239,104)"/>
<path d="M0 0 C2.0625 0.4375 2.0625 0.4375 4 1 C3.67 2.65 3.34 4.3 3 6 C1.39125 6.309375 1.39125 6.309375 -0.25 6.625 C-4.70591174 8.2588343 -5.77777608 9.91110799 -8 14 C-9.32 13.34 -10.64 12.68 -12 12 C-11.875 10.125 -11.875 10.125 -11 8 C-8.125 6.8125 -8.125 6.8125 -5 6 C-4.01 5.67 -3.02 5.34 -2 5 C-1.33820153 3.01954441 -1.33820153 3.01954441 -1 1 C-0.67 0.67 -0.34 0.34 0 0 Z " fill="#5087BB" transform="translate(161,132)"/>
<path d="M0 0 C1.875 0.25 1.875 0.25 4 1 C4.268125 1.598125 4.53625 2.19625 4.8125 2.8125 C6.27612116 5.50864424 8.04597858 7.04717318 10.734375 8.515625 C14.84374868 9.39418075 18.35420408 7.56632664 22.1328125 6.015625 C24.98094764 5.00674879 27.00986647 4.80284834 30 5 C27.02187403 6.98541731 24.50156031 7.98825276 21.125 9.125 C20.09632813 9.47820312 19.06765625 9.83140625 18.0078125 10.1953125 C15.11346917 10.96964331 12.96850606 11.34716427 10 11 C7.97945196 9.35830472 5.97956942 7.69088222 4 6 C1.27886497 5.13457301 1.27886497 5.13457301 -1 5 C-0.67 3.35 -0.34 1.7 0 0 Z " fill="#5393C0" transform="translate(161,119)"/>
<path d="M0 0 C2.375 0.125 2.375 0.125 5 1 C5.44988281 1.7528125 5.89976562 2.505625 6.36328125 3.28125 C8.18009245 6.29915117 10.13701228 8.09816406 12.8125 10.375 C16.96533102 14.00492697 20.53559187 17.71507415 24 22 C20.45915558 20.50533204 18.3151643 18.46451644 15.6875 15.6875 C8.86602706 8.67983193 8.86602706 8.67983193 0 5 C-0.5625 3.0625 -0.5625 3.0625 -1 1 C-0.67 0.67 -0.34 0.34 0 0 Z " fill="#5090BD" transform="translate(278,120)"/>
<path d="M0 0 C3.45669582 -0.31424507 5.39901677 -0.37956836 8.375 1.5 C10.84342728 5.29758044 10.64115176 7.51193768 10 12 C7.525 13.485 7.525 13.485 5 15 C5 10.38 5 5.76 5 1 C3.35 1 1.7 1 0 1 C0 0.67 0 0.34 0 0 Z " fill="#4972AF" transform="translate(240,244)"/>
<path d="M0 0 C1.32 0 2.64 0 4 0 C4.309375 1.423125 4.309375 1.423125 4.625 2.875 C5.84796691 7.19906157 8.11039357 10.70511225 10.46484375 14.5 C12.5711717 17.93015239 14.38184681 21.31061074 16 25 C15.67 25.99 15.34 26.98 15 28 C14.59273682 27.16807129 14.59273682 27.16807129 14.17724609 26.31933594 C12.92626057 23.78771818 11.65100067 21.26909588 10.375 18.75 C9.94832031 17.87730469 9.52164062 17.00460938 9.08203125 16.10546875 C6.3912674 10.84442301 4.27919942 7.75571114 -1 5 C-0.67 3.35 -0.34 1.7 0 0 Z " fill="#4A81B2" transform="translate(298,153)"/>
<path d="M0 0 C2.475 0.495 2.475 0.495 5 1 C4.6875 2.9375 4.6875 2.9375 4 5 C1.37334104 5.87555299 -0.30381808 6.11122593 -3 6.25 C-8.88081589 6.82161143 -13.78589145 9.35883474 -19 12 C-19.33 11.34 -19.66 10.68 -20 10 C-17.39869373 8.8265684 -14.79431492 7.66107492 -12.1875 6.5 C-11.44951172 6.16613281 -10.71152344 5.83226562 -9.95117188 5.48828125 C-9.23896484 5.17246094 -8.52675781 4.85664063 -7.79296875 4.53125 C-7.1383667 4.23798828 -6.48376465 3.94472656 -5.80932617 3.64257812 C-4 3 -4 3 -1 3 C-0.67 2.01 -0.34 1.02 0 0 Z " fill="#4271A4" transform="translate(188,132)"/>
<path d="M0 0 C6.30162703 0.59449312 6.30162703 0.59449312 8.9375 2.125 C10.69297303 5.22289358 10.48723574 7.52844534 10 11 C8.35 12.32 6.7 13.64 5 15 C4.67 10.38 4.34 5.76 4 1 C2.68 0.67 1.36 0.34 0 0 Z " fill="#4C7AB5" transform="translate(183,244)"/>
<path d="M0 0 C16.335 0.99 16.335 0.99 33 2 C29.17005575 4.55329617 26.00389405 4.34165377 21.5625 4.3125 C20.76150879 4.31121094 19.96051758 4.30992187 19.13525391 4.30859375 C12.46088252 4.20156835 6.35281399 3.09269167 0 1 C0 0.67 0 0.34 0 0 Z " fill="#4275A4" transform="translate(191,297)"/>
<path d="M0 0 C2.0625 0.4375 2.0625 0.4375 4 1 C3.93371259 15.4340836 3.93371259 15.4340836 0.72753906 19.68847656 C-2.47756617 22.70973254 -6.12275431 24.91909291 -10 27 C-10 26.01 -10 25.02 -10 24 C-8.1015625 22.17578125 -8.1015625 22.17578125 -5.625 20.3125 C-4.81289063 19.68988281 -4.00078125 19.06726563 -3.1640625 18.42578125 C-1 17 -1 17 1 17 C0.85764543 15.27054347 0.71095618 13.54144346 0.5625 11.8125 C0.48128906 10.84957031 0.40007812 9.88664062 0.31640625 8.89453125 C0.04941042 6.0001302 0.04941042 6.0001302 -0.59765625 3.19921875 C-0.73042969 2.47347656 -0.86320312 1.74773437 -1 1 C-0.67 0.67 -0.34 0.34 0 0 Z " fill="#4872AD" transform="translate(289,294)"/>
<path d="M0 0 C5.44994056 4.62419199 8.76507648 10.68863625 12 17 C12 17.66 12 18.32 12 19 C13.32 19.33 14.64 19.66 16 20 C15.67 21.32 15.34 22.64 15 24 C13.68 24 12.36 24 11 24 C10.87625 23.443125 10.7525 22.88625 10.625 22.3125 C9.40125308 17.78463641 7.47916779 13.96666846 5 10 C2.96413224 6.74261158 1.33859149 3.60390017 0 0 Z " fill="#3A5694" transform="translate(290,159)"/>
<path d="M0 0 C0.99 0.33 1.98 0.66 3 1 C1.89398438 1.83724609 1.89398438 1.83724609 0.765625 2.69140625 C-1.93119591 4.94256608 -4.04699317 7.20896673 -6.25 9.9375 C-6.93578125 10.77152344 -7.6215625 11.60554687 -8.328125 12.46484375 C-10.04576229 15.06939188 -10.62660364 16.9304623 -11 20 C-12.65 19.67 -14.3 19.34 -16 19 C-15.67 17.68 -15.34 16.36 -15 15 C-14.071875 14.87625 -14.071875 14.87625 -13.125 14.75 C-10.86458582 14.23093687 -10.86458582 14.23093687 -10.15625 12.28125 C-8.65253668 9.31446427 -6.62494131 7.19279343 -4.375 4.75 C-3.55773437 3.85796875 -2.74046875 2.9659375 -1.8984375 2.046875 C-1.27195313 1.37140625 -0.64546875 0.6959375 0 0 Z " fill="#4F8BBA" transform="translate(130,133)"/>
<path d="M0 0 C1.32 0 2.64 0 4 0 C4.0721875 0.62777344 4.144375 1.25554687 4.21875 1.90234375 C4.79037102 4.17989775 4.79037102 4.17989775 6.96875 4.94140625 C8.22171875 5.24884766 8.22171875 5.24884766 9.5 5.5625 C10.39460937 5.79710937 11.28921875 6.03171875 12.2109375 6.2734375 C13.13132813 6.51320313 14.05171875 6.75296875 15 7 C16.71316449 7.54760976 18.42201009 8.10902406 20.125 8.6875 C20.87007812 8.93886719 21.61515625 9.19023437 22.3828125 9.44921875 C22.91648438 9.63097656 23.45015625 9.81273437 24 10 C24 10.33 24 10.66 24 11 C19.16198894 10.64162881 15.34561204 9.85444425 10.875 7.9375 C7.0759603 6.31352778 4.19305918 5.55862535 0 6 C-0.38218767 4.34385343 -0.71395102 2.67542976 -1 1 C-0.67 0.67 -0.34 0.34 0 0 Z " fill="#508DBC" transform="translate(158,325)"/>
<path d="M0 0 C0 4.04936242 -1.53326518 5.18781827 -4.125 8.25 C-5.34896484 9.70599609 -5.34896484 9.70599609 -6.59765625 11.19140625 C-7.39042969 12.11824219 -8.18320312 13.04507812 -9 14 C-9.95712891 15.12728516 -9.95712891 15.12728516 -10.93359375 16.27734375 C-12.28152993 17.85801711 -13.63946788 19.43015525 -15 21 C-16.65 20.67 -18.3 20.34 -20 20 C-19.67 18.68 -19.34 17.36 -19 16 C-17.5459375 15.814375 -17.5459375 15.814375 -16.0625 15.625 C-8.91256079 13.64456877 -4.19689161 5.7109601 0 0 Z " fill="#508CBD" transform="translate(285,271)"/>
<path d="M0 0 C1.65 0.33 3.3 0.66 5 1 C5 1.66 5 2.32 5 3 C5.85851562 3.10183594 6.71703125 3.20367187 7.6015625 3.30859375 C11.28495755 4.05797412 14.05023208 5.32623231 17.375 7.0625 C18.43460938 7.61035156 19.49421875 8.15820312 20.5859375 8.72265625 C21.78089844 9.35494141 21.78089844 9.35494141 23 10 C22.01 10.495 22.01 10.495 21 11 C19.09767909 10.25370487 17.22646116 9.42729641 15.375 8.5625 C10.18801806 6.30022595 6.60173595 5.46137154 1 6 C-0.0625 4.125 -0.0625 4.125 -1 2 C-0.67 1.34 -0.34 0.68 0 0 Z " fill="#4B82B2" transform="translate(228,141)"/>
<path d="M0 0 C1.67542976 0.28604898 3.34385343 0.61781233 5 1 C5 2.32 5 3.64 5 5 C4.01 5.495 4.01 5.495 3 6 C1.9446819 9.02930359 1.81330917 12.01583182 1.68359375 15.203125 C1.64169922 16.1828125 1.59980469 17.1625 1.55664062 18.171875 C1.49766602 19.69554687 1.49766602 19.69554687 1.4375 21.25 C1.39431641 22.28125 1.35113281 23.3125 1.30664062 24.375 C1.20074318 26.9165387 1.09866557 29.45817196 1 32 C0.67 32 0.34 32 0 32 C0.00523682 31.20303711 0.01047363 30.40607422 0.01586914 29.58496094 C0.036659 25.97331531 0.04966661 22.36168229 0.0625 18.75 C0.07087891 17.49574219 0.07925781 16.24148437 0.08789062 14.94921875 C0.09111328 13.74394531 0.09433594 12.53867188 0.09765625 11.296875 C0.10289307 10.18666992 0.10812988 9.07646484 0.11352539 7.93261719 C0.01631387 5.42142417 -0.37746381 3.40840824 -1 1 C-0.67 0.67 -0.34 0.34 0 0 Z " fill="#5594C4" transform="translate(123,200)"/>
<path d="M0 0 C2.125 0.375 2.125 0.375 4 1 C4 2.32 4 3.64 4 5 C3.34 5 2.68 5 2 5 C2.10699219 6.04800781 2.21398437 7.09601563 2.32421875 8.17578125 C2.44615626 9.55461314 2.56720365 10.93352396 2.6875 12.3125 C2.79674805 13.34793945 2.79674805 13.34793945 2.90820312 14.40429688 C3.33135078 19.55674183 3.33135078 19.55674183 1.51953125 21.98046875 C1.01808594 22.31691406 0.51664062 22.65335938 0 23 C0.03480469 21.22882813 0.03480469 21.22882813 0.0703125 19.421875 C0.08907497 17.86458967 0.10727466 16.30729748 0.125 14.75 C0.14175781 13.97269531 0.15851563 13.19539062 0.17578125 12.39453125 C0.25968301 6.91693064 0.25968301 6.91693064 -2 2 C-1.34 1.34 -0.68 0.68 0 0 Z " fill="#4C80B4" transform="translate(102,215)"/>
<path d="M0 0 C1.75 0.125 1.75 0.125 4 1 C4.96492223 2.3642004 5.91932442 3.73882464 6.78515625 5.16796875 C9.15042638 8.73488737 12.13581855 11.83009132 15 15 C14.67 15.66 14.34 16.32 14 17 C13.40832031 16.28972656 12.81664062 15.57945312 12.20703125 14.84765625 C11.41683594 13.92855469 10.62664062 13.00945312 9.8125 12.0625 C9.03519531 11.14597656 8.25789063 10.22945312 7.45703125 9.28515625 C4.84764038 6.85829828 3.49260024 6.29156698 0 6 C-1.125 2.25 -1.125 2.25 0 0 Z " fill="#518CBE" transform="translate(268,150)"/>
<path d="M0 0 C6.6 0 13.2 0 20 0 C20 0.33 20 0.66 20 1 C15.05 1.66 10.1 2.32 5 3 C5 3.66 5 4.32 5 5 C3.68 5.33 2.36 5.66 1 6 C-0.0625 4.125 -0.0625 4.125 -1 2 C-0.67 1.34 -0.34 0.68 0 0 Z " fill="#518DBD" transform="translate(184,102)"/>
<path d="M0 0 C0.33 0.66 0.66 1.32 1 2 C0.0390625 4.4609375 0.0390625 4.4609375 -1.375 7.375 C-2.91721565 10.57143579 -4.28952283 13.51370506 -5 17 C-6.32 17.33 -7.64 17.66 -9 18 C-10.125 14.25 -10.125 14.25 -9 12 C-8.01 11.67 -7.02 11.34 -6 11 C-4.31250296 8.45327745 -4.31250296 8.45327745 -2.8125 5.4375 C-2.01779297 3.91962891 -2.01779297 3.91962891 -1.20703125 2.37109375 C-0.80871094 1.58863281 -0.41039062 0.80617188 0 0 Z " fill="#497AB0" transform="translate(321,268)"/>
<path d="M0 0 C-0.33 2.64 -0.66 5.28 -1 8 C-1.66 8 -2.32 8 -3 8 C-3.33 8.99 -3.66 9.98 -4 11 C-4.66 10.67 -5.32 10.34 -6 10 C-6.36567164 3.539801 -6.36567164 3.539801 -4.6875 1.0625 C-3 0 -3 0 0 0 Z " fill="#5EA5D4" transform="translate(242,245)"/>
<path d="M0 0 C1.32 0.33 2.64 0.66 4 1 C3.8125 3.375 3.8125 3.375 3 6 C1.35767228 6.72455635 -0.31624835 7.37774395 -2 8 C-4.4450172 9.87805669 -6.72777328 11.91767119 -9 14 C-7.72665538 11.21161108 -6.75752682 9.76358865 -4.5 7.5625 C-2.0481606 5.04936462 -1.03839869 3.30399584 0 0 Z " fill="#4E83B8" transform="translate(208,129)"/>
<path d="M0 0 C-0.85464844 0.26554687 -1.70929688 0.53109375 -2.58984375 0.8046875 C-4.24693359 1.33449219 -4.24693359 1.33449219 -5.9375 1.875 C-7.03964844 2.22304687 -8.14179688 2.57109375 -9.27734375 2.9296875 C-12.12878804 3.70024295 -12.12878804 3.70024295 -13 6 C-14.65 5.67 -16.3 5.34 -18 5 C-17.67 3.68 -17.34 2.36 -17 1 C-15.1746875 0.7834375 -15.1746875 0.7834375 -13.3125 0.5625 C-10.90261683 0.26923379 -8.62140511 -0.08604429 -6.25 -0.625 C-3.80290045 -1.03284993 -2.35682303 -0.66347539 0 0 Z " fill="#5493C3" transform="translate(190,115)"/>
<path d="M0 0 C1.32 0.33 2.64 0.66 4 1 C3.67 2.65 3.34 4.3 3 6 C1.948125 6.268125 0.89625 6.53625 -0.1875 6.8125 C-3.57519246 7.8676829 -6.07089567 9.04726378 -9 11 C-8 8 -8 8 -5.0625 6.0625 C-2.14475815 4.09749018 -1.14885011 3.2167803 0 0 Z " fill="#4B7CB2" transform="translate(278,304)"/>
<path d="M0 0 C0.5775 0.86625 1.155 1.7325 1.75 2.625 C2.20503906 3.26824219 2.66007812 3.91148437 3.12890625 4.57421875 C5.79903112 8.51028838 5.79903112 8.51028838 6.75 10.625 C6.42 11.615 6.09 12.605 5.75 13.625 C5.04423828 12.45130859 5.04423828 12.45130859 4.32421875 11.25390625 C3.70160156 10.24199219 3.07898438 9.23007813 2.4375 8.1875 C1.51517578 6.67349609 1.51517578 6.67349609 0.57421875 5.12890625 C-1.07051965 2.36229397 -1.07051965 2.36229397 -4.25 1.625 C-6.31618749 1.71768505 -6.31618749 1.71768505 -8.4375 2.0625 C-9.695625 2.248125 -10.95375 2.43375 -12.25 2.625 C-11.25 0.625 -11.25 0.625 -9.32421875 -0.1484375 C-2.89468556 -1.76897451 -2.89468556 -1.76897451 0 0 Z " fill="#4677AB" transform="translate(285.25,167.375)"/>
<path d="M0 0 C0.66 0 1.32 0 2 0 C2.93619813 3.15506142 3.1057123 5.96586502 3.0625 9.25 C3.05347656 10.14203125 3.04445312 11.0340625 3.03515625 11.953125 C3.02355469 12.62859375 3.01195312 13.3040625 3 14 C1.35 14 -0.3 14 -2 14 C-1.34 13.67 -0.68 13.34 0 13 C0 8.71 0 4.42 0 0 Z " fill="#558CC4" transform="translate(185,245)"/>
<path d="M0 0 C1.65 0.33 3.3 0.66 5 1 C5.144375 2.051875 5.28875 3.10375 5.4375 4.1875 C5.87526966 7.15460549 6.37804866 10.06794366 7 13 C4.84622436 10.37801226 3.59927826 8.35595828 3 5 C1.68 4.67 0.36 4.34 -1 4 C-0.67 2.68 -0.34 1.36 0 0 Z " fill="#4263A2" transform="translate(279,179)"/>
<path d="M0 0 C2.0625 0.4375 2.0625 0.4375 4 1 C3.67 2.65 3.34 4.3 3 6 C1.02 6.33 -0.96 6.66 -3 7 C-3.33 6.34 -3.66 5.68 -4 5 C-3.34 5 -2.68 5 -2 5 C-1.7834375 4.0409375 -1.7834375 4.0409375 -1.5625 3.0625 C-1 1 -1 1 0 0 Z " fill="#4B7FB2" transform="translate(161,132)"/>
<path d="M0 0 C2.375 0.1875 2.375 0.1875 5 1 C6.3125 3.5625 6.3125 3.5625 7 6 C4.125 6.125 4.125 6.125 1 6 C0.34 5.34 -0.32 4.68 -1 4 C-0.625 1.875 -0.625 1.875 0 0 Z " fill="#4E85B8" transform="translate(278,120)"/>
<path d="M0 0 C0.33 0.99 0.66 1.98 1 3 C0.67 3.66 0.34 4.32 0 5 C3.465 4.505 3.465 4.505 7 4 C5 6 5 6 2.0625 6.9375 C-0.85839516 7.95087179 -2.08604685 8.66072393 -4 11 C-3.39301257 6.87248551 -1.96189209 3.6678852 0 0 Z " fill="#5397C1" transform="translate(114,172)"/>
<path d="M0 0 C2.125 0.375 2.125 0.375 4 1 C3.25 5.75 3.25 5.75 1 8 C1 7.34 1 6.68 1 6 C0.34 6 -0.32 6 -1 6 C-1.625 4.125 -1.625 4.125 -2 2 C-1.34 1.34 -0.68 0.68 0 0 Z " fill="#4C7DB5" transform="translate(309,202)"/>
<path d="M0 0 C2.475 0.99 2.475 0.99 5 2 C5 3.32 5 4.64 5 6 C3.68 6.33 2.36 6.66 1 7 C-0.0625 5.1875 -0.0625 5.1875 -1 3 C-0.67 2.01 -0.34 1.02 0 0 Z " fill="#4F85BA" transform="translate(105,273)"/>
<path d="M0 0 C1.65 0.33 3.3 0.66 5 1 C4.67 2.65 4.34 4.3 4 6 C2.0625 5.6875 2.0625 5.6875 0 5 C-0.33 4.01 -0.66 3.02 -1 2 C-0.67 1.34 -0.34 0.68 0 0 Z " fill="#4E84B9" transform="translate(299,213)"/>
<path d="M0 0 C1.65 0.33 3.3 0.66 5 1 C4.67 2.32 4.34 3.64 4 5 C2.68 5 1.36 5 0 5 C-0.66 4.34 -1.32 3.68 -2 3 C-1.34 2.01 -0.68 1.02 0 0 Z " fill="#4F85BA" transform="translate(188,132)"/>
<path d="M0 0 C2.0625 0.4375 2.0625 0.4375 4 1 C4 2.32 4 3.64 4 5 C2.68 5.33 1.36 5.66 0 6 C-0.38218767 4.34385343 -0.71395102 2.67542976 -1 1 C-0.67 0.67 -0.34 0.34 0 0 Z " fill="#4F86BA" transform="translate(230,315)"/>
<path d="M0 0 C2.0625 0.4375 2.0625 0.4375 4 1 C4 2.32 4 3.64 4 5 C2.02 5.99 2.02 5.99 0 7 C-0.38133299 5.0085944 -0.71325582 3.00720923 -1 1 C-0.67 0.67 -0.34 0.34 0 0 Z " fill="#5187BD" transform="translate(301,258)"/>
<path d="M0 0 C0.33 0 0.66 0 1 0 C1 4.62 1 9.24 1 14 C-0.65 14 -2.3 14 -4 14 C-3.34 13.34 -2.68 12.68 -2 12 C-1.3162387 9.11282395 -1.3162387 9.11282395 -0.875 5.875 C-0.70742187 4.77929688 -0.53984375 3.68359375 -0.3671875 2.5546875 C-0.24601563 1.71164063 -0.12484375 0.86859375 0 0 Z " fill="#548AC2" transform="translate(244,245)"/>
<path d="M0 0 C1.67542976 0.28604898 3.34385343 0.61781233 5 1 C4.67 2.32 4.34 3.64 4 5 C2.68 5 1.36 5 0 5 C-0.5625 3.0625 -0.5625 3.0625 -1 1 C-0.67 0.67 -0.34 0.34 0 0 Z " fill="#4F85BA" transform="translate(301,178)"/>
<path d="M0 0 C1.67542976 0.28604898 3.34385343 0.61781233 5 1 C5 2.32 5 3.64 5 5 C3.35 5 1.7 5 0 5 C-0.5625 3.0625 -0.5625 3.0625 -1 1 C-0.67 0.67 -0.34 0.34 0 0 Z " fill="#5086BB" transform="translate(258,296)"/>
<path d="M0 0 C1.485 0.99 1.485 0.99 3 2 C3.375 5.5 3.375 5.5 3 9 C2.01 9.66 1.02 10.32 0 11 C0 7.37 0 3.74 0 0 Z " fill="#4768AA" transform="translate(190,246)"/>
<path d="M0 0 C1.98 0.495 1.98 0.495 4 1 C3.67 2.65 3.34 4.3 3 6 C1.68 5.67 0.36 5.34 -1 5 C-0.67 3.35 -0.34 1.7 0 0 Z " fill="#528CC0" transform="translate(227,326)"/>
<path d="M0 0 C1.98 0.495 1.98 0.495 4 1 C3.67 2.65 3.34 4.3 3 6 C1.68 5.67 0.36 5.34 -1 5 C-0.67 3.35 -0.34 1.7 0 0 Z " fill="#538CC2" transform="translate(243,301)"/>
<path d="M0 0 C1.65 0.33 3.3 0.66 5 1 C4.67 2.32 4.34 3.64 4 5 C2.35 4.67 0.7 4.34 -1 4 C-0.67 2.68 -0.34 1.36 0 0 Z " fill="#538BC1" transform="translate(171,106)"/>
<path d="M0 0 C1.65 0.33 3.3 0.66 5 1 C5 2.32 5 3.64 5 5 C3.35 5 1.7 5 0 5 C-0.33 4.01 -0.66 3.02 -1 2 C-0.67 1.34 -0.34 0.68 0 0 Z " fill="#528AC0" transform="translate(110,154)"/>
<path d="M0 0 C1.32 0 2.64 0 4 0 C4 1.65 4 3.3 4 5 C2.35 5 0.7 5 -1 5 C-0.67 3.35 -0.34 1.7 0 0 Z " fill="#5284BF" transform="translate(141,148)"/>
<path d="M0 0 C1.32 0 2.64 0 4 0 C4 1.65 4 3.3 4 5 C2.35 5 0.7 5 -1 5 C-0.67 3.35 -0.34 1.7 0 0 Z " fill="#558EC5" transform="translate(148,129)"/>
<path d="M0 0 C1.25541557 3.76624671 0.37061958 5.37188934 -1 9 C-0.34 9.33 0.32 9.66 1 10 C-0.65 10.66 -2.3 11.32 -4 12 C-3.52494322 10.18641846 -3.04483958 8.37415821 -2.5625 6.5625 C-2.29566406 5.55316406 -2.02882813 4.54382813 -1.75390625 3.50390625 C-1 1 -1 1 0 0 Z " fill="#5396C1" transform="translate(268,305)"/>
<path d="M0 0 C1.98 0.495 1.98 0.495 4 1 C4 2.32 4 3.64 4 5 C2.35 5 0.7 5 -1 5 C-0.67 3.35 -0.34 1.7 0 0 Z " fill="#5492C3" transform="translate(308,189)"/>
<path d="M0 0 C1.32 0 2.64 0 4 0 C4 1.65 4 3.3 4 5 C2.35 4.67 0.7 4.34 -1 4 C-0.67 2.68 -0.34 1.36 0 0 Z " fill="#558EC5" transform="translate(266,113)"/>
<path d="M0 0 C0.99 0 1.98 0 3 0 C3 1.65 3 3.3 3 5 C1.68 5 0.36 5 -1 5 C-0.67 3.35 -0.34 1.7 0 0 Z " fill="#5896C9" transform="translate(252,330)"/>
<path d="M0 0 C0.33 0 0.66 0 1 0 C0.67 3.63 0.34 7.26 0 11 C-0.99 10.67 -1.98 10.34 -3 10 C-2.69201674 8.51988629 -2.378482 7.04092675 -2.0625 5.5625 C-1.88847656 4.73878906 -1.71445313 3.91507813 -1.53515625 3.06640625 C-1 1 -1 1 0 0 Z " fill="#60AAD8" transform="translate(182,246)"/>
<path d="M0 0 C0.99 0 1.98 0 3 0 C3 1.65 3 3.3 3 5 C1.68 5 0.36 5 -1 5 C-0.67 3.35 -0.34 1.7 0 0 Z " fill="#5896C9" transform="translate(298,153)"/>
<path d="M0 0 C0.99 0 1.98 0 3 0 C3 1.65 3 3.3 3 5 C1.68 4.67 0.36 4.34 -1 4 C-0.67 2.68 -0.34 1.36 0 0 Z " fill="#5796C8" transform="translate(143,260)"/>
<path d="M0 0 C0.99 0 1.98 0 3 0 C3 1.65 3 3.3 3 5 C1.68 4.67 0.36 4.34 -1 4 C-0.67 2.68 -0.34 1.36 0 0 Z " fill="#5695C7" transform="translate(279,179)"/>
<path d="M0 0 C0.66 0.33 1.32 0.66 2 1 C2 2.65 2 4.3 2 6 C1.01 6 0.02 6 -1 6 C-1.042721 4.33388095 -1.04063832 2.66617115 -1 1 C-0.67 0.67 -0.34 0.34 0 0 Z " fill="#65B5E0" transform="translate(237,249)"/>
<path d="M0 0 C1.125 1.625 1.125 1.625 2 4 C1.125 7.25 1.125 7.25 0 10 C-0.66 9.34 -1.32 8.68 -2 8 C-1.7578125 6.0546875 -1.7578125 6.0546875 -1.125 3.875 C-0.92132813 3.15054688 -0.71765625 2.42609375 -0.5078125 1.6796875 C-0.34023438 1.12539062 -0.17265625 0.57109375 0 0 Z " fill="#314D84" transform="translate(308,240)"/>
<path d="M0 0 C0.99 0 1.98 0 3 0 C3 1.65 3 3.3 3 5 C1.68 4.67 0.36 4.34 -1 4 C-0.67 2.68 -0.34 1.36 0 0 Z " fill="#5593C4" transform="translate(228,141)"/>
</svg>
