<?xml version="1.0" encoding="UTF-8"?>
<svg version="1.1" xmlns="http://www.w3.org/2000/svg" width="421" height="432">
<path d="M0 0 C138.93 0 277.86 0 421 0 C421 142.56 421 285.12 421 432 C282.07 432 143.14 432 0 432 C0 289.44 0 146.88 0 0 Z " fill="#121212" transform="translate(0,0)"/>
<path d="M0 0 C6.91416765 1.9807491 10.2751141 8.43733017 13.6328125 14.25390625 C14.58322722 15.8680175 15.53504862 17.4813013 16.48828125 19.09375 C17.17543213 20.26139893 17.17543213 20.26139893 17.87646484 21.45263672 C19.02797255 23.35277365 20.22558412 25.18613003 21.49609375 27.0078125 C22.13933594 27.93464844 22.78257812 28.86148438 23.4453125 29.81640625 C24.00734375 30.59371094 24.569375 31.37101562 25.1484375 32.171875 C26.65835437 35.71567244 26.10874195 37.9193456 25.1953125 41.62890625 C23.56640625 45.15625 23.56640625 45.15625 21.6328125 48.56640625 C20.99214844 49.70980469 20.35148437 50.85320312 19.69140625 52.03125 C19.19769531 52.88847656 18.70398438 53.74570313 18.1953125 54.62890625 C16.8753125 54.62890625 15.5553125 54.62890625 14.1953125 54.62890625 C12.50366211 52.609375 12.50366211 52.609375 10.84765625 49.81640625 C10.24244141 48.82382813 9.63722656 47.83125 9.01367188 46.80859375 C8.39298828 45.75929687 7.77230469 44.71 7.1328125 43.62890625 C5.9017098 41.56055207 4.66129311 39.49770375 3.41015625 37.44140625 C2.86480225 36.51972656 2.31944824 35.59804687 1.75756836 34.6484375 C1.24202393 33.98199219 0.72647949 33.31554687 0.1953125 32.62890625 C-0.7946875 32.62890625 -1.7846875 32.62890625 -2.8046875 32.62890625 C-4.3010235 34.34884932 -4.3010235 34.34884932 -5.6171875 36.64453125 C-6.13539063 37.48371094 -6.65359375 38.32289063 -7.1875 39.1875 C-7.72117188 40.07566406 -8.25484375 40.96382812 -8.8046875 41.87890625 C-9.8658104 43.61412413 -10.92826625 45.34852773 -11.9921875 47.08203125 C-12.46011719 47.85708008 -12.92804688 48.63212891 -13.41015625 49.43066406 C-14.77710696 51.5854302 -16.24621415 53.60955693 -17.8046875 55.62890625 C-21.74269758 54.39327781 -23.13582589 51.87998253 -25.04882812 48.36523438 C-25.40138672 47.68912109 -25.75394531 47.01300781 -26.1171875 46.31640625 C-26.48908203 45.65189453 -26.86097656 44.98738281 -27.24414062 44.30273438 C-28.69692893 41.56759662 -29.79238466 39.27890648 -29.8515625 36.15234375 C-28.26230935 32.32153206 -26.04999579 29.00107855 -23.7421875 25.56640625 C-23.24775146 24.8185083 -22.75331543 24.07061035 -22.24389648 23.30004883 C-21.24239988 21.78703253 -20.23762573 20.2761803 -19.22949219 18.76757812 C-17.95174249 16.84963992 -16.690485 14.92244824 -15.4375 12.98828125 C-7.11985092 0.24501511 -7.11985092 0.24501511 0 0 Z " fill="#5690C6" transform="translate(215.8046875,194.37109375)"/>
<path d="M0 0 C2.9375 2.4375 2.9375 2.4375 5 5 C5.495 5.495 5.495 5.495 6 6 C6.69074874 12.86994674 5.19052653 16.29084467 1.25 21.8125 C0.24187 23.29186636 -0.76457549 24.77238175 -1.76953125 26.25390625 C-2.29756348 27.02234863 -2.8255957 27.79079102 -3.36962891 28.58251953 C-6.69958059 33.52010288 -9.79721601 38.60841708 -12.93847656 43.66723633 C-15.42928847 47.64158396 -17.96259761 51.40968984 -21 55 C-25.23264451 53.5891185 -26.25564798 50.60728735 -28.25 46.875 C-28.62640625 46.22273438 -29.0028125 45.57046875 -29.390625 44.8984375 C-31.16089106 41.61823862 -31.98631805 39.39449634 -32.1171875 35.62109375 C-30.54725833 30.53254712 -27.86169642 26.56243732 -24.875 22.1875 C-23.98965576 20.86226318 -23.98965576 20.86226318 -23.08642578 19.51025391 C-21.40304953 16.9983952 -19.70321213 14.49843091 -18 12 C-17.22832728 10.84821818 -16.45734763 9.69597125 -15.6875 8.54296875 C-11.46308235 2.3246988 -8.20723968 -1.63184882 0 0 Z " fill="#568FC6" transform="translate(276,195)"/>
<path d="M0 0 C5.0268295 3.07913511 7.43388906 7.53496197 10.3125 12.5 C14.18084208 19.05271307 18.19424178 25.30878224 22.734375 31.421875 C24.42459397 34.86491365 24.10597605 36.34350777 23 40 C21.78355951 42.70694902 20.38901084 45.28785114 18.9375 47.875 C18.37192383 48.90753906 18.37192383 48.90753906 17.79492188 49.9609375 C16.87106965 51.6449213 15.93660333 53.32307467 15 55 C11.62699796 53.60195566 10.13032329 52.16621126 8.1875 49.09765625 C7.67469482 48.29875977 7.16188965 47.49986328 6.63354492 46.67675781 C6.0944751 45.81405273 5.55540527 44.95134766 5 44.0625 C4.43837158 43.17530273 3.87674316 42.28810547 3.2980957 41.37402344 C2.12235475 39.5163626 0.94963607 37.65678584 -0.22021484 35.79541016 C-1.94904952 33.0800251 -3.724369 30.40234984 -5.51953125 27.73046875 C-6.61723117 26.07034138 -7.71488911 24.41018624 -8.8125 22.75 C-9.33392578 21.98953369 -9.85535156 21.22906738 -10.39257812 20.44555664 C-13.70538939 15.35666051 -14.73813267 12.08142937 -14 6 C-10.45210677 0.44163393 -6.57667194 -1.29163467 0 0 Z " fill="#568FC6" transform="translate(161,195)"/>
<path d="M0 0 C1.32 0.66 2.64 1.32 4 2 C3.67 3.32 3.34 4.64 3 6 C2.00226563 5.93941406 1.00453125 5.87882813 -0.0234375 5.81640625 C-4.39570003 6.01826906 -7.70761816 7.1434009 -11.625 8.9375 C-12.32012695 9.25178955 -13.01525391 9.5660791 -13.73144531 9.88989258 C-33.26260699 19.04149657 -47.2652114 33.90400923 -56.5 53.1875 C-58.33552766 56.64034574 -59.9361063 57.769608 -63.625 59.0625 C-66.24641216 59.74693014 -68.26925299 60 -71 60 C-75.46707536 91.15864264 -75.07528052 120.89819144 -55.4375 147.375 C-53.96621707 149.2561926 -52.48815611 151.13212676 -51 153 C-50.21625 154.051875 -49.4325 155.10375 -48.625 156.1875 C-33.12942681 172.78989985 -13.20707053 182.63120896 9 186 C9.7321875 186.13019531 10.464375 186.26039063 11.21875 186.39453125 C20.15685484 187.81478096 30.10451129 187.71067091 39 186 C39.66 185.34 40.32 184.68 41 184 C43.625 184.375 43.625 184.375 46 185 C45.67 186.32 45.34 187.64 45 189 C40.2901542 189.07537299 35.58067575 189.12916471 30.87036133 189.16479492 C29.27524688 189.17968159 27.68017183 189.19999768 26.08520508 189.22631836 C4.72812545 189.56937696 -19.4438004 185.19248233 -35.91796875 170.26171875 C-38.51261633 168.68935258 -40.55697066 168.84169041 -43.53295898 168.94262695 C-48.67037197 169.08351761 -52.63269923 168.93019801 -56.95703125 165.98828125 C-59.5871424 163.15107473 -61.85343801 160.20642118 -64 157 C-64.60497314 156.12794922 -64.60497314 156.12794922 -65.22216797 155.23828125 C-68.98614107 149.78384794 -72.50679105 144.23629974 -75.375 138.25 C-76.76485082 134.79844356 -76.76485082 134.79844356 -80 133 C-79.67 131.35 -79.34 129.7 -79 128 C-77.68 128.33 -76.36 128.66 -75 129 C-74.814375 130.2375 -74.62875 131.475 -74.4375 132.75 C-72.39036595 141.9188539 -66.50319887 149.88486949 -60.59765625 157.0234375 C-59 159 -59 159 -57.87109375 160.8515625 C-56.7176461 162.81079845 -56.7176461 162.81079845 -54 165 C-49.99488985 165.78840751 -46.07596335 165.98699852 -42 166 C-42 165.34 -42 164.68 -42 164 C-42.56332031 163.76796875 -43.12664062 163.5359375 -43.70703125 163.296875 C-58.1024987 155.15497518 -68.82569591 132.49335194 -73.35839844 117.4855957 C-77.72815812 100.55693384 -79.0079278 78.41476179 -73.66015625 61.56640625 C-71.51309142 58.24729662 -69.9748258 57.88077639 -66.1875 56.9375 C-65.12402344 56.71191406 -64.06054688 56.48632812 -62.96484375 56.25390625 C-57.90165807 54.11255895 -56.6730255 49.37739443 -54.64453125 44.61328125 C-52.24248875 39.33563442 -48.78170167 35.33875731 -45 31 C-44.54367188 30.40058594 -44.08734375 29.80117187 -43.6171875 29.18359375 C-34.43152785 17.33024253 -19.66442681 8.98968796 -5.78515625 4.17578125 C-3.15698409 3.06627239 -1.79415569 2.16924051 0 0 Z " fill="#5494B4" transform="translate(189,132)"/>
<path d="M0 0 C1.15910889 -0.00128906 2.31821777 -0.00257812 3.51245117 -0.00390625 C29.55449423 0.32131901 56.24903254 9.93358931 75 28.5 C77.22453299 30.56767489 78.18080396 31.327567 81.234375 31.58203125 C83.48385939 31.34101507 85.57111874 30.97520109 87.75 30.375 C82.10842323 22.89693805 74.72671292 16.36723764 65.75 13.375 C65.75 12.055 65.75 10.735 65.75 9.375 C67.07 9.045 68.39 8.715 69.75 8.375 C70.183125 9.179375 70.61625 9.98375 71.0625 10.8125 C73.1912193 14.02806542 75.7883455 16.12819883 78.8125 18.5 C101.59706126 36.67917122 116.90062052 64.89401791 120.51123047 93.77294922 C121.73412162 107.0997119 121.77087986 121.30188198 118.75 134.375 C118.50507813 135.52097656 118.26015625 136.66695312 118.0078125 137.84765625 C116.0528187 146.07420096 113.16015955 153.48676136 109.56787109 161.12182617 C107.51705687 165.49277843 105.94508076 169.69324033 104.75 174.375 C103.43 174.375 102.11 174.375 100.75 174.375 C100.42 173.055 100.09 171.735 99.75 170.375 C100.36875 170.313125 100.9875 170.25125 101.625 170.1875 C103.94616811 169.58679852 103.94616811 169.58679852 104.671875 167.31640625 C105.02765625 166.34574219 105.3834375 165.37507812 105.75 164.375 C106.27236718 163.14575043 106.8015624 161.9193898 107.3359375 160.6953125 C119.27041624 132.87700662 122.53889185 101.45918556 112.75 72.375 C112.49831055 71.62476563 112.24662109 70.87453125 111.98730469 70.1015625 C108.10289802 58.96137733 102.41993668 49.07120537 95.75 39.375 C95.1415625 38.40820312 94.533125 37.44140625 93.90625 36.4453125 C91.82819141 34.04243016 91.82819141 34.04243016 88.32421875 33.9140625 C87.04160156 33.94242188 85.75898438 33.97078125 84.4375 34 C77.56860243 33.88370294 77.56860243 33.88370294 74.5625 32.015625 C73.46281125 30.82077088 72.40175552 29.58938274 71.37890625 28.328125 C57.37508827 11.53697635 29.49043688 4.57991613 8.75 2.375 C0.29272341 1.74113841 -7.83151848 2.42814637 -16.1875 3.6875 C-16.96859131 3.80496582 -17.74968262 3.92243164 -18.55444336 4.04345703 C-27.66696071 5.55545897 -27.66696071 5.55545897 -35.25 10.375 C-37.375 10 -37.375 10 -39.25 9.375 C-38.92 7.725 -38.59 6.075 -38.25 4.375 C-36.73986328 4.436875 -36.73986328 4.436875 -35.19921875 4.5 C-31.10644978 4.37045637 -27.97597196 3.54295847 -24.0625 2.375 C-16.06201774 0.25679451 -8.24968981 -0.00873272 0 0 Z " fill="#416593" transform="translate(211.25,111.625)"/>
<path d="M0 0 C1.65 0 3.3 0 5 0 C5 1.65 5 3.3 5 5 C4.319375 5.185625 3.63875 5.37125 2.9375 5.5625 C-0.00894548 7.00437757 -0.8014365 7.87805471 -2.8125 10.3125 C-6.75248347 14.46661301 -11.33390222 15.59483821 -16.66552734 17.08959961 C-29.97901054 20.88711074 -41.54787932 27.82079312 -51 38 C-51.59296875 38.57621094 -52.1859375 39.15242188 -52.796875 39.74609375 C-65.4069825 52.67389775 -72.42666723 72.49409189 -72.4375 90.4375 C-72.12745156 99.05856918 -70.97484802 107.16812904 -68.3125 115.375 C-67.07343984 119.30602843 -66.68955509 121.97506206 -68 126 C-68.53625 126.825 -69.0725 127.65 -69.625 128.5 C-71.46748484 131.84997244 -70.94671532 133.33428238 -70 137 C-68.32801111 139.87401833 -68.32801111 139.87401833 -66.1875 142.5625 C-65.50042969 143.47128906 -64.81335938 144.38007813 -64.10546875 145.31640625 C-63.41066406 146.20199219 -62.71585938 147.08757812 -62 148 C-61.32324219 148.87011719 -60.64648438 149.74023438 -59.94921875 150.63671875 C-46.97942943 166.36161362 -25.69847292 175.69680247 -5.9375 178.75 C7.3359829 179.59276082 21.64243689 179.65563529 34 174 C34.66 173.34 35.32 172.68 36 172 C37.32 172 38.64 172 40 172 C40 173.65 40 175.3 40 177 C36.60360048 178.13213317 33.51292733 178.3509586 29.9609375 178.62109375 C27.51567455 178.93400998 25.32842463 179.40968914 22.94921875 180.01171875 C7.88545452 183.44624449 -9.49020674 182.09758523 -24 177 C-25.07121094 176.62617188 -26.14242187 176.25234375 -27.24609375 175.8671875 C-46.50456931 168.45819436 -64.27315396 153.36582115 -74 135 C-73.8423583 131.84716608 -73.19275513 130.27430537 -71.375 127.6875 C-68.68578152 122.43130025 -71.02430899 116.90544398 -72.52734375 111.51953125 C-74.15270989 105.03828515 -74.50178527 98.91124916 -74.4375 92.25 C-74.42775146 91.11183838 -74.41800293 89.97367676 -74.40795898 88.80102539 C-73.9670202 67.75404586 -65.99393291 48.97232782 -51 34 C-40.45057776 24.46655115 -28.26184018 17.41559833 -14.4375 13.9375 C-8.40531854 12.38125227 -4.43658124 10.3089255 -1 5 C0.02649583 2.24854963 0.02649583 2.24854963 0 0 Z " fill="#4E86AA" transform="translate(207,130)"/>
<path d="M0 0 C1.65 0 3.3 0 5 0 C5 1.32 5 2.64 5 4 C5.598125 4.28875 6.19625 4.5775 6.8125 4.875 C9 6 9 6 12 8 C17.60868268 7.49228332 22.90964718 5.5848316 28.26953125 3.9375 C54.6761177 -2.69871021 81.66026422 3.17381864 104.99609375 16.14453125 C109.68162384 19.03871434 113.82683488 22.42193864 118 26 C118.58910156 26.44472656 119.17820312 26.88945312 119.78515625 27.34765625 C128.75489123 34.2817067 135.8444442 44.67474697 140.68359375 54.79296875 C142.1420309 57.23812302 143.63272361 58.45699819 146 60 C145.67 61.32 145.34 62.64 145 64 C143.35 63.67 141.7 63.34 140 63 C139.9175 61.98550781 139.835 60.97101563 139.75 59.92578125 C138.93662136 55.66825242 137.38727779 52.71186147 135 49.1875 C134.59918213 48.58220459 134.19836426 47.97690918 133.78540039 47.35327148 C130.00071885 41.76678295 125.71793886 36.82050275 121 32 C120.11828125 30.90945312 120.11828125 30.90945312 119.21875 29.796875 C117.20571734 27.55428598 115.75961907 26.24248252 113 25 C109.68460789 25.03994448 106.55020004 25.35064712 103.26953125 25.76757812 C96.53209083 26.44505138 92.37569212 24.21054594 86.53125 20.859375 C79.74412186 17.28562169 70.7156051 14.19067079 63 15 C59.39570039 17.93373224 57.39281055 20.56833005 56 25 C54.68 25 53.36 25 52 25 C52 23.35 52 21.7 52 20 C52.70125 19.79375 53.4025 19.5875 54.125 19.375 C57.04018348 17.98078181 57.71458126 17.18245177 59.625 14.75 C61.62483625 12.66365684 62.4456576 12.02009149 65.37109375 11.9140625 C68.32689584 12.42028114 71.12288608 13.15379002 74 14 C75.57394531 14.41378906 75.57394531 14.41378906 77.1796875 14.8359375 C82.92565354 16.44811502 87.96187712 18.42500838 93.1875 21.3125 C98.79505407 24.29174644 102.88464484 24.48825015 109 23 C105.74895293 19.30450599 102.05110128 17.19560675 97.6875 15.0625 C96.98254395 14.71622559 96.27758789 14.36995117 95.55126953 14.01318359 C72.79854979 3.1115792 49.99295914 1.28816367 25.83984375 7.7109375 C24.63545654 8.03082642 24.63545654 8.03082642 23.40673828 8.35717773 C21.77264391 8.79363244 20.14084779 9.23876576 18.51123047 9.69165039 C17.71990723 9.8952417 16.92858398 10.09883301 16.11328125 10.30859375 C15.41114502 10.49736084 14.70900879 10.68612793 13.9855957 10.88061523 C10.73034942 11.07633827 8.9486975 9.2868489 6.57421875 7.25 C4.50519391 5.60710186 2.60030588 5.23639144 0 5 C0 3.35 0 1.7 0 0 Z " fill="#426696" transform="translate(160,120)"/>
<path d="M0 0 C1.32 0.33 2.64 0.66 4 1 C3.9375 3.3125 3.9375 3.3125 3 6 C1.41441436 6.65491581 -0.17631383 7.29902925 -1.78515625 7.89453125 C-15.98899611 14.98392575 -25.99629138 32.43145746 -33 46 C-33.33 46.99 -33.66 47.98 -34 49 C-27.68901007 47.41272889 -23.82244657 45.53009216 -20.375 39.875 C-19.83230469 38.91078125 -19.28960937 37.9465625 -18.73046875 36.953125 C-16.44159987 33.04706434 -13.62697565 29.72874546 -10.69921875 26.2890625 C-8.95212526 23.93550667 -7.95983851 21.75770862 -7 19 C-5.68 19.33 -4.36 19.66 -3 20 C-3 21.32 -3 22.64 -3 24 C-3.73347656 24.2165625 -4.46695313 24.433125 -5.22265625 24.65625 C-8.74290682 26.35943734 -10.15366969 28.34090496 -12.4375 31.5 C-12.82945557 32.03101318 -13.22141113 32.56202637 -13.62524414 33.10913086 C-16.05577588 36.46029585 -18.035909 39.89437419 -19.9375 43.5625 C-22.16075517 47.45319655 -23.90048083 48.7930504 -28.1875 50.125 C-30.91790815 50.7373496 -33.19231704 51 -36 51 C-36.12246094 51.68578125 -36.24492188 52.3715625 -36.37109375 53.078125 C-37.08057838 56.37436414 -38.06421239 59.5297174 -39.0625 62.75 C-40.72206951 68.44166437 -41.40655598 73.10493836 -41 79 C-42.65 79 -44.3 79 -46 79 C-46 77.35 -46 75.7 -46 74 C-45.34 74 -44.68 74 -44 74 C-43.92523438 73.3915625 -43.85046875 72.783125 -43.7734375 72.15625 C-42.2641424 62.09428264 -38.78588647 51.99654621 -34 43 C-37.34563047 43.02915582 -39.99806099 43.48386919 -43 45 C-50.98246181 56.04041982 -52.84234875 74.75640575 -52 88 C-53.65 87.67 -55.3 87.34 -57 87 C-57 85.68 -57 84.36 -57 83 C-56.34 83 -55.68 83 -55 83 C-54.96132812 81.85337891 -54.96132812 81.85337891 -54.921875 80.68359375 C-54.44653061 71.70606666 -52.66532105 63.57101529 -50 55 C-49.68546875 53.84113281 -49.3709375 52.68226563 -49.046875 51.48828125 C-47.99486011 48.23410087 -47.06648004 45.73053992 -45 43 C-42.00056696 41.90929708 -39.13268114 41.4913092 -35.984375 40.9921875 C-31.07595478 39.36033052 -29.56366185 35.6962025 -27.046875 31.390625 C-24.85409734 27.75831391 -22.42986632 24.59844123 -19.6875 21.375 C-19.22786865 20.83375488 -18.7682373 20.29250977 -18.29467773 19.73486328 C-14.30514791 15.15108929 -9.947249 11.15289741 -5.3125 7.21875 C-2.97707396 4.97800339 -1.52076474 2.84142885 0 0 Z " fill="#4E85AB" transform="translate(148,129)"/>
<path d="M0 0 C1.67542976 0.28604898 3.34385343 0.61781233 5 1 C4.60995966 3.73028238 4.1583025 4.84669653 2.14453125 6.796875 C-0.20555547 9.21117174 -1.49811175 11.52326124 -3.0625 14.5 C-7.1273634 21.65276392 -12.27681084 27.1699122 -18 33 C-18.7734375 33.80050781 -19.546875 34.60101563 -20.34375 35.42578125 C-25.47488151 40.66221583 -25.47488151 40.66221583 -28.11328125 42.359375 C-30.64465709 44.56057138 -30.98942463 46.45505468 -31.75 49.6875 C-32.11351562 51.17830078 -32.11351562 51.17830078 -32.484375 52.69921875 C-32.65453125 53.45847656 -32.8246875 54.21773438 -33 55 C-31.70094902 54.2628641 -30.41098878 53.50969444 -29.125 52.75 C-28.40570313 52.33234375 -27.68640625 51.9146875 -26.9453125 51.484375 C-24.79125838 49.84071924 -24.00859415 48.48432665 -23 46 C-21.68 46 -20.36 46 -19 46 C-19 47.65 -19 49.3 -19 51 C-20.02996094 51.25265625 -21.05992187 51.5053125 -22.12109375 51.765625 C-25.8856267 52.84309614 -28.79335741 54.57338377 -32.0625 56.75 C-36.69550022 59.7932586 -41.12064595 61.86984775 -46.375 63.75 C-53.12962376 66.44585871 -55.50056698 69.82515867 -58.375 76.390625 C-60 79 -60 79 -62.6875 80.296875 C-85.87031015 85.21775451 -111.50292118 83.21446224 -133.34375 74.0390625 C-136.6175561 72.75842658 -139.50903235 72.24355588 -143 72 C-143.495 69.525 -143.495 69.525 -144 67 C-142.02 66.505 -142.02 66.505 -140 66 C-139.90589844 66.63035156 -139.81179687 67.26070313 -139.71484375 67.91015625 C-139.47894531 68.59980469 -139.24304688 69.28945313 -139 70 C-135.97761201 71.26390771 -133.15173125 72.13792044 -130 73 C-128.61798272 73.40713758 -127.23651443 73.81614126 -125.85546875 74.2265625 C-106.20442581 79.98646056 -82.81001951 83.84486894 -62.7265625 77.25390625 C-60.32208232 75.50766612 -59.55389179 73.46789761 -58.25 70.8125 C-54.93127258 65.22077108 -51.67119928 63.57902343 -45.8125 61.4375 C-40.29918253 59.50108205 -40.29918253 59.50108205 -36.1796875 55.5625 C-35.22991144 53.04970666 -34.62493289 50.60859082 -34 48 C-31.9734336 43.06911869 -29.45682816 40.27635386 -25.4375 36.8125 C-15.35179038 27.84418891 -6.51644079 18.48133252 -1 6 C-0.80010148 3.26476833 -0.80010148 3.26476833 -1 1 C-0.67 0.67 -0.34 0.34 0 0 Z " fill="#4D81AA" transform="translate(301,259)"/>
<path d="M0 0 C1.98 0.495 1.98 0.495 4 1 C4.185625 2.2375 4.37125 3.475 4.5625 4.75 C6.60963405 13.9188539 12.49680113 21.88486949 18.40234375 29.0234375 C20 31 20 31 21.12890625 32.8515625 C22.2823539 34.81079845 22.2823539 34.81079845 25 37 C29.00511015 37.78840751 32.92403665 37.98699852 37 38 C37 37.34 37 36.68 37 36 C36.42765625 35.76539063 35.8553125 35.53078125 35.265625 35.2890625 C32.48315699 33.70593415 30.82929786 31.8008475 28.75 29.375 C27.69039062 28.14910156 27.69039062 28.14910156 26.609375 26.8984375 C26.07828125 26.27195312 25.5471875 25.64546875 25 25 C25.33 24.34 25.66 23.68 26 23 C26.37769531 23.47308594 26.75539062 23.94617188 27.14453125 24.43359375 C42.72505774 43.15211855 64.19218312 54.38837729 88 58 C88.7321875 58.13019531 89.464375 58.26039063 90.21875 58.39453125 C99.15685484 59.81478096 109.10451129 59.71067091 118 58 C118.99 57.01 118.99 57.01 120 56 C122.625 56.375 122.625 56.375 125 57 C124.67 58.32 124.34 59.64 124 61 C119.2901542 61.07537299 114.58067575 61.12916471 109.87036133 61.16479492 C108.27524688 61.17968159 106.68017183 61.19999768 105.08520508 61.22631836 C83.72812545 61.56937696 59.5561996 57.19248233 43.08203125 42.26171875 C40.48738367 40.68935258 38.44302934 40.84169041 35.46704102 40.94262695 C30.32962803 41.08351761 26.36730077 40.93019801 22.04296875 37.98828125 C19.4128576 35.15107473 17.14656199 32.20642118 15 29 C14.59668457 28.41863281 14.19336914 27.83726562 13.77783203 27.23828125 C10.01385893 21.78384794 6.49320895 16.23629974 3.625 10.25 C2.23514918 6.79844356 2.23514918 6.79844356 -1 5 C-0.67 3.35 -0.34 1.7 0 0 Z " fill="#4D83AA" transform="translate(110,260)"/>
<path d="M0 0 C1.65 0.33 3.3 0.66 5 1 C5.25007813 1.89203125 5.50015625 2.7840625 5.7578125 3.703125 C9.25670649 12.98949772 19.82901105 21.54164706 28 27 C32.95239427 28.3264235 36.1642478 27.64415575 41 26 C35.36264929 22.5635133 35.36264929 22.5635133 29 21 C27.875 17.25 27.875 17.25 29 15 C30.32 15.33 31.64 15.66 33 16 C33.061875 16.61875 33.12375 17.2375 33.1875 17.875 C33.455625 18.57625 33.72375 19.2775 34 20 C35.65715202 20.68997784 37.32631292 21.35115967 39 22 C41.15867805 23.24889036 43.30335073 24.52214154 45.4375 25.8125 C65.87498625 37.6981303 87.78978263 39.78128645 111 39 C111 38.34 111 37.68 111 37 C112.65 37 114.3 37 116 37 C116 38.65 116 40.3 116 42 C68.86817071 41.53186983 68.86817071 41.53186983 47.8515625 29.80078125 C45.54786965 28.80445839 44.15574511 28.94862017 41.6875 29.3125 C40.89730469 29.41175781 40.10710937 29.51101563 39.29296875 29.61328125 C36.77441935 29.99442305 36.77441935 29.99442305 33.5 31 C27.89870602 31 25.02052659 27.62700033 21 24 C19.73736328 22.91525391 19.73736328 22.91525391 18.44921875 21.80859375 C13.74256044 17.70187367 9.55456316 13.44079551 5.5390625 8.6640625 C3.61310677 6.58168397 1.54506915 5.23397292 -1 4 C-0.67 2.68 -0.34 1.36 0 0 Z " fill="#46719E" transform="translate(115,290)"/>
<path d="M0 0 C1.65 0 3.3 0 5 0 C5.33 0.66 5.66 1.32 6 2 C8.28174375 2.96214521 10.55160581 3.83881143 12.875 4.6875 C25.22666786 9.44084744 34.66605498 16.66605498 44 26 C46.21072977 26.24253813 46.21072977 26.24253813 48.625 26.125 C49.44226563 26.10695312 50.25953125 26.08890625 51.1015625 26.0703125 C52.04128906 26.03550781 52.04128906 26.03550781 53 26 C50.18071894 20.67469133 46.60595264 16.24632517 41.125 13.625 C40.42375 13.41875 39.7225 13.2125 39 13 C39.33 11.68 39.66 10.36 40 9 C42.375 9.1875 42.375 9.1875 45 10 C45.67098469 11.66493296 46.3371306 13.33181944 47 15 C48.62142121 16.79714064 48.62142121 16.79714064 50.5625 18.4375 C63.77804719 31.17248184 71.59708786 50.0488328 74 68 C74 69.32 74 70.64 74 72 C74.66 72 75.32 72 76 72 C75.67 73.65 75.34 75.3 75 77 C73.35 76.67 71.7 76.34 70 76 C70.165 75.484375 70.33 74.96875 70.5 74.4375 C73.03130748 62.09737605 66.80781811 45.77434419 60.34765625 35.328125 C59.30176536 33.7826674 58.23414123 32.25148894 57.13671875 30.7421875 C56 29 56 29 56 27 C54.87464844 27.39058594 54.87464844 27.39058594 53.7265625 27.7890625 C50.29766386 28.7132241 47.55545067 29.19893593 44 29 C41.06485162 26.93905477 39.0324133 24.58084012 36.68359375 21.875 C28.87262359 13.50691552 15.99121644 6.1276113 4.6328125 4.703125 C2.55863921 4.6464294 2.55863921 4.6464294 0 5 C0 3.35 0 1.7 0 0 Z " fill="#456D9D" transform="translate(228,142)"/>
<path d="M0 0 C1.32 0.33 2.64 0.66 4 1 C4.3403125 2.7634375 4.3403125 2.7634375 4.6875 4.5625 C5.82112787 9.72954297 7.49829892 14.69336727 9.23510742 19.68188477 C15.87974087 38.93040768 12.4824459 60.94059906 4 79 C-0.25620158 86.94219434 -5.69887518 93.59189513 -12 100 C-12.68707031 100.69996094 -13.37414062 101.39992188 -14.08203125 102.12109375 C-21.09495038 108.79572735 -30.67004382 115.15091942 -40 118 C-42.3125 117.625 -42.3125 117.625 -44 117 C-42.56720703 116.36384766 -42.56720703 116.36384766 -41.10546875 115.71484375 C-19.69335601 106.06952248 -4.25420151 92.92424675 4.91894531 70.86450195 C8.35919094 61.74878336 9.52683572 52.95127809 9.4375 43.25 C9.43210205 42.11908936 9.4267041 40.98817871 9.42114258 39.82299805 C9.20929176 28.09081693 7.00250778 17.65638377 2 7 C-0.02946853 5.07663031 -0.02946853 5.07663031 -2 4 C-1.34 2.68 -0.68 1.36 0 0 Z " fill="#3B5488" transform="translate(280,179)"/>
<path d="M0 0 C1.65 0 3.3 0 5 0 C5 1.65 5 3.3 5 5 C4.319375 5.185625 3.63875 5.37125 2.9375 5.5625 C-0.00894548 7.00437757 -0.8014365 7.87805471 -2.8125 10.3125 C-6.75248347 14.46661301 -11.33390222 15.59483821 -16.66552734 17.08959961 C-29.97901054 20.88711074 -41.54787932 27.82079312 -51 38 C-51.59296875 38.57621094 -52.1859375 39.15242188 -52.796875 39.74609375 C-65.35637261 52.62201281 -72.46251741 72.4239406 -72.375 90.3125 C-72.28685329 92.87653226 -72.16215106 95.4395824 -72 98 C-71.96036133 98.67595215 -71.92072266 99.3519043 -71.87988281 100.04833984 C-71.64315902 104.03760925 -71.34833656 108.0190107 -71 112 C-77.31057032 102.53414452 -75.04772906 85.11862409 -73.421875 74.32421875 C-69.00262714 54.33716593 -56.75225916 36.55133805 -39.81103516 25.14941406 C-31.82068824 20.07816126 -23.6125589 16.24587469 -14.4375 13.9375 C-8.40531854 12.38125227 -4.43658124 10.3089255 -1 5 C0.02649583 2.24854963 0.02649583 2.24854963 0 0 Z " fill="#5492B5" transform="translate(207,130)"/>
<path d="M0 0 C1.875 0.125 1.875 0.125 4 1 C4.66756872 2.99969909 5.33402232 4.99977047 6 7 C7.38176371 9.46782999 8.7947038 11.88982083 10.25 14.3125 C24.75961802 39.44888051 27.56019923 68.89345833 21 97 C20.01 97.99 20.01 97.99 19 99 C19.14433868 97.64567321 19.29056661 96.29154775 19.4375 94.9375 C19.51871094 94.18339844 19.59992188 93.42929688 19.68359375 92.65234375 C19.91859852 90.6823655 20.2013947 88.71796731 20.50927734 86.75805664 C21.30284301 80.68076497 21.18444874 74.62082645 21.1875 68.5 C21.20586914 66.56060547 21.20586914 66.56060547 21.22460938 64.58203125 C21.33689538 55.57494864 21.33689538 55.57494864 19 47 C15.88637393 44.49556164 12.62088237 42.67117648 9 41 C9.33 39.68 9.66 38.36 10 37 C11.65 37.33 13.3 37.66 15 38 C15 39.32 15 40.64 15 42 C16.32 42.33 17.64 42.66 19 43 C15.52425538 30.02272236 10.48182857 18.22274286 3 7 C0.94996045 5.80767387 0.94996045 5.80767387 -1 5 C-0.67 3.35 -0.34 1.7 0 0 Z " fill="#3A5285" transform="translate(298,153)"/>
<path d="M0 0 C2.475 0.495 2.475 0.495 5 1 C4.31914059 38.10495684 4.31914059 38.10495684 1 46 C-2.10140621 48.56714938 -4.84193356 49.9430008 -8.62890625 51.30859375 C-12.83243509 53.41766442 -14.09385708 55.95144083 -15.9375 60.0625 C-20.59645252 69.55477387 -26.61354848 76.98081232 -34.3359375 84.2109375 C-36.03750405 86.04032126 -37.00597096 87.72076169 -38 90 C-39.65 89.67 -41.3 89.34 -43 89 C-42.67 87.35 -42.34 85.7 -42 84 C-41.27296875 84.08507812 -40.5459375 84.17015625 -39.796875 84.2578125 C-34.59489433 83.77830032 -31.60164198 79.37689284 -28.30957031 75.60498047 C-23.26175667 69.41849149 -18.72810136 62.52138465 -16.1875 54.9375 C-15.359375 52.796875 -15.359375 52.796875 -14 51 C-10.9503837 49.65407996 -8.02349567 48.70759046 -4.77734375 47.94921875 C-0.77267518 45.13862857 -0.4413317 42.16524291 0.51879883 37.48754883 C1.34751382 31.48136232 1.39266032 25.55370765 1.3125 19.5 C1.31572266 18.2521875 1.31894531 17.004375 1.32226562 15.71875 C1.36914877 8.57678734 1.36914877 8.57678734 -1 2 C-0.67 1.34 -0.34 0.68 0 0 Z " fill="#4771A1" transform="translate(308,203)"/>
<path d="M0 0 C11.07644329 16.61466493 10.315403 45.35707089 6.6796875 64.05859375 C6.45539063 65.02925781 6.23109375 65.99992187 6 67 C5.63261719 68.71896484 5.63261719 68.71896484 5.2578125 70.47265625 C3.3028187 78.69920096 0.41015955 86.11176136 -3.18212891 93.74682617 C-5.23294313 98.11777843 -6.80491924 102.31824033 -8 107 C-9.32 107 -10.64 107 -12 107 C-12.33 105.68 -12.66 104.36 -13 103 C-12.38125 102.938125 -11.7625 102.87625 -11.125 102.8125 C-8.80383189 102.21179852 -8.80383189 102.21179852 -8.078125 99.94140625 C-7.72234375 98.97074219 -7.3665625 98.00007813 -7 97 C-6.47763282 95.77075043 -5.9484376 94.5443898 -5.4140625 93.3203125 C6.36157075 65.87226263 9.40736999 35.79767149 0.57250977 6.90576172 C-0.59949507 3.00441002 -0.59949507 3.00441002 -1 1 C-0.67 0.67 -0.34 0.34 0 0 Z " fill="#374C7E" transform="translate(324,179)"/>
<path d="M0 0 C1.65 0.33 3.3 0.66 5 1 C5 2.32 5 3.64 5 5 C4.34 5 3.68 5 3 5 C3.15339844 5.97839844 3.30679688 6.95679688 3.46484375 7.96484375 C4.82497542 18.53150156 4.82497542 18.53150156 2.47265625 22.71875 C1.17782539 24.17511422 -0.1304554 25.61965274 -1.453125 27.05078125 C-3.34792372 29.06062054 -3.34792372 29.06062054 -3.25 32.625 C-2.7975277 34.66279204 -2.7975277 34.66279204 -2 37 C-1.62488281 38.19625 -1.24976562 39.3925 -0.86328125 40.625 C0.36288358 44.43921501 1.67758538 48.21814138 3 52 C3.33902344 53.1240625 3.67804688 54.248125 4.02734375 55.40625 C4.34832031 56.2621875 4.66929688 57.118125 5 58 C7.03243548 58.96877057 7.03243548 58.96877057 9 59 C8.67 60.65 8.34 62.3 8 64 C6.35 63.67 4.7 63.34 3 63 C2.89429687 61.82824219 2.78859375 60.65648437 2.6796875 59.44921875 C2.15029978 55.2243332 0.83947796 51.72338629 -0.875 47.8125 C-4.35457894 39.56418665 -6.59954473 31.23588546 -7.5625 22.3125 C-7.66795289 18.92642608 -7.66795289 18.92642608 -10 17 C-9.625 14.375 -9.625 14.375 -9 12 C-7.02 12.495 -7.02 12.495 -5 13 C-5 14.32 -5 15.64 -5 17 C-4.85302021 18.58528205 -4.68602074 20.1688237 -4.5 21.75 C-4.36078125 22.94882813 -4.36078125 22.94882813 -4.21875 24.171875 C-4.1465625 24.77515625 -4.074375 25.3784375 -4 26 C-0.33158613 22.8959575 0.83556747 21.1081826 1.5546875 16.26171875 C1.83769038 12.51025397 1.94736297 8.7611551 2 5 C1.01 4.67 0.02 4.34 -1 4 C-0.67 2.68 -0.34 1.36 0 0 Z " fill="#47759F" transform="translate(101,216)"/>
<path d="M0 0 C2.4375 1.625 2.4375 1.625 4 4 C4.5625 6.9375 4.5625 6.9375 4 10 C1.70985284 13.0099077 0.20864386 14.69783903 -3.5 15.625 C-7.25999106 14.68500224 -8.7473603 13.11394311 -11 10 C-11 6.45638757 -10.65850044 4.13408409 -8.875 1.0625 C-5.81547541 -0.6712306 -3.43182475 -0.42145216 0 0 Z " fill="#5DA3CF" transform="translate(189,245)"/>
<path d="M0 0 C2.9375 2.125 2.9375 2.125 5 5 C5.16299417 8.99335725 4.47797727 10.46739675 1.8125 13.4375 C-1 15 -1 15 -4.125 14.9375 C-8.49189189 13.51351351 -8.49189189 13.51351351 -10 11 C-10.50030235 7.06905293 -10.5996142 4.8994213 -8.375 1.5625 C-5.24316508 -0.49791771 -3.68455227 -0.6767545 0 0 Z " fill="#5C9FCF" transform="translate(246,245)"/>
<path d="M0 0 C4.18118955 1.72321814 7.87652147 2.54469722 12.33422852 3.01904297 C12.82922852 5.49404297 12.82922852 5.49404297 13.33422852 8.01904297 C11.64672852 8.83154297 11.64672852 8.83154297 9.33422852 9.01904297 C8.62524414 8.26236328 7.91625977 7.50568359 7.18579102 6.72607422 C3.76768595 3.48121558 0.80585271 2.32826446 -3.60327148 0.89404297 C-4.34891357 0.64178955 -5.09455566 0.38953613 -5.86279297 0.12963867 C-17.80852477 -3.80059731 -30.06483358 -6.18949586 -42.66577148 -6.10595703 C-43.38692139 -6.10402344 -44.10807129 -6.10208984 -44.85107422 -6.10009766 C-52.47544496 -6.04048698 -60.06510175 -5.55382043 -67.66577148 -4.98095703 C-67.99577148 -3.99095703 -68.32577148 -3.00095703 -68.66577148 -1.98095703 C-70.31577148 -2.31095703 -71.96577148 -2.64095703 -73.66577148 -2.98095703 C-73.33577148 -4.30095703 -73.00577148 -5.62095703 -72.66577148 -6.98095703 C-71.61389648 -6.96033203 -70.56202148 -6.93970703 -69.47827148 -6.91845703 C-65.89163776 -6.856684 -65.89163776 -6.856684 -63.34008789 -7.4699707 C-42.66623087 -11.42016084 -19.22924398 -7.96419561 0 0 Z " fill="#416493" transform="translate(256.665771484375,109.98095703125)"/>
<path d="M0 0 C1.32 0.33 2.64 0.66 4 1 C3.67 2.65 3.34 4.3 3 6 C1.68644531 6.0825 0.37289062 6.165 -0.98046875 6.25 C-6.07391064 6.82357234 -9.87883742 8.51362071 -14.3125 11 C-15.04670166 11.40154297 -15.78090332 11.80308594 -16.53735352 12.21679688 C-28.76959588 19.06546363 -48.21832566 30.73078429 -52.375 44.9375 C-52.58125 45.948125 -52.7875 46.95875 -53 48 C-54.65 47.67 -56.3 47.34 -58 47 C-57.8125 44.6875 -57.8125 44.6875 -57 42 C-55.33509072 40.99707683 -53.66814945 39.99752453 -52 39 C-50.54975919 37.50939999 -49.15574297 35.96269806 -47.8125 34.375 C-35.96450599 20.94857258 -21.46922389 10.98762432 -5 4 C-4.01 4 -3.02 4 -2 4 C-1.34 2.68 -0.68 1.36 0 0 Z " fill="#466F9E" transform="translate(172,106)"/>
<path d="M0 0 C0.99 0.33 1.98 0.66 3 1 C3 1.99 3 2.98 3 4 C27.98750853 12.79190115 54.81116506 18.3039213 81 11 C81.495 11.99 81.495 11.99 82 13 C59.78331297 21.33125764 30.11757948 17.05503339 8.65625 8.0390625 C5.3824439 6.75842658 2.49096765 6.24355588 -1 6 C-1.33 4.35 -1.66 2.7 -2 1 C-1.34 0.67 -0.68 0.34 0 0 Z " fill="#446B98" transform="translate(159,325)"/>
<path d="M0 0 C0.66 0 1.32 0 2 0 C2.36351562 0.96099609 2.36351562 0.96099609 2.734375 1.94140625 C4.35493398 6.12369501 5.95590172 10.11110697 8.3125 13.9375 C8.869375 14.948125 9.42625 15.95875 10 17 C9.67 17.99 9.34 18.98 9 20 C8.29875 19.34 7.5975 18.68 6.875 18 C3.50172663 15.65337505 2.02250703 15.40090321 -2 16 C-4.22743787 17.41977909 -4.22743787 17.41977909 -6 19 C-6.66 19 -7.32 19 -8 19 C-6.66617336 14.27097827 -4.60355296 10.34725575 -2.12109375 6.1484375 C-1.04475736 4.08577194 -0.45736808 2.27142349 0 0 Z " fill="#171A1F" transform="translate(242,230)"/>
<path d="M0 0 C2.0625 0.4375 2.0625 0.4375 4 1 C4.144375 1.94875 4.28875 2.8975 4.4375 3.875 C6.11859191 9.764783 10.7853838 13.77855298 15 18 C15.62003906 18.63164062 16.24007812 19.26328125 16.87890625 19.9140625 C28.27403052 30.69389928 42.88495002 35.97699 58 39 C58 39.33 58 39.66 58 40 C43.32249809 41.46775019 27.99928029 31.71941465 16.6875 23.1875 C12.16130448 19.43552213 8.62980511 15.10606346 5.10546875 10.41796875 C2.93121046 7.92100051 0.91440469 6.53095255 -2 5 C-1.125 1.125 -1.125 1.125 0 0 Z " fill="#5492B6" transform="translate(144,260)"/>
<path d="M0 0 C1.51332136 2.26998204 2.74263257 4.36821083 3.9453125 6.79296875 C4.29980469 7.50517578 4.65429688 8.21738281 5.01953125 8.95117188 C5.38433594 9.68916016 5.74914062 10.42714844 6.125 11.1875 C6.68380859 12.31188477 6.68380859 12.31188477 7.25390625 13.45898438 C8.17108054 15.3050916 9.08578112 17.15242743 10 19 C9.01 19 8.02 19 7 19 C6.5875 18.505 6.175 18.01 5.75 17.5 C3.94257403 15.67264343 3.94257403 15.67264343 0.5625 15.5625 C-3.47006326 16.05772707 -4.54953627 16.86340643 -7 20 C-8.16209423 16.51371731 -7.88616059 16.13629782 -6.34765625 12.98828125 C-5.98349609 12.23095703 -5.61933594 11.47363281 -5.24414062 10.69335938 C-4.85419922 9.90767578 -4.46425781 9.12199219 -4.0625 8.3125 C-3.67642578 7.51521484 -3.29035156 6.71792969 -2.89257812 5.89648438 C-1.93709398 3.92653557 -0.97267894 1.96150061 0 0 Z " fill="#15181C" transform="translate(185,230)"/>
<path d="M0 0 C1.51013672 0.59748047 1.51013672 0.59748047 3.05078125 1.20703125 C20.38246413 7.82924883 39.49605126 11.55845168 58 8 C58.66 7.34 59.32 6.68 60 6 C62.625 6.375 62.625 6.375 65 7 C64.67 8.32 64.34 9.64 64 11 C59.2901542 11.07537299 54.58067575 11.12916471 49.87036133 11.16479492 C48.27524688 11.17968159 46.68017183 11.19999768 45.08520508 11.22631836 C31.35367531 11.44688781 18.3166999 10.45780159 5.5625 4.8125 C4.59086914 4.40354492 4.59086914 4.40354492 3.59960938 3.98632812 C2.06106727 3.33672146 0.52958929 2.67041573 -1 2 C-0.67 1.34 -0.34 0.68 0 0 Z " fill="#416392" transform="translate(170,310)"/>
<path d="M0 0 C1.65 0 3.3 0 5 0 C5 1.65 5 3.3 5 5 C4.34 5 3.68 5 3 5 C3.0928125 5.78503906 3.185625 6.57007813 3.28125 7.37890625 C3.85076514 15.66738557 3.85076514 15.66738557 1.67578125 19.07421875 C-0.43800425 20.97529627 -2.5961387 22.47948532 -5 24 C-5.9796875 24.64453125 -6.959375 25.2890625 -7.96875 25.953125 C-14.60441438 30.17289215 -21.44524902 33.92921049 -28.41796875 37.5546875 C-31.06262159 38.8815299 -31.06262159 38.8815299 -33 41 C-35.125 40.625 -35.125 40.625 -37 40 C-36.67 38.35 -36.34 36.7 -36 35 C-34.824375 35 -33.64875 35 -32.4375 35 C-20.79260686 33.68171021 -7.16976139 24.16976139 1 16 C1.23363881 14.15108054 1.41303635 12.29511969 1.5625 10.4375 C1.64628906 9.42558594 1.73007812 8.41367187 1.81640625 7.37109375 C1.90728516 6.19740234 1.90728516 6.19740234 2 5 C1.34 5 0.68 5 0 5 C0 3.35 0 1.7 0 0 Z " fill="#44659C" transform="translate(288,295)"/>
<path d="M0 0 C1.65 0 3.3 0 5 0 C5 1.32 5 2.64 5 4 C5.598125 4.28875 6.19625 4.5775 6.8125 4.875 C9 6 9 6 12 8 C17.60868268 7.49228332 22.90964718 5.5848316 28.26953125 3.9375 C35.99810956 1.99523948 43.62795538 1.86182202 51.5625 1.9375 C52.47580078 1.94201172 53.38910156 1.94652344 54.33007812 1.95117188 C56.55345738 1.9628126 58.77669121 1.97916149 61 2 C61 2.33 61 2.66 61 3 C59.87207031 3.01417969 58.74414062 3.02835937 57.58203125 3.04296875 C46.56623183 3.32588043 36.45977465 4.96773149 25.8046875 7.74609375 C25.00804687 7.95306885 24.21140625 8.16004395 23.390625 8.37329102 C21.76264525 8.80007043 20.13769563 9.23854037 18.515625 9.68725586 C17.32839844 9.99288452 17.32839844 9.99288452 16.1171875 10.3046875 C15.06313721 10.58868408 15.06313721 10.58868408 13.98779297 10.87841797 C10.73033519 11.0776582 8.95021006 9.28814639 6.57421875 7.25 C4.50519391 5.60710186 2.60030588 5.23639144 0 5 C0 3.35 0 1.7 0 0 Z " fill="#518BB1" transform="translate(160,120)"/>
<path d="M0 0 C1.32 0 2.64 0 4 0 C4 1.65 4 3.3 4 5 C0.60360048 6.13213317 -2.48707267 6.3509586 -6.0390625 6.62109375 C-8.48188202 6.9336973 -10.65294795 7.41204576 -13.02734375 8.01953125 C-18.97451274 9.37964336 -24.86340231 9.29196268 -30.9375 9.25 C-32.05318359 9.25773437 -33.16886719 9.26546875 -34.31835938 9.2734375 C-41.1140969 9.2575131 -47.40034313 8.63709528 -54 7 C-50.28088396 4.52058931 -49.44612704 5.02432481 -45.1875 5.875 C-31.18368381 8.26854905 -15.16646582 8.02584248 -2 2 C-1.34 1.34 -0.68 0.68 0 0 Z " fill="#406191" transform="translate(243,302)"/>
<path d="M0 0 C1.67542976 0.28604898 3.34385343 0.61781233 5 1 C4.51462092 3.18420588 3.97731208 5.04581048 2.98046875 7.05859375 C1.60426692 11.18719925 1.66011531 15.04985434 1.6875 19.375 C1.69096436 20.25462402 1.69442871 21.13424805 1.69799805 22.04052734 C1.82534354 29.80367744 2.47083659 37.61026329 5 45 C5.99 45.66 6.98 46.32 8 47 C7.67 48.32 7.34 49.64 7 51 C5.35 50.67 3.7 50.34 2 50 C1.93941406 49.25234375 1.87882812 48.5046875 1.81640625 47.734375 C1.73261719 46.74953125 1.64882812 45.7646875 1.5625 44.75 C1.44068359 43.28820312 1.44068359 43.28820312 1.31640625 41.796875 C1.09854907 39.14796295 1.09854907 39.14796295 0.48413086 37.25097656 C-0.17272808 34.19689717 -0.09243078 31.31027812 -0.0625 28.1875 C-0.05682007 27.21139771 -0.05682007 27.21139771 -0.05102539 26.21557617 C-0.03473632 23.44344294 -0.00655539 20.67145963 0.02050781 17.89941406 C0.03861506 15.87044967 0.05069321 13.84150927 0.0625 11.8125 C0.07990234 9.99685547 0.07990234 9.99685547 0.09765625 8.14453125 C0.01642453 5.52886984 -0.33842942 3.49727992 -1 1 C-0.67 0.67 -0.34 0.34 0 0 Z " fill="#4C7EAB" transform="translate(123,201)"/>
<path d="M0 0 C1.32 0.66 2.64 1.32 4 2 C3.67 3.32 3.34 4.64 3 6 C2.00226563 5.93941406 1.00453125 5.87882813 -0.0234375 5.81640625 C-4.39604576 6.01828502 -7.70707794 7.14420061 -11.625 8.9375 C-12.31722656 9.24888916 -13.00945312 9.56027832 -13.72265625 9.88110352 C-24.19891183 14.77202513 -33.236131 21.39172229 -41 30 C-41.33 29.01 -41.66 28.02 -42 27 C-31.57887931 16.62898086 -19.57105001 8.65393495 -5.57421875 4.03515625 C-3.0259328 3.01042821 -1.74074734 2.08533214 0 0 Z " fill="#4B7CA7" transform="translate(189,132)"/>
<path d="M0 0 C1.0303174 3.13529497 1.0068917 4.79130659 -0.2578125 7.828125 C-0.55163818 8.5411377 -0.84546387 9.25415039 -1.14819336 9.98876953 C-1.63171265 11.10807861 -1.63171265 11.10807861 -2.125 12.25 C-2.4454126 13.02069824 -2.7658252 13.79139648 -3.09594727 14.58544922 C-4.72930034 18.42119977 -6.37902086 21.80708757 -8.9375 25.125 C-12.6164193 30.40816936 -11.49293723 37.8875784 -11 44 C-10.54335407 46.31742862 -10.54335407 46.31742862 -10 48 C-12.475 48.495 -12.475 48.495 -15 49 C-15.5625 47.0625 -15.5625 47.0625 -16 45 C-15.505 44.505 -15.505 44.505 -15 44 C-14.91945493 41.68805818 -14.86102103 39.37533553 -14.8125 37.0625 C-14.53049495 30.77824013 -13.20329392 26.56986317 -9.62109375 21.3984375 C-5.26124796 14.94796687 -2.61578869 7.29667372 0 0 Z " fill="#4978A3" transform="translate(316,252)"/>
<path d="M0 0 C1.65 0.33 3.3 0.66 5 1 C4.42528455 32.32040447 4.42528455 32.32040447 1 46 C0.34 45.67 -0.32 45.34 -1 45 C-0.85852539 44.37343506 -0.71705078 43.74687012 -0.57128906 43.10131836 C1.05294709 35.21206938 1.30073272 27.59940834 1.25 19.5625 C1.25773437 18.31017578 1.26546875 17.05785156 1.2734375 15.76757812 C1.27085937 14.56681641 1.26828125 13.36605469 1.265625 12.12890625 C1.26336914 11.04681885 1.26111328 9.96473145 1.25878906 8.84985352 C1.00138798 6.0152848 0.30601978 4.47042713 -1 2 C-0.67 1.34 -0.34 0.68 0 0 Z " fill="#354877" transform="translate(308,203)"/>
<path d="M0 0 C1.65 0 3.3 0 5 0 C5 1.65 5 3.3 5 5 C3.9790625 5.2784375 3.9790625 5.2784375 2.9375 5.5625 C-0.00894548 7.00437757 -0.8014365 7.87805471 -2.8125 10.3125 C-6.74780631 14.46168166 -11.32520907 15.60217823 -16.65673828 17.08081055 C-25.78093932 19.66231749 -33.92550698 24.05643284 -42 29 C-40.53444659 24.5029594 -37.09077459 23.02138282 -33.125 21 C-32.45605713 20.65114746 -31.78711426 20.30229492 -31.09790039 19.94287109 C-25.25408012 16.97270796 -19.28514566 14.8480341 -13 13 C-7.57396618 11.39654612 -4.38155998 9.5346165 -1 5 C-0.05111395 2.2855953 -0.05111395 2.2855953 0 0 Z " fill="#406190" transform="translate(207,130)"/>
<path d="M0 0 C1.32 0.33 2.64 0.66 4 1 C3.9375 3.3125 3.9375 3.3125 3 6 C1.41441436 6.65491581 -0.17631383 7.29902925 -1.78515625 7.89453125 C-13.66795449 13.82545171 -22.7892751 27.75278748 -29 39 C-29.66 38.34 -30.32 37.68 -31 37 C-23.92136088 26.07816034 -16.0271737 15.84051251 -5.9375 7.5 C-3.17051086 5.14511563 -1.61211936 3.22423873 0 0 Z " fill="#46709E" transform="translate(148,129)"/>
<path d="M0 0 C0.33 0 0.66 0 1 0 C0.70070962 13.08715226 -4.12888398 24.53846377 -9.70703125 36.16796875 C-11.1915012 39.41945126 -12.19228222 42.52681355 -13 46 C-14.32 46 -15.64 46 -17 46 C-17.33 44.68 -17.66 43.36 -18 42 C-17.38125 41.938125 -16.7625 41.87625 -16.125 41.8125 C-15.42375 41.544375 -14.7225 41.27625 -14 41 C-13.26838224 39.36080578 -12.6186831 37.68506779 -12 36 C-11.23236328 34.24816406 -11.23236328 34.24816406 -10.44921875 32.4609375 C-5.84698644 21.86418995 -2.67491203 11.22969981 0 0 Z " fill="#3C5789" transform="translate(329,240)"/>
<path d="M0 0 C0 0.33 0 0.66 0 1 C-0.72888428 1.03963867 -1.45776855 1.07927734 -2.20874023 1.12011719 C-19.73402826 2.01268417 -19.73402826 2.01268417 -37 4.9375 C-37.6798999 5.09508789 -38.3597998 5.25267578 -39.06030273 5.41503906 C-42.55926067 6.32333924 -44.60915236 7.30542905 -47 10 C-49.1875 9.6875 -49.1875 9.6875 -51 9 C-50.67 7.35 -50.34 5.7 -50 4 C-48.99582031 4.04125 -47.99164063 4.0825 -46.95703125 4.125 C-42.83422515 3.99476328 -39.63549881 3.16141334 -35.6875 2 C-24.02308097 -1.13127952 -11.96986448 -0.35891648 0 0 Z " fill="#518BB3" transform="translate(223,112)"/>
<path d="M0 0 C1.67542976 0.28604898 3.34385343 0.61781233 5 1 C4.60995966 3.73028238 4.1583025 4.84669653 2.14453125 6.796875 C-0.20555547 9.21117174 -1.49811175 11.52326124 -3.0625 14.5 C-7.12616036 21.65064699 -12.27355665 27.17538905 -18 33 C-18.81984375 33.8353125 -19.6396875 34.670625 -20.484375 35.53125 C-22.30918379 37.36900069 -24.14498593 39.19282297 -26 41 C-26 38 -26 38 -23.40234375 35.21484375 C-22.25195214 34.11759889 -21.09670122 33.02543368 -19.9375 31.9375 C-14.53243576 26.69897017 -9.94028353 21.4526169 -6 15 C-5.49597656 14.19433594 -4.99195313 13.38867188 -4.47265625 12.55859375 C-1.98756944 8.38006829 -0.8579278 5.9223838 -1 1 C-0.67 0.67 -0.34 0.34 0 0 Z " fill="#456D9D" transform="translate(301,259)"/>
<path d="M0 0 C1.875 0.125 1.875 0.125 4 1 C4.66757281 2.99969773 5.33401995 4.99977126 6 7 C7.33398169 9.56104659 8.83347122 12.0205768 10.3125 14.5 C20.72277561 32.48634006 20.72277561 32.48634006 19.6171875 39.390625 C19.41351563 39.92171875 19.20984375 40.4528125 19 41 C18.6596875 40.01902344 18.319375 39.03804687 17.96875 38.02734375 C12.21959704 19.83318636 12.21959704 19.83318636 0.875 5.8125 C0.25625 5.544375 -0.3625 5.27625 -1 5 C-0.67 3.35 -0.34 1.7 0 0 Z " fill="#446C99" transform="translate(298,153)"/>
<path d="M0 0 C3.65316671 1.24976756 4.78065836 1.67098753 7 5 C6.9157757 8.95854211 6.4373003 10.53906185 3.6875 13.4375 C1 15 1 15 -1.3125 14.75 C-1.869375 14.5025 -2.42625 14.255 -3 14 C-2.34 13.67 -1.68 13.34 -1 13 C-1.020625 11.783125 -1.04125 10.56625 -1.0625 9.3125 C-1.06824116 6.08022678 -0.78766315 3.15065259 0 0 Z " fill="#4F7EB8" transform="translate(244,245)"/>
<path d="M0 0 C6.40915697 6.40915697 8 20.22298244 8 29 C8.66 29 9.32 29 10 29 C9.505 31.475 9.505 31.475 9 34 C7.35 33.67 5.7 33.34 4 33 C4.165 32.484375 4.33 31.96875 4.5 31.4375 C5.72502137 25.46552083 4.75324927 20.23145268 3.125 14.4375 C2.77695312 13.17808594 2.42890625 11.91867188 2.0703125 10.62109375 C1.11439888 7.38703562 0.09137072 4.19053873 -1 1 C-0.67 0.67 -0.34 0.34 0 0 Z " fill="#3D588D" transform="translate(294,185)"/>
<path d="M0 0 C5 2 5 2 6 4 C6.54564863 8.09236475 6.35323174 9.53575256 3.8125 12.875 C1 15 1 15 -1.8125 15.3125 C-2.534375 15.209375 -3.25625 15.10625 -4 15 C-2.68 14.67 -1.36 14.34 0 14 C0 9.38 0 4.76 0 0 Z " fill="#4A72AD" transform="translate(187,245)"/>
<path d="M0 0 C1.32 0.33 2.64 0.66 4 1 C4 2.32 4 3.64 4 5 C2.89978516 5.32484375 2.89978516 5.32484375 1.77734375 5.65625 C-6.39553963 9.61050019 -11.65148749 21.29204842 -16 29 C-16.99 28.67 -17.98 28.34 -19 28 C-15.26228546 22.13858402 -11.22851129 16.64675643 -6.83203125 11.26171875 C-3.85550568 7.58707418 -1.61709387 4.4781061 0 0 Z " fill="#436997" transform="translate(141,148)"/>
<path d="M0 0 C1.80307617 0.00483398 1.80307617 0.00483398 3.64257812 0.00976562 C4.88845703 0.01814453 6.13433594 0.02652344 7.41796875 0.03515625 C8.68318359 0.03966797 9.94839844 0.04417969 11.25195312 0.04882812 C14.36983985 0.06059374 17.48763008 0.07703353 20.60546875 0.09765625 C20.60546875 0.42765625 20.60546875 0.75765625 20.60546875 1.09765625 C16.25162486 1.43529579 11.89734815 1.76700045 7.54296875 2.09765625 C6.31384766 2.19304687 5.08472656 2.2884375 3.81835938 2.38671875 C-1.93285495 2.82077266 -7.62616306 3.23479428 -13.39453125 3.09765625 C-13.72453125 4.08765625 -14.05453125 5.07765625 -14.39453125 6.09765625 C-16.04453125 5.76765625 -17.69453125 5.43765625 -19.39453125 5.09765625 C-19.06453125 3.77765625 -18.73453125 2.45765625 -18.39453125 1.09765625 C-17.34265625 1.11828125 -16.29078125 1.13890625 -15.20703125 1.16015625 C-11.61765808 1.22343392 -11.61765808 1.22343392 -9.0559082 0.59985352 C-5.98353605 0.02010216 -3.12624898 -0.01481635 0 0 Z " fill="#518BB1" transform="translate(202.39453125,101.90234375)"/>
<path d="M0 0 C1.92671455 0.48233757 3.84388121 1.00429787 5.75 1.5625 C6.69488281 1.81128906 7.63976562 2.06007812 8.61328125 2.31640625 C15.372125 4.184625 15.372125 4.184625 17.75 6.5625 C12.94510619 5.63696718 8.16592537 4.70323528 3.4375 3.4375 C-0.89969831 2.31650819 -0.89969831 2.31650819 -5.25 2.5625 C-8.85429961 5.49623224 -10.85718945 8.13083005 -12.25 12.5625 C-13.57 12.5625 -14.89 12.5625 -16.25 12.5625 C-16.25 10.9125 -16.25 9.2625 -16.25 7.5625 C-15.198125 7.253125 -15.198125 7.253125 -14.125 6.9375 C-11.20981652 5.54328181 -10.53541874 4.74495177 -8.625 2.3125 C-5.76110384 -0.70560596 -4.03747316 -0.71082274 0 0 Z " fill="#4C7EA7" transform="translate(228.25,132.4375)"/>
<path d="M0 0 C2 0.6875 2 0.6875 4 2 C4.26296875 2.59683594 4.5259375 3.19367188 4.796875 3.80859375 C6.42678437 6.77735725 8.58565097 8.30030198 11.25 10.375 C15.45395091 13.71716859 19.30662774 17.10698599 23 21 C22.67 21.66 22.34 22.32 22 23 C21.30777344 22.29230469 20.61554688 21.58460938 19.90234375 20.85546875 C16.90791846 17.86525948 13.77061819 15.07035599 10.5625 12.3125 C10.01529297 11.82716797 9.46808594 11.34183594 8.90429688 10.84179688 C5.44025526 7.86969017 2.50865013 6.16286451 -2 5 C-2 3.68 -2 2.36 -2 1 C-1.34 0.67 -0.68 0.34 0 0 Z " fill="#4B7FA6" transform="translate(279,120)"/>
<path d="M0 0 C2.0625 0.4375 2.0625 0.4375 4 1 C3.67 2.65 3.34 4.3 3 6 C2.01 6 1.02 6 0 6 C-0.33 9.96 -0.66 13.92 -1 18 C-2.32 18.33 -3.64 18.66 -5 19 C-5.66 18.34 -6.32 17.68 -7 17 C-6.75682877 14.48723058 -6.33442124 13.32048702 -4.5 11.5625 C-2.50649617 9.48593351 -2.41165528 7.81297773 -2 5 C-1.14285714 1.14285714 -1.14285714 1.14285714 0 0 Z " fill="#4E81B1" transform="translate(259,296)"/>
<path d="M0 0 C1.65 0.33 3.3 0.66 5 1 C5.24234375 1.88558594 5.4846875 2.77117187 5.734375 3.68359375 C8.61874983 11.24172409 15.67980966 17.13831512 22 22 C21.67 22.66 21.34 23.32 21 24 C16.12438061 19.76203707 11.35034233 15.57988756 7.1875 10.625 C4.73394142 7.70631184 2.48328459 5.68886526 -1 4 C-0.67 2.68 -0.34 1.36 0 0 Z " fill="#4B7CA7" transform="translate(115,290)"/>
<path d="M0 0 C1.98 0.495 1.98 0.495 4 1 C4.185625 2.2375 4.37125 3.475 4.5625 4.75 C6.45206805 13.35501134 12.03338316 20.84807176 17 28 C16.67 28.66 16.34 29.32 16 30 C11.10953988 23.20236698 6.47170078 16.62299696 3.0703125 8.92578125 C2.01360686 6.67843538 2.01360686 6.67843538 -1 5 C-0.67 3.35 -0.34 1.7 0 0 Z " fill="#5086B2" transform="translate(110,260)"/>
<path d="M0 0 C1.32 0.33 2.64 0.66 4 1 C3.67 2.65 3.34 4.3 3 6 C2.071875 6.144375 1.14375 6.28875 0.1875 6.4375 C-3.00725111 6.92100111 -3.00725111 6.92100111 -6 8 C-6.33 9.65 -6.66 11.3 -7 13 C-8.65 12.67 -10.3 12.34 -12 12 C-11.9375 10.1875 -11.9375 10.1875 -11 8 C-9.27738377 7.25244956 -7.54999346 6.51157165 -5.7890625 5.859375 C-3.06260581 4.54972332 -1.66174942 2.45938914 0 0 Z " fill="#446B98" transform="translate(161,133)"/>
<path d="M0 0 C0.66 0.33 1.32 0.66 2 1 C1.38511719 1.60328125 0.77023438 2.2065625 0.13671875 2.828125 C-0.67152344 3.62734375 -1.47976562 4.4265625 -2.3125 5.25 C-3.11300781 6.03890625 -3.91351563 6.8278125 -4.73828125 7.640625 C-8.85691623 11.93709395 -10.54188061 15.16752242 -12 21 C-13.65 20.67 -15.3 20.34 -17 20 C-16.8125 17.6875 -16.8125 17.6875 -16 15 C-15.25492187 14.55398437 -14.50984375 14.10796875 -13.7421875 13.6484375 C-10.62602392 11.77518817 -8.68957422 9.67779439 -6.3125 6.9375 C-5.54550781 6.05964844 -4.77851562 5.18179688 -3.98828125 4.27734375 C-3.33214844 3.52582031 -2.67601562 2.77429688 -2 2 C-1.34 1.34 -0.68 0.68 0 0 Z " fill="#528BB5" transform="translate(131,133)"/>
<path d="M0 0 C4.5252766 3.85979475 6.84626076 8.16556885 9.47265625 13.4765625 C11.04679505 16.07731356 12.46304248 17.37416486 15 19 C14.67 20.32 14.34 21.64 14 23 C12.35 22.67 10.7 22.34 9 22 C8.91878906 20.98550781 8.83757812 19.97101563 8.75390625 18.92578125 C7.93523374 14.66274566 6.32231859 11.71736102 3.9375 8.1875 C0 2.21730769 0 2.21730769 0 0 Z " fill="#3C548A" transform="translate(291,161)"/>
<path d="M0 0 C0.99 0.33 1.98 0.66 3 1 C3 1.99 3 2.98 3 4 C3.556875 4.18175781 4.11375 4.36351562 4.6875 4.55078125 C9.84196991 6.24862185 14.93010615 8.06422235 20 10 C16.40665934 11.30516741 14.60769836 10.68698035 11.1875 9.125 C7.02653514 7.33732621 3.49787116 6.39111923 -1 6 C-1.33 4.35 -1.66 2.7 -2 1 C-1.34 0.67 -0.68 0.34 0 0 Z " fill="#5088AE" transform="translate(159,325)"/>
<path d="M0 0 C1.67542976 0.28604898 3.34385343 0.61781233 5 1 C4.51944816 3.16248327 3.99438004 5.01123992 3 7 C1.53640432 11.39078705 1.53107433 15.71155874 1.375 20.3125 C1.33632812 21.24384766 1.29765625 22.17519531 1.2578125 23.13476562 C1.16393687 25.42298407 1.07825491 27.71120295 1 30 C0.67 30 0.34 30 0 30 C0.00523682 29.26362305 0.01047363 28.52724609 0.01586914 27.76855469 C0.03666867 24.42904515 0.04966968 21.08954926 0.0625 17.75 C0.07087891 16.59113281 0.07925781 15.43226563 0.08789062 14.23828125 C0.09111328 13.12324219 0.09433594 12.00820312 0.09765625 10.859375 C0.10289307 9.83295898 0.10812988 8.80654297 0.11352539 7.74902344 C0.01323062 5.32038006 -0.40592475 3.33595632 -1 1 C-0.67 0.67 -0.34 0.34 0 0 Z " fill="#5EA6D2" transform="translate(123,201)"/>
<path d="M0 0 C1.65 0 3.3 0 5 0 C5 4.62 5 9.24 5 14 C2.69 13.67 0.38 13.34 -2 13 C-1.01 12.67 -0.02 12.34 1 12 C1.33 8.37 1.66 4.74 2 1 C1.34 0.67 0.68 0.34 0 0 Z " fill="#568FC5" transform="translate(182,245)"/>
<path d="M0 0 C1.65 0 3.3 0 5 0 C5.33 0.66 5.66 1.32 6 2 C8.46925409 3.07282822 10.91834167 4.06025857 13.4375 5 C20.73885587 7.73885587 20.73885587 7.73885587 23 10 C19.3211574 9.36915154 16.08645014 8.32108824 12.625 6.9375 C8.12551204 5.25095309 4.76712051 4.57625595 0 5 C0 3.35 0 1.7 0 0 Z " fill="#528AB8" transform="translate(228,142)"/>
<path d="M0 0 C0.66 0.33 1.32 0.66 2 1 C1.01257813 1.55429687 0.02515625 2.10859375 -0.9921875 2.6796875 C-2.28655535 3.41128672 -3.58082087 4.14306699 -4.875 4.875 C-5.52597656 5.23980469 -6.17695313 5.60460937 -6.84765625 5.98046875 C-9.50393354 7.48660536 -11.83019001 8.83019001 -14 11 C-16.125 10.625 -16.125 10.625 -18 10 C-17.67 8.35 -17.34 6.7 -17 5 C-16.1646875 4.96132813 -16.1646875 4.96132813 -15.3125 4.921875 C-10.01683618 4.52827837 -6.2165321 3.42988749 -1.62890625 0.7421875 C-1.09136719 0.49726563 -0.55382812 0.25234375 0 0 Z " fill="#5188B5" transform="translate(269,325)"/>
<path d="M0 0 C0 3 0 3 -1.6796875 4.90234375 C-2.40414063 5.57394531 -3.12859375 6.24554688 -3.875 6.9375 C-6.6056834 9.47732918 -8.53368157 11.55029296 -10 15 C-11.65 14.67 -13.3 14.34 -15 14 C-14.67 12.35 -14.34 10.7 -14 9 C-13.27425781 9.0928125 -12.54851562 9.185625 -11.80078125 9.28125 C-7.95341265 8.89490336 -6.78517039 7.29152639 -4.1875 4.5 C-3.00220703 3.24703125 -3.00220703 3.24703125 -1.79296875 1.96875 C-1.20128906 1.3190625 -0.60960937 0.669375 0 0 Z " fill="#528BB8" transform="translate(280,278)"/>
<path d="M0 0 C1.65 0 3.3 0 5 0 C5 1.32 5 2.64 5 4 C5.598125 4.28875 6.19625 4.5775 6.8125 4.875 C9 6 9 6 12 8 C14.33199388 8.07905064 16.66832622 8.08798769 19 8 C15.61696658 11.02056555 15.61696658 11.02056555 13.125 10.9375 C11 10 11 10 8.0625 8 C5.17654174 6.11529257 3.36815915 5.39625402 0 5 C0 3.35 0 1.7 0 0 Z " fill="#5693BE" transform="translate(160,120)"/>
<path d="M0 0 C5 5 5 5 6.2578125 6.66796875 C8.94164284 8.71995562 11.25837997 8.1772042 14.5625 8 C18.06640625 7.8125 18.06640625 7.8125 21 8 C21.99 9.485 21.99 9.485 23 11 C9.97341639 12.37389749 9.97341639 12.37389749 5.22265625 9.06640625 C0 3.16376582 0 3.16376582 0 0 Z " fill="#40658F" transform="translate(127,289)"/>
<path d="M0 0 C2.375 0.1875 2.375 0.1875 5 1 C5.44859375 2.12921875 5.44859375 2.12921875 5.90625 3.28125 C7.16610982 6.41290156 8.69290527 7.99808728 11.125 10.3125 C11.84945313 11.00988281 12.57390625 11.70726562 13.3203125 12.42578125 C13.87460937 12.94527344 14.42890625 13.46476563 15 14 C14.67 14.66 14.34 15.32 14 16 C13.33613281 15.30132812 12.67226563 14.60265625 11.98828125 13.8828125 C11.10527344 12.97273437 10.22226562 12.06265625 9.3125 11.125 C8.44238281 10.22007812 7.57226562 9.31515625 6.67578125 8.3828125 C4.12056021 6.10736018 2.23098186 5.01295648 -1 4 C-0.67 2.68 -0.34 1.36 0 0 Z " fill="#5289B7" transform="translate(268,151)"/>
<path d="M0 0 C-6.90645903 4.60430602 -14.49152019 4.26162761 -22.5 4.125 C-23.51320312 4.11597656 -24.52640625 4.10695313 -25.5703125 4.09765625 C-28.04712801 4.07429007 -30.52343379 4.04153168 -33 4 C-33 3.67 -33 3.34 -33 3 C-31.80503906 2.95101563 -30.61007813 2.90203125 -29.37890625 2.8515625 C-19.68211631 2.41033614 -9.50597242 -0.48748576 0 0 Z " fill="#4978A5" transform="translate(236,297)"/>
<path d="M0 0 C1.98 0.495 1.98 0.495 4 1 C4.061875 1.61875 4.12375 2.2375 4.1875 2.875 C4.455625 3.57625 4.72375 4.2775 5 5 C6.6476038 5.71247732 8.31763529 6.37400383 10 7 C12.3125 9.125 12.3125 9.125 14 11 C10.59687262 9.94124926 7.98646769 8.99097846 5 7 C3.34450469 6.61500109 1.6777567 6.27206865 0 6 C-1.125 2.25 -1.125 2.25 0 0 Z " fill="#538CB8" transform="translate(144,305)"/>
<path d="M0 0 C1.65 0 3.3 0 5 0 C5 1.65 5 3.3 5 5 C3.9790625 5.2784375 3.9790625 5.2784375 2.9375 5.5625 C-1.18689821 7.58082253 -3.90378945 10.66287393 -7 14 C-7.99 13.67 -8.98 13.34 -10 13 C-9.16855469 12.34644531 -9.16855469 12.34644531 -8.3203125 11.6796875 C-4.0192841 8.14396664 -1.11298879 5.70406753 0 0 Z " fill="#5082B6" transform="translate(207,130)"/>
<path d="M0 0 C1.98 0.495 1.98 0.495 4 1 C4 5.33333333 4 9.66666667 4 14 C3.01 14.495 3.01 14.495 2 15 C1.8046875 12.98177083 1.609375 10.96354167 1.4140625 8.9453125 C1.13625251 6.77331755 1.13625251 6.77331755 -1 5 C-0.625 2.375 -0.625 2.375 0 0 Z " fill="#5087B2" transform="translate(92,228)"/>
<path d="M0 0 C1.875 0.125 1.875 0.125 4 1 C5.0625 3.75 5.0625 3.75 6 7 C6.556875 7.9075 7.11375 8.815 7.6875 9.75 C8.120625 10.4925 8.55375 11.235 9 12 C8.67 12.66 8.34 13.32 8 14 C7.52820313 13.27683594 7.52820313 13.27683594 7.046875 12.5390625 C3.90611252 7.74628648 3.90611252 7.74628648 -1 5 C-0.67 3.35 -0.34 1.7 0 0 Z " fill="#528AB8" transform="translate(298,153)"/>
<path d="M0 0 C1.32 0 2.64 0 4 0 C4 1.65 4 3.3 4 5 C2.989375 5.2475 1.97875 5.495 0.9375 5.75 C-3.13378354 6.89660638 -6.40244406 8.79741473 -10 11 C-10 10.34 -10 9.68 -10 9 C-8.04969533 7.66653588 -6.00995631 6.56108684 -3.9453125 5.4140625 C-1.75083004 3.81887645 -1.00541732 2.48708495 0 0 Z " fill="#4D7BAF" transform="translate(278,305)"/>
<path d="M0 0 C0.33 0 0.66 0 1 0 C1.33 4.62 1.66 9.24 2 14 C0.35 13.67 -1.3 13.34 -3 13 C-3 11.68 -3 10.36 -3 9 C-2.34 9 -1.68 9 -1 9 C-1.020625 7.88625 -1.04125 6.7725 -1.0625 5.625 C-1 2 -1 2 0 0 Z " fill="#538CB8" transform="translate(94,203)"/>
<path d="M0 0 C1.65 0.33 3.3 0.66 5 1 C5 2.32 5 3.64 5 5 C4.34 5 3.68 5 3 5 C3 9.29 3 13.58 3 18 C2.67 18 2.34 18 2 18 C2 13.71 2 9.42 2 5 C1.01 4.67 0.02 4.34 -1 4 C-0.67 2.68 -0.34 1.36 0 0 Z " fill="#548CBF" transform="translate(101,216)"/>
<path d="M0 0 C1.65 0.33 3.3 0.66 5 1 C5 2.32 5 3.64 5 5 C6.32 5.66 7.64 6.32 9 7 C8.01 7.495 8.01 7.495 7 8 C5.125 7.1875 5.125 7.1875 3 6 C2.2575 5.62875 1.515 5.2575 0.75 4.875 C0.1725 4.58625 -0.405 4.2975 -1 4 C-0.67 2.68 -0.34 1.36 0 0 Z " fill="#5086B4" transform="translate(308,190)"/>
<path d="M0 0 C0.66 0.33 1.32 0.66 2 1 C1.53851563 1.36996094 1.07703125 1.73992187 0.6015625 2.12109375 C-1.5332018 4.62553675 -1.9179083 6.86504687 -2.625 10.0625 C-3.93377483 15.86754967 -3.93377483 15.86754967 -5 18 C-5.66 18 -6.32 18 -7 18 C-6.44676962 11.49954301 -4.72924341 4.72924341 0 0 Z " fill="#5594B7" transform="translate(272,299)"/>
<path d="M0 0 C1.20272819 2.40545638 1.10071472 3.94996953 1.0625 6.625 C1.05347656 7.44226563 1.04445312 8.25953125 1.03515625 9.1015625 C1.02355469 9.72804688 1.01195312 10.35453125 1 11 C-0.32 10.34 -1.64 9.68 -3 9 C-3.1875 5.625 -3.1875 5.625 -3 2 C-2.01 1.34 -1.02 0.68 0 0 Z " fill="#62AFDA" transform="translate(239,247)"/>
<path d="M0 0 C2.0625 0.4375 2.0625 0.4375 4 1 C4 2.65 4 4.3 4 6 C3.01 6.495 3.01 6.495 2 7 C-0.125 6.0625 -0.125 6.0625 -2 5 C-1.125 1.125 -1.125 1.125 0 0 Z " fill="#4F82B2" transform="translate(144,260)"/>
<path d="M0 0 C1.5625 1.125 1.5625 1.125 3 3 C2.9375 6 2.9375 6 2 9 C-0.0625 10.875 -0.0625 10.875 -2 12 C-1.855625 11.319375 -1.71125 10.63875 -1.5625 9.9375 C-0.93054091 6.63726918 -0.45686059 3.32855574 0 0 Z " fill="#4565A2" transform="translate(248,247)"/>
<path d="M0 0 C1.32 0 2.64 0 4 0 C4 4.29 4 8.58 4 13 C2.35 13.33 0.7 13.66 -1 14 C-0.34 13.34 0.32 12.68 1 12 C1.46290221 9.33757179 1.46290221 9.33757179 1.625 6.375 C1.69976562 5.37210938 1.77453125 4.36921875 1.8515625 3.3359375 C1.90054688 2.56507813 1.94953125 1.79421875 2 1 C1.34 0.67 0.68 0.34 0 0 Z " fill="#5793C8" transform="translate(240,245)"/>
<path d="M0 0 C1.65 0.33 3.3 0.66 5 1 C5 2.32 5 3.64 5 5 C4.34 5 3.68 5 3 5 C2.67 5.99 2.34 6.98 2 8 C0.4375 6.25 0.4375 6.25 -1 4 C-0.6875 1.75 -0.6875 1.75 0 0 Z " fill="#4E7CB1" transform="translate(308,203)"/>
<path d="M0 0 C2.0625 0.4375 2.0625 0.4375 4 1 C3.67 2.65 3.34 4.3 3 6 C1.35 5.67 -0.3 5.34 -2 5 C-1.125 1.125 -1.125 1.125 0 0 Z " fill="#5084B6" transform="translate(300,213)"/>
<path d="M0 0 C2.125 0.9375 2.125 0.9375 4 2 C3.67 3.32 3.34 4.64 3 6 C1.35 5.67 -0.3 5.34 -2 5 C-2 3.68 -2 2.36 -2 1 C-1.34 0.67 -0.68 0.34 0 0 Z " fill="#4F82B3" transform="translate(189,132)"/>
<path d="M0 0 C2.64 0.33 5.28 0.66 8 1 C7.01 1.33 6.02 1.66 5 2 C4.67 2.99 4.34 3.98 4 5 C2.35 4.67 0.7 4.34 -1 4 C-0.67 2.68 -0.34 1.36 0 0 Z " fill="#558FC1" transform="translate(184,103)"/>
<path d="M0 0 C0.66 0.99 1.32 1.98 2 3 C1.34 4.32 0.68 5.64 0 7 C-1.32 6.34 -2.64 5.68 -4 5 C-3.6875 3.0625 -3.6875 3.0625 -3 1 C-2.01 0.67 -1.02 0.34 0 0 Z " fill="#5187B9" transform="translate(315,280)"/>
<path d="M0 0 C2.125 0.375 2.125 0.375 4 1 C3.67 2.65 3.34 4.3 3 6 C1.68 6 0.36 6 -1 6 C-1.625 4.125 -1.625 4.125 -2 2 C-1.34 1.34 -0.68 0.68 0 0 Z " fill="#5084B6" transform="translate(111,154)"/>
<path d="M0 0 C2.0625 0.4375 2.0625 0.4375 4 1 C4 2.32 4 3.64 4 5 C2.68 5.33 1.36 5.66 0 6 C-0.38218767 4.34385343 -0.71395102 2.67542976 -1 1 C-0.67 0.67 -0.34 0.34 0 0 Z " fill="#4E7DB3" transform="translate(141,148)"/>
<path d="M0 0 C1.65 0 3.3 0 5 0 C4.67 1.65 4.34 3.3 4 5 C2.35 4.67 0.7 4.34 -1 4 C-0.67 2.68 -0.34 1.36 0 0 Z " fill="#5085B6" transform="translate(105,275)"/>
<path d="M0 0 C1.32 0.33 2.64 0.66 4 1 C3.67 2.98 3.34 4.96 3 7 C1.35 6.01 -0.3 5.02 -2 4 C-1.34 2.68 -0.68 1.36 0 0 Z " fill="#5186BA" transform="translate(280,179)"/>
<path d="M0 0 C2.0625 0.4375 2.0625 0.4375 4 1 C3.67 2.65 3.34 4.3 3 6 C1.68 6 0.36 6 -1 6 C-1.042721 4.33388095 -1.04063832 2.66617115 -1 1 C-0.67 0.67 -0.34 0.34 0 0 Z " fill="#5288BA" transform="translate(148,129)"/>
<path d="M0 0 C1.65 0.33 3.3 0.66 5 1 C4.67 2.32 4.34 3.64 4 5 C2.35 4.67 0.7 4.34 -1 4 C-0.67 2.68 -0.34 1.36 0 0 Z " fill="#5186BA" transform="translate(230,316)"/>
<path d="M0 0 C1.65 0 3.3 0 5 0 C5 1.65 5 3.3 5 5 C4.01 5.33 3.02 5.66 2 6 C1.34 5.67 0.68 5.34 0 5 C0 3.35 0 1.7 0 0 Z " fill="#538ABE" transform="translate(288,295)"/>
<path d="M0 0 C1.65 0.33 3.3 0.66 5 1 C4.67 2.32 4.34 3.64 4 5 C2.35 4.67 0.7 4.34 -1 4 C-0.67 2.68 -0.34 1.36 0 0 Z " fill="#5288BB" transform="translate(301,259)"/>
<path d="M0 0 C1.65 0.33 3.3 0.66 5 1 C4.67 2.32 4.34 3.64 4 5 C2.35 4.67 0.7 4.34 -1 4 C-0.67 2.68 -0.34 1.36 0 0 Z " fill="#5187BA" transform="translate(301,179)"/>
<path d="M0 0 C1.98 0.495 1.98 0.495 4 1 C3.67 2.65 3.34 4.3 3 6 C1.68 5.67 0.36 5.34 -1 5 C-0.67 3.35 -0.34 1.7 0 0 Z " fill="#5389BC" transform="translate(161,133)"/>
<path d="M0 0 C1.98 0.495 1.98 0.495 4 1 C3.67 2.65 3.34 4.3 3 6 C1.68 5.67 0.36 5.34 -1 5 C-0.67 3.35 -0.34 1.7 0 0 Z " fill="#538ABD" transform="translate(266,113)"/>
<path d="M0 0 C2.0625 0.4375 2.0625 0.4375 4 1 C3.67 2.65 3.34 4.3 3 6 C1.68 6 0.36 6 -1 6 C-1.042721 4.33388095 -1.04063832 2.66617115 -1 1 C-0.67 0.67 -0.34 0.34 0 0 Z " fill="#5083B6" transform="translate(172,106)"/>
<path d="M0 0 C1.32 0 2.64 0 4 0 C4 1.65 4 3.3 4 5 C2.68 5 1.36 5 0 5 C-0.5625 3.0625 -0.5625 3.0625 -1 1 C-0.67 0.67 -0.34 0.34 0 0 Z " fill="#5389BC" transform="translate(243,302)"/>
<path d="M0 0 C1.65 0 3.3 0 5 0 C5 1.65 5 3.3 5 5 C3.35 4.67 1.7 4.34 0 4 C0 2.68 0 1.36 0 0 Z " fill="#558DC2" transform="translate(226,327)"/>
<path d="M0 0 C1.65 0 3.3 0 5 0 C4.67 1.65 4.34 3.3 4 5 C2.68 5 1.36 5 0 5 C0 3.35 0 1.7 0 0 Z " fill="#5896C9" transform="translate(212,140)"/>
<path d="M0 0 C0.33 0 0.66 0 1 0 C1 3.63 1 7.26 1 11 C-0.65 10.67 -2.3 10.34 -4 10 C-3.01 9.67 -2.02 9.34 -1 9 C-0.67 6.03 -0.34 3.06 0 0 Z " fill="#5A9ACC" transform="translate(184,248)"/>
<path d="M0 0 C0.99 0 1.98 0 3 0 C3 1.65 3 3.3 3 5 C1.68 4.67 0.36 4.34 -1 4 C-0.67 2.68 -0.34 1.36 0 0 Z " fill="#5896C7" transform="translate(115,290)"/>
<path d="M0 0 C1.67542976 0.28604898 3.34385343 0.61781233 5 1 C4.625 2.9375 4.625 2.9375 4 5 C3.01 5.495 3.01 5.495 2 6 C1.87625 5.360625 1.7525 4.72125 1.625 4.0625 C1.315625 3.0415625 1.315625 3.0415625 1 2 C0.34 1.67 -0.32 1.34 -1 1 C-0.67 0.67 -0.34 0.34 0 0 Z " fill="#4C79AE" transform="translate(123,201)"/>
<path d="M0 0 C0.99 0 1.98 0 3 0 C3 1.65 3 3.3 3 5 C1.68 4.67 0.36 4.34 -1 4 C-0.67 2.68 -0.34 1.36 0 0 Z " fill="#5795C5" transform="translate(268,151)"/>
<path d="M0 0 C0.99 0 1.98 0 3 0 C3 1.65 3 3.3 3 5 C1.68 4.67 0.36 4.34 -1 4 C-0.67 2.68 -0.34 1.36 0 0 Z " fill="#5897C7" transform="translate(150,141)"/>
<path d="M0 0 C0.99 0 1.98 0 3 0 C3.33 1.65 3.66 3.3 4 5 C2.68 4.67 1.36 4.34 0 4 C0 2.68 0 1.36 0 0 Z " fill="#5998C9" transform="translate(157,326)"/>
<path d="M0 0 C0.33 0 0.66 0 1 0 C1 2.97 1 5.94 1 9 C0.01 8.67 -0.98 8.34 -2 8 C-1.125 1.125 -1.125 1.125 0 0 Z " fill="#64B1DE" transform="translate(181,248)"/>
<path d="M0 0 C0.99 0 1.98 0 3 0 C3.33 1.65 3.66 3.3 4 5 C2.68 4.67 1.36 4.34 0 4 C0 2.68 0 1.36 0 0 Z " fill="#5896C5" transform="translate(277,121)"/>
</svg>
