<?xml version="1.0" encoding="UTF-8"?>
<svg version="1.1" xmlns="http://www.w3.org/2000/svg" width="427" height="447">
<path d="M0 0 C140.91 0 281.82 0 427 0 C427 147.51 427 295.02 427 447 C286.09 447 145.18 447 0 447 C0 299.49 0 151.98 0 0 Z " fill="#F1F1F1" transform="translate(0,0)"/>
<path d="M0 0 C7.09630543 1.88903402 10.64425331 8.86504885 14.16796875 14.71875 C15.21172745 16.42088707 16.25599611 18.12271153 17.30078125 19.82421875 C18.04956543 21.05277588 18.04956543 21.05277588 18.81347656 22.30615234 C20.0373198 24.28192958 21.29510991 26.22018625 22.59765625 28.14453125 C23.23960937 29.09714844 23.8815625 30.04976562 24.54296875 31.03125 C25.37248047 32.23587891 25.37248047 32.23587891 26.21875 33.46484375 C27.4733832 36.10490204 27.11252067 36.86922489 26.23046875 39.59375 C25.65471833 40.83709239 25.03674252 42.06156338 24.3828125 43.265625 C24.02509766 43.92949219 23.66738281 44.59335938 23.29882812 45.27734375 C22.73905273 46.30021484 22.73905273 46.30021484 22.16796875 47.34375 C21.79091797 48.04113281 21.41386719 48.73851562 21.02539062 49.45703125 C20.09773487 51.17143302 19.16463421 52.88288661 18.23046875 54.59375 C16.91046875 54.59375 15.59046875 54.59375 14.23046875 54.59375 C12.49121094 52.57421875 12.49121094 52.57421875 10.77734375 49.78125 C9.84921875 48.29238281 9.84921875 48.29238281 8.90234375 46.7734375 C8.268125 45.72414062 7.63390625 44.67484375 6.98046875 43.59375 C6.33078125 42.54445312 5.68109375 41.49515625 5.01171875 40.4140625 C3.40497238 37.81491396 1.81206538 35.20825186 0.23046875 32.59375 C-2.37146975 32.95553542 -3.49148705 33.26015384 -5.20166016 35.31201172 C-5.62882324 36.04178223 -6.05598633 36.77155273 -6.49609375 37.5234375 C-6.97046875 38.31878906 -7.44484375 39.11414063 -7.93359375 39.93359375 C-8.41570312 40.77019531 -8.8978125 41.60679687 -9.39453125 42.46875 C-10.36570832 44.11208384 -11.33705566 45.75531707 -12.30859375 47.3984375 C-12.73350098 48.13046387 -13.1584082 48.86249023 -13.59619141 49.61669922 C-14.60036173 51.30870322 -15.67813333 52.95665313 -16.76953125 54.59375 C-18.08953125 54.59375 -19.40953125 54.59375 -20.76953125 54.59375 C-22.14401358 52.06133398 -23.49374524 49.5202068 -24.83203125 46.96875 C-25.22197266 46.25589844 -25.61191406 45.54304688 -26.01367188 44.80859375 C-27.66748323 41.61805503 -28.74702861 39.27242949 -28.8671875 35.6484375 C-27.24521978 31.13463408 -24.76993779 27.33925975 -22.14453125 23.34375 C-21.60127197 22.50199219 -21.0580127 21.66023438 -20.49829102 20.79296875 C-7.23948902 0.34680187 -7.23948902 0.34680187 0 0 Z " fill="#5992C9" transform="translate(218.76953125,199.40625)"/>
<path d="M0 0 C5.75595385 2.30238154 8.24533691 7.46255371 11.375 12.5 C12.52070279 14.31648859 13.66653513 16.13289548 14.8125 17.94921875 C15.3590625 18.82239746 15.905625 19.69557617 16.46875 20.59521484 C17.74926619 22.60622958 19.06458559 24.57123876 20.4375 26.51953125 C21.076875 27.44121094 21.71625 28.36289063 22.375 29.3125 C22.91898438 30.07175781 23.46296875 30.83101562 24.0234375 31.61328125 C25.46278728 35.13105211 24.91543129 37.33827485 24 41 C22.82933422 43.60008531 21.4259863 46.00810527 19.9375 48.4375 C19.56044922 49.07365234 19.18339844 49.70980469 18.79492188 50.36523438 C17.87359498 51.91632902 16.93823407 53.45907343 16 55 C12.37470571 53.55047033 10.93828518 51.84398281 8.8984375 48.5546875 C8.04608521 47.19742554 8.04608521 47.19742554 7.17651367 45.81274414 C6.2847644 44.35856079 6.2847644 44.35856079 5.375 42.875 C4.76052002 41.88685303 4.14604004 40.89870605 3.51293945 39.88061523 C2.26503024 37.8737304 1.02030185 35.86486408 -0.22119141 33.85400391 C-1.8186329 31.29099389 -3.44921081 28.7557075 -5.10546875 26.23046875 C-5.56679199 25.51971191 -6.02811523 24.80895508 -6.50341797 24.07666016 C-7.34932588 22.77514202 -8.20329756 21.47881365 -9.06689453 20.18896484 C-11.66149129 16.14094943 -12.71020051 12.79328364 -13 8 C-12.2490485 4.996194 -11.41311243 3.44371335 -9.3125 1.1875 C-6.02255279 -0.50193235 -3.65169302 -0.38438874 0 0 Z " fill="#5992C9" transform="translate(163,200)"/>
<path d="M0 0 C2.8100346 1.79363911 4.50940468 3.01880935 6 6 C7.01485005 13.78634953 4.05103204 18.06138429 -0.25 24.375 C-0.8795459 25.32584473 -1.5090918 26.27668945 -2.15771484 27.25634766 C-3.45642964 29.21469605 -4.76230449 31.16831443 -6.07519531 33.1171875 C-7.91108819 35.86683528 -9.69400068 38.64317904 -11.4609375 41.4375 C-12.51515133 43.08363678 -13.56981509 44.72948552 -14.625 46.375 C-15.1087207 47.14763184 -15.59244141 47.92026367 -16.09082031 48.71630859 C-16.7767627 49.7655249 -16.7767627 49.7655249 -17.4765625 50.8359375 C-17.86924316 51.45001465 -18.26192383 52.0640918 -18.66650391 52.69677734 C-20 54 -20 54 -24 54 C-25.36878548 51.25643874 -26.72013177 48.50644895 -28.0625 45.75 C-28.45244141 44.97269531 -28.84238281 44.19539063 -29.24414062 43.39453125 C-29.60830078 42.64042969 -29.97246094 41.88632813 -30.34765625 41.109375 C-30.68804932 40.41811523 -31.02844238 39.72685547 -31.37915039 39.01464844 C-32.16134332 36.47644316 -31.9581894 35.47405821 -31 33 C-29.91288873 31.01402642 -28.7637963 29.06156482 -27.578125 27.1328125 C-27.2362616 26.57560516 -26.89439819 26.01839783 -26.54217529 25.44430542 C-25.81846313 24.26775363 -25.0921045 23.09282614 -24.36328125 21.91943359 C-23.26068413 20.14222113 -22.1688536 18.35873358 -21.078125 16.57421875 C-9.9999798 -1.43677871 -9.9999798 -1.43677871 0 0 Z " fill="#5992C9" transform="translate(279,200)"/>
<path d="M0 0 C1.32 0.66 2.64 1.32 4 2 C3.67 3.32 3.34 4.64 3 6 C2.0925 5.896875 1.185 5.79375 0.25 5.6875 C-15.03838288 5.74902267 -29.76129306 18.77583668 -40 29 C-40.7425 29.73089844 -41.485 30.46179688 -42.25 31.21484375 C-47.29012879 36.50107258 -50.77151227 42.39214519 -54.23828125 48.765625 C-54.81964844 49.83296875 -55.40101563 50.9003125 -56 52 C-56.4434375 52.92683594 -56.886875 53.85367188 -57.34375 54.80859375 C-59.61620644 57.81531088 -61.54650761 58.06864134 -65.1875 58.8125 C-66.81751953 59.16248047 -66.81751953 59.16248047 -68.48046875 59.51953125 C-69.31191406 59.67808594 -70.14335938 59.83664063 -71 60 C-75.08766236 85.73632806 -75.94166638 108.97365326 -64 133 C-63.54882812 133.928125 -63.09765625 134.85625 -62.6328125 135.8125 C-50.5010444 159.42026494 -29.11223687 175.2722623 -4.1875 183.3125 C5.63122638 186.32289864 15.33892957 186.12573823 25.5 186.0625 C26.90885258 186.05747533 28.31770689 186.05291413 29.7265625 186.04882812 C33.15108638 186.0371003 36.57552047 186.02068691 40 186 C40 185.34 40 184.68 40 184 C41.65 184 43.3 184 45 184 C45.33 185.32 45.66 186.64 46 188 C31.13688292 191.46170148 10.45509241 190.532238 -4 186 C-4.62938477 185.80664062 -5.25876953 185.61328125 -5.90722656 185.4140625 C-16.65828691 182.02394712 -28.91182582 177.08817418 -37 169 C-38.90426795 168.98538391 -40.80925558 168.97929579 -42.71289062 169.03051758 C-48.10716915 169.10594995 -52.45499923 169.02734588 -57.03125 165.984375 C-59.66836775 163.1302792 -61.84257918 160.23231953 -64 157 C-64.60279785 156.12794922 -64.60279785 156.12794922 -65.21777344 155.23828125 C-68.98368967 149.78317557 -72.50594694 144.2380615 -75.375 138.25 C-76.76485082 134.79844356 -76.76485082 134.79844356 -80 133 C-79.67 131.35 -79.34 129.7 -79 128 C-77.68 128.33 -76.36 128.66 -75 129 C-74.855625 130.175625 -74.71125 131.35125 -74.5625 132.5625 C-72.84656279 140.19422076 -68.29893048 146.59368594 -64 153 C-63.60216309 153.61004883 -63.20432617 154.22009766 -62.79443359 154.84863281 C-58.11652919 162.04720012 -58.11652919 162.04720012 -50.69921875 165.73828125 C-47.69737198 165.74886355 -44.94779429 165.54701337 -42 165 C-42.4846875 164.61070312 -42.969375 164.22140625 -43.46875 163.8203125 C-61.66377599 148.63446389 -72.54601484 126.19780595 -76 103 C-77.90584533 69.56490108 -77.90584533 69.56490108 -72 59 C-68.84398508 56.49070945 -65.86381825 56.13792962 -61.94140625 55.84765625 C-58.78505895 54.46953278 -58.27507908 51.89474745 -56.9375 48.8125 C-47.68208231 28.88825035 -30.26909622 13.397959 -9.8125 5.625 C-8.58144531 5.18414062 -7.35039062 4.74328125 -6.08203125 4.2890625 C-3.29960009 3.12530802 -1.85873126 2.31158579 0 0 Z " fill="#8ACCEB" transform="translate(192,137)"/>
<path d="M0 0 C1.80017578 0.51046875 1.80017578 0.51046875 3.63671875 1.03125 C19.44822284 5.8413273 33.82077326 13.89553171 45.625 25.5625 C48.4848604 28.13850329 50.62037761 28.3589841 54.4375 28.375 C55.96048114 28.27967182 57.48296652 28.16482859 59 28 C52.7302378 20.19393845 45.83863989 12.82735951 36 10 C36 8.68 36 7.36 36 6 C37.32 5.67 38.64 5.34 40 5 C40.45375 5.825 40.9075 6.65 41.375 7.5 C44.03153782 11.51789528 47.72104261 14.08982799 51.48828125 17.015625 C73.64049062 34.51690394 87.48051954 64.49702795 91 92 C92.66291066 116.24053794 90.43173132 142.18559724 76.8828125 163.10546875 C75.76777499 165.49835899 75.84685976 167.39211171 76 170 C74.35 170.33 72.7 170.66 71 171 C70.67 169.68 70.34 168.36 70 167 C70.61875 166.938125 71.2375 166.87625 71.875 166.8125 C72.57625 166.544375 73.2775 166.27625 74 166 C74.73134036 164.360682 75.38079167 162.68487485 76 161 C76.52335938 159.80890625 77.04671875 158.6178125 77.5859375 157.390625 C89.63527574 129.72749247 92.55751494 97.88197244 83 69 C82.77538086 68.30922363 82.55076172 67.61844727 82.31933594 66.90673828 C79.36586224 58.11725215 75.13159687 50.12146978 70.13671875 42.33984375 C68 39 68 39 66.58203125 36.31640625 C65.20973689 33.94761506 64.27614294 32.5344263 62 31 C58.44158551 30.50034473 54.97798742 30.43488849 51.38671875 30.37109375 C46.83681189 29.87254571 45.18222127 28.286826 42.08984375 25.08984375 C30.21972428 13.21972428 13.10177421 5.74782676 -3 2 C-3.88171875 1.78730469 -4.7634375 1.57460937 -5.671875 1.35546875 C-12.06348427 -0.05923458 -18.46969111 -0.66168279 -25 -1 C-26.69769531 -1.09861328 -26.69769531 -1.09861328 -28.4296875 -1.19921875 C-38.39723461 -1.51003474 -47.40020128 0.25576985 -57.03979492 2.6328125 C-59 3 -59 3 -63 3 C-63.66 4.32 -64.32 5.64 -65 7 C-66.32 6.67 -67.64 6.34 -69 6 C-68.67 4.35 -68.34 2.7 -68 1 C-67.3709375 0.95101562 -66.741875 0.90203125 -66.09375 0.8515625 C-61.95304654 0.48987455 -57.95651066 0.0879746 -53.9375 -1 C-37.51151988 -5.43968913 -16.2001182 -5.05362178 0 0 Z " fill="#82B9DE" transform="translate(244,120)"/>
<path d="M0 0 C1.98 0.495 1.98 0.495 4 1 C4.061875 1.886875 4.12375 2.77375 4.1875 3.6875 C4.86355443 8.58889464 6.85831993 12.98151003 8.74609375 17.5234375 C15.52619838 36.32185844 13.52403311 58.33683053 5.26391602 76.28881836 C1.70952111 83.60215918 -2.48512408 89.98952337 -8 96 C-8.66386719 96.75539063 -9.32773437 97.51078125 -10.01171875 98.2890625 C-23.08196657 112.34984667 -42.2366609 121.52250295 -61.4453125 122.3359375 C-86.26673928 122.73436222 -106.31194842 116.21254851 -124.43432617 98.83520508 C-128.33626462 95.04480491 -131.1088418 92.13055837 -133 87 C-135.04105639 86.11306697 -135.04105639 86.11306697 -137 86 C-137 84.68 -137 83.36 -137 82 C-135.02 81.505 -135.02 81.505 -133 81 C-132.690625 82.11375 -132.38125 83.2275 -132.0625 84.375 C-129.81153803 90.37402601 -125.462992 94.537008 -121 99 C-120.35804688 99.64195312 -119.71609375 100.28390625 -119.0546875 100.9453125 C-102.34692491 116.53456379 -82.21846214 119.66387895 -60.3046875 119.3046875 C-40.70944463 118.60753243 -22.75682878 108.27937897 -9.375 94.375 C2.49302316 80.64080359 8.42202742 63.9845642 10 46 C10.08378906 45.113125 10.16757812 44.22625 10.25390625 43.3125 C10.78368176 32.10176659 7.88235535 16.66095168 2 7 C-0.03191844 5.26142635 -0.03191844 5.26142635 -2 4 C-1.34 2.68 -0.68 1.36 0 0 Z " fill="#6F8ABE" transform="translate(283,184)"/>
<path d="M0 0 C2.5933117 1.72887447 3.52243688 3.69662936 5.0625 6.375 C7.84643917 8.68440832 7.84643917 8.68440832 10.80859375 8.125 C14.28960073 7.32265505 17.69956092 6.38884051 21.125 5.375 C30.00803532 2.75156286 37.74606674 2.16233306 47 2.125 C48.24330078 2.104375 49.48660156 2.08375 50.76757812 2.0625 C77.5796043 1.9510734 101.28109661 13.38221009 120.38476562 31.67675781 C127.18626269 38.56139308 132.49865518 46.4239834 136.7109375 55.1328125 C138.19087126 57.58796273 139.6779183 58.82248511 142.0625 60.375 C141.7325 61.695 141.4025 63.015 141.0625 64.375 C139.4125 64.045 137.7625 63.715 136.0625 63.375 C135.9696875 62.35019531 135.876875 61.32539063 135.78125 60.26953125 C133.83462792 49.72180181 125.26671799 40.8582546 118.0625 33.375 C117.3921875 32.57320312 116.721875 31.77140625 116.03125 30.9453125 C112.60533385 26.82882952 112.60533385 26.82882952 107.7734375 25.0703125 C104.48541779 25.41121086 101.43369547 26.26953499 98.2578125 27.171875 C93.95204663 27.44559117 91.18972523 25.74852438 87.5625 23.6875 C78.82590042 19.02147705 69.21029008 14.53173294 59.0625 15.375 C55.41665587 18.27510329 53.45698252 20.93801016 52.0625 25.375 C50.7425 25.045 49.4225 24.715 48.0625 24.375 C48.25 22 48.25 22 49.0625 19.375 C50.7101038 18.66252268 52.38013529 18.00099617 54.0625 17.375 C54.92875 16.0446875 54.92875 16.0446875 55.8125 14.6875 C58.0625 12.375 58.0625 12.375 59.92578125 12.16796875 C62.36468154 12.39756327 64.67207104 12.8392779 67.0625 13.375 C67.86558594 13.53097656 68.66867188 13.68695313 69.49609375 13.84765625 C75.69651961 15.27271607 80.98675218 17.77781743 86.625 20.625 C93.00821656 23.8289447 97.93259963 25.61732739 105.0625 23.375 C101.26824058 19.15590072 97.57216798 16.73893657 92.4375 14.375 C91.70619873 14.0339624 90.97489746 13.6929248 90.22143555 13.34155273 C66.81547613 2.88094068 40.4678486 1.1283531 16.1875 9.625 C14.83011719 10.15867188 14.83011719 10.15867188 13.4453125 10.703125 C10.79852785 11.44943149 9.59240221 11.38587973 7.0625 10.375 C6.27875 9.735625 5.495 9.09625 4.6875 8.4375 C1.87676369 6.22906433 -0.51912838 5.32896417 -3.9375 4.375 C-3.9375 3.055 -3.9375 1.735 -3.9375 0.375 C-1.9375 -0.625 -1.9375 -0.625 0 0 Z " fill="#7CA3CE" transform="translate(166.9375,124.625)"/>
<path d="M0 0 C2.125 0.9375 2.125 0.9375 4 2 C3.67 3.32 3.34 4.64 3 6 C1.96746094 6.226875 0.93492187 6.45375 -0.12890625 6.6875 C-4.19622512 7.85748058 -6.94051068 10.0835776 -9.9375 13 C-10.71444214 13.73911621 -10.71444214 13.73911621 -11.50708008 14.49316406 C-19.96042042 22.68508798 -32.07914971 35.86510454 -34 48 C-29.50012597 47.29593808 -26.07398038 46.31562597 -23.125 42.703125 C-21.97404706 40.81684102 -20.85535449 38.91058444 -19.765625 36.98828125 C-17.45478891 33.07724229 -14.63723079 29.74079374 -11.69921875 26.2890625 C-9.95212526 23.93550667 -8.95983851 21.75770862 -8 19 C-6.0625 19.3125 -6.0625 19.3125 -4 20 C-3.505 21.485 -3.505 21.485 -3 23 C-3.33 23.66 -3.66 24.32 -4 25 C-5.11375 25.12375 -5.11375 25.12375 -6.25 25.25 C-10.14405798 26.31201581 -11.73670413 28.8638439 -14 32 C-14.44150391 32.58507324 -14.88300781 33.17014648 -15.33789062 33.77294922 C-17.7961676 37.09526503 -19.76140634 40.36218659 -21.5 44.125 C-22.89872464 46.86710407 -23.63089061 47.81425078 -26.4140625 49.21484375 C-30.03051349 50.34563606 -33.20647902 51 -37 51 C-37.19335938 51.78503906 -37.38671875 52.57007813 -37.5859375 53.37890625 C-37.84632812 54.42949219 -38.10671875 55.48007813 -38.375 56.5625 C-38.78298828 58.21378906 -38.78298828 58.21378906 -39.19921875 59.8984375 C-39.7887106 62.18164008 -40.46467625 64.44294203 -41.1875 66.6875 C-42.20973482 70.85507274 -42.17412924 74.73383353 -42 79 C-43.65 78.67 -45.3 78.34 -47 78 C-47 76.68 -47 75.36 -47 74 C-46.01 73.505 -46.01 73.505 -45 73 C-44.53255737 70.99452031 -44.15363486 68.9682827 -43.8125 66.9375 C-42.11821996 58.36903167 -38.72590912 50.86013704 -35 43 C-39.95 43.495 -39.95 43.495 -45 44 C-51.82526855 65.59037874 -51.82526855 65.59037874 -53 88 C-54.65 87.67 -56.3 87.34 -58 87 C-58 85.68 -58 84.36 -58 83 C-57.34 83 -56.68 83 -56 83 C-55.99742188 82.30519531 -55.99484375 81.61039062 -55.9921875 80.89453125 C-55.70153136 73.25027488 -54.2301483 66.39732689 -52.125 59.0625 C-51.86831543 58.16313721 -51.61163086 57.26377441 -51.34716797 56.3371582 C-48.4459435 46.57310641 -48.4459435 46.57310641 -46 43 C-43.109375 41.92578125 -43.109375 41.92578125 -39.75 41.3125 C-34.43152391 39.88874866 -32.10091571 38.68454361 -29.25 33.9375 C-28.72792969 32.97070312 -28.20585938 32.00390625 -27.66796875 31.0078125 C-22.38939933 21.48908076 -14.02763239 12.97976099 -5.5625 6.1875 C-2.77672016 4.19052724 -2.77672016 4.19052724 -2 1 C-1.34 0.67 -0.68 0.34 0 0 Z " fill="#80BADF" transform="translate(152,134)"/>
<path d="M0 0 C1.67542976 0.28604898 3.34385343 0.61781233 5 1 C4.67 2.32 4.34 3.64 4 5 C3.01 5 2.02 5 1 5 C0.59587891 6.32644531 0.59587891 6.32644531 0.18359375 7.6796875 C-3.55746629 18.17441038 -11.39660765 26.15025325 -19 34 C-19.69996094 34.72832031 -20.39992188 35.45664062 -21.12109375 36.20703125 C-25.50245859 40.68261899 -25.50245859 40.68261899 -28.08203125 42.328125 C-30.6324771 44.55132424 -30.98266906 46.42634349 -31.75 49.6875 C-32.11351562 51.17830078 -32.11351562 51.17830078 -32.484375 52.69921875 C-32.65453125 53.45847656 -32.8246875 54.21773438 -33 55 C-32.51789063 54.6390625 -32.03578125 54.278125 -31.5390625 53.90625 C-30.90742188 53.4421875 -30.27578125 52.978125 -29.625 52.5 C-28.99851562 52.0359375 -28.37203125 51.571875 -27.7265625 51.09375 C-26 50 -26 50 -24 50 C-23.67 48.68 -23.34 47.36 -23 46 C-21.68 46 -20.36 46 -19 46 C-18.67 46.99 -18.34 47.98 -18 49 C-18.495 49.99 -18.495 49.99 -19 51 C-20.57587891 51.44085938 -20.57587891 51.44085938 -22.18359375 51.890625 C-26.0903371 53.02625971 -28.69261796 54.5063108 -32.0625 56.75 C-36.69165376 59.78460697 -41.14253294 61.90117284 -46.375 63.8125 C-52.90541344 66.4304509 -55.20557941 69.50439408 -58.50390625 75.56640625 C-60.72397929 79.17764778 -62.94692981 80.02167271 -67 81 C-91.07255531 84.31451264 -112.89067723 81.75092997 -135.42578125 73.26953125 C-138.31800997 72.24223689 -140.98055728 71.48474612 -144 71 C-144 69.68 -144 68.36 -144 67 C-142.3125 66.1875 -142.3125 66.1875 -140 66 C-138.95779297 67.13501953 -138.95779297 67.13501953 -137.89453125 68.29296875 C-134.27580276 71.67728568 -131.05687197 72.74969116 -126.375 74.125 C-125.12843628 74.50229248 -125.12843628 74.50229248 -123.85668945 74.88720703 C-105.03996031 80.35041393 -79.52563203 84.4255744 -61 76 C-59.19194716 73.75179102 -59.19194716 73.75179102 -57.9375 71.0625 C-55.2189732 65.71212406 -52.47377407 63.87255645 -46.84375 61.88671875 C-39.9031697 59.51963904 -39.9031697 59.51963904 -35.5703125 53.98828125 C-34.92143489 51.59386923 -34.27302198 49.19933123 -33.625 46.8046875 C-31.16374809 39.76478313 -24.17350088 35.16747429 -18.68798828 30.47021484 C-10.11451514 23.0028363 -2.21413961 12.42138311 -1 1 C-0.67 0.67 -0.34 0.34 0 0 Z " fill="#79A7D2" transform="translate(304,264)"/>
<path d="M0 0 C0 3.85458196 -1.11937203 4.57995798 -3.625 7.4375 C-11.66630669 17.26892091 -15.22686991 27.81244879 -18 40 C-18.1959375 40.81597656 -18.391875 41.63195312 -18.59375 42.47265625 C-20.481524 54.21678876 -19.36227323 67.79133514 -15.3125 78.9375 C-13.96807234 82.67050473 -13.76593083 85.12149689 -15 89 C-15.53625 89.825 -16.0725 90.65 -16.625 91.5 C-18.46898573 94.85270133 -17.94984635 96.33054641 -17 100 C-5.49602509 119.34272992 13.90175151 133.57397685 35.578125 139.25390625 C51.61519994 143.11736124 65.98832258 142.19571225 82 139 C83.99859454 138.65834082 85.99809253 138.32167936 88 138 C88 137.01 88 136.02 88 135 C89.65 135 91.3 135 93 135 C93.5625 136.9375 93.5625 136.9375 94 139 C92.4938507 140.5061493 91.03510413 140.26120051 88.9375 140.4375 C84.4567975 140.88557025 80.35291494 141.85825182 76 143 C53.07288201 147.83940664 28.58732278 142.29145166 9 130 C-2.93554244 121.92314356 -15.61730478 110.72587282 -21 97 C-20.42643473 93.05673878 -19.19959108 91.29938663 -17 88 C-17.25809747 83.26821302 -18.2475058 79.06435165 -19.5234375 74.51171875 C-21.15354018 68.03227033 -21.50079528 61.91045768 -21.4375 55.25 C-21.42920166 54.11401367 -21.42090332 52.97802734 -21.41235352 51.80761719 C-21.01378741 31.86512783 -14.27802786 14.27802786 0 0 Z " fill="#82BEE2" transform="translate(157,172)"/>
<path d="M0 0 C1.98 0.495 1.98 0.495 4 1 C4.144375 2.175625 4.28875 3.35125 4.4375 4.5625 C5.99438473 11.4868265 9.86466387 17.27489788 13.74560547 23.10888672 C14.56141412 24.3387921 15.3609719 25.57968657 16.14111328 26.83251953 C18.65066198 30.81322096 21.18021393 34.15177933 25 37 C28.4141078 37.59485511 31.39038263 37.72153038 34.82763672 37.63549805 C42.61843009 37.59622441 47.21546907 41.46988744 53.32519531 45.86621094 C68.82666557 56.36020917 86.41404178 58.17505939 104.5 58.0625 C105.90885258 58.05747533 107.31770689 58.05291413 108.7265625 58.04882812 C112.15108638 58.0371003 115.57552047 58.02068691 119 58 C119 57.34 119 56.68 119 56 C120.65 56 122.3 56 124 56 C124.495 57.98 124.495 57.98 125 60 C110.13688292 63.46170148 89.45509241 62.532238 75 58 C74.37061523 57.80664062 73.74123047 57.61328125 73.09277344 57.4140625 C62.34171309 54.02394712 50.08817418 49.08817418 42 41 C40.09573205 40.98538391 38.19074442 40.97929579 36.28710938 41.03051758 C30.89283085 41.10594995 26.54500077 41.02734588 21.96875 37.984375 C19.33163225 35.1302792 17.15742082 32.23231953 15 29 C14.59813477 28.41863281 14.19626953 27.83726562 13.78222656 27.23828125 C10.01631033 21.78317557 6.49405306 16.2380615 3.625 10.25 C2.23514918 6.79844356 2.23514918 6.79844356 -1 5 C-0.67 3.35 -0.34 1.7 0 0 Z " fill="#81A7D0" transform="translate(113,265)"/>
<path d="M0 0 C1.65 0.33 3.3 0.66 5 1 C5.22945313 1.87011719 5.45890625 2.74023438 5.6953125 3.63671875 C9.33640047 13.02287665 21.09623086 23.52504867 30 28 C33.90111767 28.39962669 37.22459889 28.0181692 41 27 C41 26.34 41 25.68 41 25 C40.319375 24.731875 39.63875 24.46375 38.9375 24.1875 C35.60289191 22.83946694 32.30256763 21.42463702 29 20 C29 18.68 29 17.36 29 16 C30.32 15.67 31.64 15.34 33 15 C33.061875 15.78375 33.12375 16.5675 33.1875 17.375 C33.455625 18.24125 33.72375 19.1075 34 20 C35.64929925 20.70854372 37.32057235 21.36616643 39 22 C41.07315986 23.2322396 43.13454756 24.48438057 45.1875 25.75 C65.59379915 37.75193516 87.84127179 39.59869442 111 39 C111 38.34 111 37.68 111 37 C112.875 36.375 112.875 36.375 115 36 C115.66 36.66 116.32 37.32 117 38 C116.625 40.125 116.625 40.125 116 42 C68.54113721 40.82416354 68.54113721 40.82416354 49.78515625 30.79296875 C46.59186582 29.14857156 44.50410252 28.58264958 40.875 29.1875 C40.08867187 29.30480469 39.30234375 29.42210937 38.4921875 29.54296875 C35.91245483 29.9700027 35.91245483 29.9700027 33.12109375 30.85546875 C28.67132069 31.06152833 26.40775018 28.87967184 23.1875 26.125 C22.27327271 25.37367798 22.27327271 25.37367798 21.34057617 24.60717773 C15.63095283 19.84777569 9.83799423 14.87576823 5.4296875 8.85546875 C3.62529917 6.51370794 1.57887231 5.39398503 -1 4 C-0.67 2.68 -0.34 1.36 0 0 Z " fill="#7DAED6" transform="translate(118,295)"/>
<path d="M0 0 C3.38506624 2.73686207 4.77580739 6.47470802 6.4375 10.375 C6.74389404 11.08817383 7.05028809 11.80134766 7.3659668 12.53613281 C19.74288591 41.90553729 19.52345492 75.08666775 7.52734375 104.5625 C5.88751866 108.25315494 4.07766412 111.71656263 1.8828125 115.10546875 C0.76777499 117.49835899 0.84685976 119.39211171 1 122 C-1.475 122.495 -1.475 122.495 -4 123 C-4.33 121.68 -4.66 120.36 -5 119 C-4.38125 118.938125 -3.7625 118.87625 -3.125 118.8125 C-2.073125 118.4103125 -2.073125 118.4103125 -1 118 C-0.26865964 116.360682 0.38079167 114.68487485 1 113 C1.52335937 111.80890625 2.04671875 110.6178125 2.5859375 109.390625 C15.70752256 79.26580493 17.49996541 45.31720473 5.60009766 14.51733398 C4.87183057 12.70975973 4.10361811 10.91841773 3.33203125 9.12890625 C2.05267563 6.12373366 0.99005283 3.1109243 0 0 Z " fill="#7F91C0" transform="translate(319,168)"/>
<path d="M0 0 C0.9590625 0.680625 0.9590625 0.680625 1.9375 1.375 C2.05609375 2.07882813 2.1746875 2.78265625 2.296875 3.5078125 C3.15199848 7.33501147 5.11773203 10.31158281 7.125 13.625 C21.33062422 38.11882003 25.07620979 67.9335376 17.9375 95.375 C17.2775 96.365 16.6175 97.355 15.9375 98.375 C16.08183868 97.02067321 16.22806661 95.66654775 16.375 94.3125 C16.45621094 93.55839844 16.53742188 92.80429688 16.62109375 92.02734375 C16.85486965 90.06766677 17.13844669 88.11378375 17.44897461 86.16479492 C17.93113325 82.42439083 18.06685668 78.85524684 18.0703125 75.0859375 C18.07126923 74.41962311 18.07222595 73.75330872 18.07321167 73.06680298 C18.07388709 71.67018539 18.07207775 70.27356454 18.06787109 68.87695312 C18.06249653 66.74862603 18.06784653 64.62050829 18.07421875 62.4921875 C18.07355819 61.12760371 18.07227748 59.76302004 18.0703125 58.3984375 C18.06918457 57.17044434 18.06805664 55.94245117 18.06689453 54.67724609 C17.95128022 51.72668171 17.83160505 49.18727591 16.9375 46.375 C14.5731757 44.81365376 12.46407401 43.57208856 9.9375 42.375 C8.7309375 41.75625 8.7309375 41.75625 7.5 41.125 C6.984375 40.8775 6.46875 40.63 5.9375 40.375 C6.2675 39.055 6.5975 37.735 6.9375 36.375 C8.5875 36.705 10.2375 37.035 11.9375 37.375 C11.9375 38.695 11.9375 40.015 11.9375 41.375 C13.2575 42.035 14.5775 42.695 15.9375 43.375 C14.57010273 35.50067778 11.91726671 28.68340396 8.5 21.5 C7.92487671 20.28799927 7.92487671 20.28799927 7.33813477 19.05151367 C3.38109493 10.04803235 3.38109493 10.04803235 -4.0625 4.375 C-4.0625 3.055 -4.0625 1.735 -4.0625 0.375 C-2.0625 -0.625 -2.0625 -0.625 0 0 Z " fill="#6F87BC" transform="translate(304.0625,158.625)"/>
<path d="M0 0 C2 0.3125 2 0.3125 4 1 C4.33 1.66 4.66 2.32 5 3 C6.9127605 3.79179388 8.85707774 4.50785739 10.8125 5.1875 C22.69536871 9.646826 33.21950188 16.01369165 41.515625 25.78515625 C42.94419413 27.20418794 42.94419413 27.20418794 45.04296875 27.07421875 C45.75066406 26.94660156 46.45835937 26.81898438 47.1875 26.6875 C48.445625 26.460625 49.70375 26.23375 51 26 C49.02664948 20.86928864 45.01582619 16.96409078 40.125 14.625 C39.42375 14.41875 38.7225 14.2125 38 14 C38.33 12.68 38.66 11.36 39 10 C41.475 10.495 41.475 10.495 44 11 C44 12.32 44 13.64 44 15 C44.82757813 15.30357422 44.82757813 15.30357422 45.671875 15.61328125 C48.91531497 17.545196 50.96850127 20.2463149 53.25 23.1875 C53.72945068 23.80173828 54.20890137 24.41597656 54.70288086 25.04882812 C60.71688859 32.97797813 66.50609475 42.29399038 69 52 C68.54516602 54.17578125 68.54516602 54.17578125 68 56 C67.56429687 54.87722656 67.12859375 53.75445312 66.6796875 52.59765625 C63.72460625 45.12529584 60.92396091 38.04737344 56.06640625 31.56640625 C55 30 55 30 55 28 C54.34 28.165 53.68 28.33 53 28.5 C44.9972752 29.83378747 44.9972752 29.83378747 42 29 C39.64567439 27.03200195 37.6745184 24.84376149 35.6015625 22.58203125 C27.29396468 14.33680278 13.5787634 5.78301216 1.6875 5.6875 C0.800625 5.790625 -0.08625 5.89375 -1 6 C-1.042721 4.33388095 -1.04063832 2.66617115 -1 1 C-0.67 0.67 -0.34 0.34 0 0 Z " fill="#6D93C5" transform="translate(232,146)"/>
<path d="M0 0 C2.475 0.495 2.475 0.495 5 1 C4.90513994 4.92898011 4.79878878 8.85747961 4.68261719 12.78588867 C4.62634176 14.76530535 4.57869039 16.74496125 4.53125 18.72460938 C3.86584552 40.62750679 3.86584552 40.62750679 -1 48 C-2.70426169 48.72797933 -4.43876563 49.38649374 -6.1875 50 C-12.39472116 52.46331247 -14.35617889 56.40803029 -17.07861328 62.12890625 C-21.25907299 70.88674527 -27.49113937 77.9031572 -34.58984375 84.46484375 C-36.16515293 86.17979252 -37.05340883 87.88274536 -38 90 C-39.65 89.67 -41.3 89.34 -43 89 C-43 87.68 -43 86.36 -43 85 C-42.01 84.835 -41.02 84.67 -40 84.5 C-31.30012631 81.97423022 -25.52099885 72.29547497 -21 65 C-20.36948139 63.81355464 -19.74884452 62.62181985 -19.13671875 61.42578125 C-15.54401828 54.48001471 -12.68815674 49.67847843 -5.1015625 46.6015625 C-3 46 -3 46 -1 46 C0.80180348 37.11000832 1.30756937 28.55758111 1.25 19.5 C1.25773437 18.2521875 1.26546875 17.004375 1.2734375 15.71875 C1.26957031 13.924375 1.26957031 13.924375 1.265625 12.09375 C1.26336914 11.01802734 1.26111328 9.94230469 1.25878906 8.83398438 C1.00084653 6.00927026 0.30061435 4.46330565 -1 2 C-0.67 1.34 -0.34 0.68 0 0 Z " fill="#6A86BD" transform="translate(311,208)"/>
<path d="M0 0 C2.5933117 1.72887447 3.52243688 3.69662936 5.0625 6.375 C7.84643917 8.68440832 7.84643917 8.68440832 10.80859375 8.125 C14.28960073 7.32265505 17.69956092 6.38884051 21.125 5.375 C30.00803532 2.75156286 37.74606674 2.16233306 47 2.125 C48.24330078 2.104375 49.48660156 2.08375 50.76757812 2.0625 C71.24346656 1.9774054 90.38788196 8.64018168 107.0625 20.375 C108.0525 21.86 108.0525 21.86 109.0625 23.375 C105.0625 23.375 105.0625 23.375 102.7890625 21.125 C101.88929688 20.2175 100.98953125 19.31 100.0625 18.375 C97.62470127 16.80915595 95.06692034 15.58555206 92.4375 14.375 C91.70619873 14.0339624 90.97489746 13.6929248 90.22143555 13.34155273 C66.81547613 2.88094068 40.4678486 1.1283531 16.1875 9.625 C14.83011719 10.15867188 14.83011719 10.15867188 13.4453125 10.703125 C10.79852785 11.44943149 9.59240221 11.38587973 7.0625 10.375 C6.27875 9.735625 5.495 9.09625 4.6875 8.4375 C1.87676369 6.22906433 -0.51912838 5.32896417 -3.9375 4.375 C-3.9375 3.055 -3.9375 1.735 -3.9375 0.375 C-1.9375 -0.625 -1.9375 -0.625 0 0 Z " fill="#75A4D1" transform="translate(166.9375,124.625)"/>
<path d="M0 0 C1.65 0 3.3 0 5 0 C5 1.65 5 3.3 5 5 C4.34 5 3.68 5 3 5 C3.15339844 5.99 3.30679688 6.98 3.46484375 8 C4.82699707 18.66749833 4.82699707 18.66749833 2.47265625 22.4609375 C1.1745259 23.72050952 -0.1338861 24.96958516 -1.453125 26.20703125 C-3.13364245 27.86593243 -3.13364245 27.86593243 -3.421875 29.94921875 C-2.81116406 37.45818738 0.50958466 44.94770235 3 52 C3.50853516 53.68416016 3.50853516 53.68416016 4.02734375 55.40234375 C4.34832031 56.25957031 4.66929688 57.11679687 5 58 C7.03243548 58.96877057 7.03243548 58.96877057 9 59 C8.67 60.65 8.34 62.3 8 64 C6.35 63.67 4.7 63.34 3 63 C2.89429687 61.82953125 2.78859375 60.6590625 2.6796875 59.453125 C2.14814539 55.21197846 0.83496539 51.6803682 -0.875 47.75 C-4.97809183 37.93617935 -7.64157218 28.74039346 -7 18 C-7.99 17.67 -8.98 17.34 -10 17 C-9.67 15.35 -9.34 13.7 -9 12 C-7.02 12.495 -7.02 12.495 -5 13 C-5 14.32 -5 15.64 -5 17 C-4.85302021 18.58528205 -4.68602074 20.1688237 -4.5 21.75 C-4.36078125 22.94882813 -4.36078125 22.94882813 -4.21875 24.171875 C-4.1465625 24.77515625 -4.074375 25.3784375 -4 26 C-0.33158613 22.8959575 0.83556747 21.1081826 1.5546875 16.26171875 C1.83769038 12.51025397 1.94736297 8.7611551 2 5 C1.34 5 0.68 5 0 5 C0 3.35 0 1.7 0 0 Z " fill="#86BEE1" transform="translate(104,221)"/>
<path d="M0 0 C2.4375 1.625 2.4375 1.625 4 4 C4.5625 6.9375 4.5625 6.9375 4 10 C1.875 12.9375 1.875 12.9375 -1 15 C-4.64469779 15.07438159 -6.4194443 14.38703713 -9.4375 12.375 C-11 10 -11 10 -10.9375 6.4375 C-10 3 -10 3 -8.875 1.0625 C-5.81547541 -0.6712306 -3.43182475 -0.42145216 0 0 Z " fill="#5581BD" transform="translate(192,250)"/>
<path d="M0 0 C2.5 2.125 2.5 2.125 4 5 C4.08104732 8.97131876 3.4688579 10.47755834 0.8125 13.4375 C-2 15 -2 15 -5.125 14.9375 C-9.49189189 13.51351351 -9.49189189 13.51351351 -11 11 C-11.49573337 7.10495209 -11.58016848 4.90506283 -9.4375 1.5625 C-6.03280512 -0.61999672 -3.96569988 -0.63734462 0 0 Z " fill="#597FBA" transform="translate(250,250)"/>
<path d="M0 0 C2.0625 0.4375 2.0625 0.4375 4 1 C4.144375 1.94875 4.28875 2.8975 4.4375 3.875 C6.11794327 9.76251047 10.78320489 13.78320489 15 18 C15.64324219 18.64324219 16.28648437 19.28648437 16.94921875 19.94921875 C32.10575337 34.08896279 50.47403081 38.12213907 70.4921875 38.56640625 C71.43320313 38.59605469 72.37421875 38.62570312 73.34375 38.65625 C74.19130859 38.67494141 75.03886719 38.69363281 75.91210938 38.71289062 C78 39 78 39 80 41 C53.85737287 41.8934126 32.7170112 37.52934151 13.0859375 19.29296875 C5.06477498 11.60156656 5.06477498 11.60156656 3 6 C0.95894361 5.11306697 0.95894361 5.11306697 -1 5 C-1 1 -1 1 0 0 Z " fill="#83BBDF" transform="translate(147,265)"/>
<path d="M0 0 C2.2720686 0.93927019 4.08327855 1.33819813 6.515625 1.55078125 C7.464375 1.69515625 8.413125 1.83953125 9.390625 1.98828125 C10.828125 4.05078125 10.828125 4.05078125 11.390625 5.98828125 C10.730625 6.64828125 10.070625 7.30828125 9.390625 7.98828125 C7.265625 7.61328125 7.265625 7.61328125 5.390625 6.98828125 C5.390625 5.99828125 5.390625 5.00828125 5.390625 3.98828125 C3.39187663 3.31013448 1.391553 2.63650014 -0.61328125 1.9765625 C-2.79211462 1.25785997 -4.96598549 0.52405906 -7.13671875 -0.21875 C-28.11501711 -7.24899649 -48.6798476 -8.25269235 -70.609375 -6.01171875 C-70.939375 -5.02171875 -71.269375 -4.03171875 -71.609375 -3.01171875 C-72.929375 -3.01171875 -74.249375 -3.01171875 -75.609375 -3.01171875 C-75.609375 -4.66171875 -75.609375 -6.31171875 -75.609375 -8.01171875 C-49.61739166 -10.33598064 -24.17330575 -11.15425394 0 0 Z " fill="#7FB5DB" transform="translate(262.609375,116.01171875)"/>
<path d="M0 0 C2.0625 0.4375 2.0625 0.4375 4 1 C3.67 2.65 3.34 4.3 3 6 C1.05673828 6.11214844 1.05673828 6.11214844 -0.92578125 6.2265625 C-6.32932852 6.83692997 -10.46094011 8.77983349 -15.1875 11.375 C-16.01048584 11.81908203 -16.83347168 12.26316406 -17.68139648 12.72070312 C-30.25196379 19.70367341 -45.10280447 30.07304764 -52 43 C-52.70670728 45.69254991 -52.70670728 45.69254991 -53 48 C-54.65 47.67 -56.3 47.34 -58 47 C-57.8125 44.6875 -57.8125 44.6875 -57 42 C-55.34634594 40.97862543 -53.67623498 39.98387706 -52 39 C-50.83744311 37.78485125 -49.7157916 36.52996042 -48.625 35.25 C-48.01914063 34.53972656 -47.41328125 33.82945312 -46.7890625 33.09765625 C-46.19867188 32.40542969 -45.60828125 31.71320313 -45 31 C-35.61312798 20.24731327 -23.37223136 12.71952953 -10.55859375 6.75390625 C-6.84486964 4.92354168 -2.96184981 2.96184981 0 0 Z " fill="#79B3DB" transform="translate(175,111)"/>
<path d="M0 0 C2.53553757 3.15990418 4.37198334 6.44491495 6.1875 10.0625 C6.98220703 11.62677734 6.98220703 11.62677734 7.79296875 13.22265625 C9 16 9 16 9 19 C9.99 19.33 10.98 19.66 12 20 C9.6875 20.25 9.6875 20.25 7 20 C6.54625 19.34 6.0925 18.68 5.625 18 C4.06186204 15.60598951 4.06186204 15.60598951 0.5625 15.5625 C-3.04146306 16.00509196 -4.43015709 16.53295081 -7 19 C-8 16 -8 16 -7.37915039 14.19067383 C-7.03875732 13.53607178 -6.69836426 12.88146973 -6.34765625 12.20703125 C-5.98349609 11.49482422 -5.61933594 10.78261719 -5.24414062 10.04882812 C-4.85419922 9.31083984 -4.46425781 8.57285156 -4.0625 7.8125 C-3.48338867 6.68811523 -3.48338867 6.68811523 -2.89257812 5.54101562 C-1.93728243 3.68939311 -0.96978423 1.84407548 0 0 Z " fill="#E4EAEF" transform="translate(246,235)"/>
<path d="M0 0 C0.66 0 1.32 0 2 0 C3.33957921 2.78871177 4.67058435 5.58143062 6 8.375 C6.3815625 9.1690625 6.763125 9.963125 7.15625 10.78125 C7.5171875 11.54179687 7.878125 12.30234375 8.25 13.0859375 C8.58515625 13.7876709 8.9203125 14.4894043 9.265625 15.21240234 C10 17 10 17 10 19 C9.01 19 8.02 19 7 19 C6.5875 18.505 6.175 18.01 5.75 17.5 C3.93796401 15.65302451 3.93796401 15.65302451 0.5 15.6875 C-3.1112507 15.72857913 -3.1112507 15.72857913 -6 18 C-7 15 -7 15 -5.8203125 12.44140625 C-4.98113281 11.01634766 -4.98113281 11.01634766 -4.125 9.5625 C-2.26368814 6.38095532 -0.67208537 3.64477066 0 0 Z " fill="#E1E9EF" transform="translate(188,235)"/>
<path d="M0 0 C1.65 0 3.3 0 5 0 C5 1.65 5 3.3 5 5 C4.34 5 3.68 5 3 5 C3.12761719 5.76183594 3.25523437 6.52367187 3.38671875 7.30859375 C3.84432664 12.06890436 4.09163139 15.56257233 1.11328125 19.484375 C-6.4098212 25.82672146 -15.32914796 30.42774469 -24 35 C-25.13115234 35.62068359 -25.13115234 35.62068359 -26.28515625 36.25390625 C-28 37 -28 37 -31 37 C-31.66 38.32 -32.32 39.64 -33 41 C-34.32 40.67 -35.64 40.34 -37 40 C-36.67 38.35 -36.34 36.7 -36 35 C-35.1646875 35.06960938 -34.329375 35.13921875 -33.46875 35.2109375 C-29.26055962 34.95503403 -26.17219309 33.53691624 -22.5 31.625 C-21.81091553 31.27429443 -21.12183105 30.92358887 -20.41186523 30.56225586 C-13.02288243 26.68225814 -4.94061973 21.94061973 1 16 C1.23363881 14.15108054 1.41303635 12.29511969 1.5625 10.4375 C1.64628906 9.42558594 1.73007812 8.41367187 1.81640625 7.37109375 C1.90728516 6.19740234 1.90728516 6.19740234 2 5 C1.34 5 0.68 5 0 5 C0 3.35 0 1.7 0 0 Z " fill="#7AA9D4" transform="translate(291,300)"/>
<path d="M0 0 C2.125 0.9375 2.125 0.9375 4 2 C3.8125 3.875 3.8125 3.875 3 6 C1.948125 6.4021875 1.948125 6.4021875 0.875 6.8125 C-2.14470897 8.05977109 -3.01422542 8.99766972 -5.11328125 11.390625 C-9.03920378 15.40745389 -12.71041591 16.60872546 -18.0625 17.9375 C-31.77299059 21.82541098 -42.31632483 28.58092311 -53 38 C-53 37.01 -53 36.02 -53 35 C-51.06684249 33.10360618 -49.19033394 31.46691225 -47.0625 29.8125 C-46.12881592 29.08546875 -46.12881592 29.08546875 -45.17626953 28.34375 C-36.29851207 21.69584666 -26.25740115 16.70920124 -15.375 14.4375 C-9.69590079 13.22668793 -6.24770245 10.83971346 -3 6 C-2.13457301 3.27886497 -2.13457301 3.27886497 -2 1 C-1.34 0.67 -0.68 0.34 0 0 Z " fill="#789FCC" transform="translate(212,134)"/>
<path d="M0 0 C1.67542976 0.28604898 3.34385343 0.61781233 5 1 C4.41226828 3.44888217 3.74025735 5.8220208 2.98046875 8.2265625 C0.55272494 17.56999085 1.83457491 27.38990019 3.3125 36.8125 C3.43004639 37.59536377 3.54759277 38.37822754 3.66870117 39.18481445 C4.00751085 41.14428183 4.49372396 43.07698441 5 45 C5.99 45.66 6.98 46.32 8 47 C7.67 48.32 7.34 49.64 7 51 C5.35 50.67 3.7 50.34 2 50 C2.04125 48.989375 2.0825 47.97875 2.125 46.9375 C2.17247479 43.05585057 2.17247479 43.05585057 1.00219727 39.71166992 C-0.04329236 35.83966534 -0.21462365 32.67587741 -0.16015625 28.67578125 C-0.15495468 28.00709518 -0.14975311 27.33840912 -0.14439392 26.64945984 C-0.12675574 24.53690624 -0.09560005 22.42486319 -0.0625 20.3125 C-0.0347843 18.18947728 -0.01009489 16.06652625 0.00868225 13.94340515 C0.02642509 12.02510428 0.05384212 10.10690008 0.08178711 8.1887207 C0.0139665 5.54452659 -0.32604403 3.52025551 -1 1 C-0.67 0.67 -0.34 0.34 0 0 Z " fill="#85BBDF" transform="translate(126,206)"/>
<path d="M0 0 C1.78277344 -0.00580078 1.78277344 -0.00580078 3.6015625 -0.01171875 C9.29450668 -0.00536502 14.77081432 0.08962259 20.375 1.125 C19.715 1.785 19.055 2.445 18.375 3.125 C15.93162588 3.10692325 13.61292603 2.97560123 11.1875 2.75 C9.72157236 2.64154077 8.25541584 2.53613707 6.7890625 2.43359375 C6.04688477 2.38058105 5.30470703 2.32756836 4.54003906 2.27294922 C-7.55310398 1.44655717 -17.96323504 2.87230633 -29.66479492 5.7578125 C-31.625 6.125 -31.625 6.125 -35.625 6.125 C-36.285 7.445 -36.945 8.765 -37.625 10.125 C-38.945 9.795 -40.265 9.465 -41.625 9.125 C-41.295 7.475 -40.965 5.825 -40.625 4.125 C-39.9959375 4.07601562 -39.366875 4.02703125 -38.71875 3.9765625 C-34.57804654 3.61487455 -30.58151066 3.2129746 -26.5625 2.125 C-17.85783567 -0.22325645 -8.94646194 -0.02930064 0 0 Z " fill="#85BBDF" transform="translate(216.625,116.875)"/>
<path d="M0 0 C20.7243932 1.09075754 39.90641142 12.83871174 54.875 26.5 C57.74571 29.05330963 60.09603986 29.80956292 64 30 C64 30.33 64 30.66 64 31 C60.48154581 31.5131079 58.20203907 31.83460355 55.2109375 29.7578125 C53.91015904 28.55666813 52.61944713 27.34458003 51.3359375 26.125 C39.48672491 15.34578319 24.53842493 7.71641679 9.0859375 3.7890625 C5.99832572 2.99957189 3.01139234 2.03997033 0 1 C0 0.67 0 0.34 0 0 Z " fill="#749AC9" transform="translate(235,119)"/>
<path d="M0 0 C2.24141031 0.8676427 3.74307596 1.72613987 5.39257812 3.484375 C8.2182494 6.14867744 11.8489268 6.87238219 15.5 8 C16.74487183 8.39082764 16.74487183 8.39082764 18.01489258 8.78955078 C26.86958807 11.45020249 35.846025 12.83140745 45 14 C44.67 14.66 44.34 15.32 44 16 C30.56048958 15.49092764 18.14052011 12.18021565 5.76953125 7.05078125 C3.17226857 6.06536001 0.73452628 5.45492119 -2 5 C-2 3.68 -2 2.36 -2 1 C-1.34 0.67 -0.68 0.34 0 0 Z " fill="#88BADE" transform="translate(162,330)"/>
<path d="M0 0 C2.5933117 1.72887447 3.52243688 3.69662936 5.0625 6.375 C7.84856934 8.6855412 7.84856934 8.6855412 10.82421875 8.125 C14.22490636 7.33738598 17.53649339 6.39416251 20.875 5.375 C34.76199964 1.35700855 34.76199964 1.35700855 39.3046875 3.3671875 C39.88476562 3.69976562 40.46484375 4.03234375 41.0625 4.375 C39.90234375 4.54515625 38.7421875 4.7153125 37.546875 4.890625 C29.1937026 6.16966534 21.35574435 7.59304068 13.4453125 10.703125 C10.79852785 11.44943149 9.59240221 11.38587973 7.0625 10.375 C6.27875 9.735625 5.495 9.09625 4.6875 8.4375 C1.87676369 6.22906433 -0.51912838 5.32896417 -3.9375 4.375 C-3.9375 3.055 -3.9375 1.735 -3.9375 0.375 C-1.9375 -0.625 -1.9375 -0.625 0 0 Z " fill="#8EC5E5" transform="translate(166.9375,124.625)"/>
<path d="M0 0 C1.65 0 3.3 0 5 0 C5.5625 1.9375 5.5625 1.9375 6 4 C4.4938507 5.5061493 3.03510413 5.26120051 0.9375 5.4375 C-3.5432025 5.88557025 -7.64708506 6.85825182 -12 8 C-17.50484921 9.18258485 -22.8981283 9.14843879 -28.5 9.125 C-29.42425781 9.12886719 -30.34851563 9.13273437 -31.30078125 9.13671875 C-35.9805261 9.13002384 -40.39778866 8.96646438 -45 8 C-45 7.67 -45 7.34 -45 7 C-44.42258057 7.01571045 -43.84516113 7.0314209 -43.25024414 7.04760742 C-30.4137404 7.34890993 -18.54978103 6.67932272 -6 4 C-4.00185442 3.65572492 -2.00244907 3.31829052 0 3 C0 2.01 0 1.02 0 0 Z " fill="#6C8CC1" transform="translate(245,307)"/>
<path d="M0 0 C0.9590625 0.680625 0.9590625 0.680625 1.9375 1.375 C2.05609375 2.07882813 2.1746875 2.78265625 2.296875 3.5078125 C3.15183184 7.33426568 5.11592729 10.31310868 7.125 13.625 C11.66159392 21.35871741 17.9375 32.17115982 17.9375 41.375 C17.2775 41.375 16.6175 41.375 15.9375 41.375 C15.57011719 40.08142578 15.57011719 40.08142578 15.1953125 38.76171875 C12.76792816 30.83505335 9.74651277 23.49498037 5.9375 16.125 C5.31512451 14.89269653 5.31512451 14.89269653 4.68017578 13.63549805 C2.26384694 9.08814756 0.52995754 6.90085165 -4.0625 4.375 C-4.0625 3.055 -4.0625 1.735 -4.0625 0.375 C-2.0625 -0.625 -2.0625 -0.625 0 0 Z " fill="#7AA6D1" transform="translate(304.0625,158.625)"/>
<path d="M0 0 C1.32 0.66 2.64 1.32 4 2 C3.67 3.32 3.34 4.64 3 6 C2.0925 5.896875 1.185 5.79375 0.25 5.6875 C-11.37394929 5.73427646 -24.38905897 14.85807613 -33 22 C-33.66 21.67 -34.32 21.34 -35 21 C-25.64203259 12.54183715 -14.90837645 6.95768001 -3 3 C-1.16310524 1.50113129 -1.16310524 1.50113129 0 0 Z " fill="#71A2D0" transform="translate(192,137)"/>
<path d="M0 0 C1.46630121 3.45318274 0.6042586 5.79084431 -0.74169922 9.17578125 C-1.01256348 9.81902344 -1.28342773 10.46226562 -1.5625 11.125 C-1.83336426 11.79660156 -2.10422852 12.46820313 -2.38330078 13.16015625 C-4.02579166 17.10592109 -5.90251544 20.49485482 -8.375 24 C-12.56362662 30.49619899 -12.06131181 39.07865781 -10.47265625 46.4453125 C-10.31667969 46.95835937 -10.16070312 47.47140625 -10 48 C-12.475 48.495 -12.475 48.495 -15 49 C-15.33 47.68 -15.66 46.36 -16 45 C-14.515 44.505 -14.515 44.505 -13 44 C-13.10441406 43.04222656 -13.20882813 42.08445312 -13.31640625 41.09765625 C-14.16015528 29.63867154 -10.81889488 22.63748463 -5.07275391 12.93164062 C-2.80821962 8.85403588 -1.37204101 4.44234259 0 0 Z " fill="#76A4D0" transform="translate(319,257)"/>
<path d="M0 0 C0.66 0.66 1.32 1.32 2 2 C0.79995707 11.77177817 -3.63405949 22.41315354 -8.7109375 30.83984375 C-10.24478111 33.4101938 -10.25223949 35.05720601 -10 38 C-12.475 38.495 -12.475 38.495 -15 39 C-15.33 37.68 -15.66 36.36 -16 35 C-15.38125 34.938125 -14.7625 34.87625 -14.125 34.8125 C-11.80593424 34.21244551 -11.80593424 34.21244551 -11.08203125 31.953125 C-10.72496094 30.97859375 -10.36789062 30.0040625 -10 29 C-9.46581239 27.73565365 -8.92489631 26.47413837 -8.37890625 25.21484375 C-4.84348207 16.92618444 -1.795143 8.87313538 0 0 Z " fill="#7591C2" transform="translate(330,252)"/>
<path d="M0 0 C0.66 0.66 1.32 1.32 2 2 C1.78393555 3.8918457 1.78393555 3.8918457 1.13671875 6.17578125 C0.90919922 7.00400391 0.68167969 7.83222656 0.44726562 8.68554688 C0.19654297 9.55244141 -0.05417969 10.41933594 -0.3125 11.3125 C-0.78892908 13.01660078 -1.26422279 14.72101947 -1.73828125 16.42578125 C-1.96217529 17.23072021 -2.18606934 18.03565918 -2.41674805 18.86499023 C-3.72070239 23.63815087 -4.11260306 27.85229733 -4.0625 32.8125 C-4.04896484 34.55466797 -4.04896484 34.55466797 -4.03515625 36.33203125 C-4.02355469 37.21246094 -4.01195313 38.09289062 -4 39 C-5.65 38.67 -7.3 38.34 -9 38 C-9 36.68 -9 35.36 -9 34 C-8.34 34 -7.68 34 -7 34 C-6.99742188 33.30519531 -6.99484375 32.61039063 -6.9921875 31.89453125 C-6.56913308 20.76820001 -3.28469503 10.5706913 0 0 Z " fill="#8DC5E5" transform="translate(103,183)"/>
<path d="M0 0 C9.32176231 0.24126914 18.9049132 2.8773411 27.21875 7.13671875 C29.21842936 8.23095351 29.21842936 8.23095351 32.625 8.375 C36 9 36 9 37.4375 11.0625 C37.623125 11.701875 37.80875 12.34125 38 13 C37.34 13.66 36.68 14.32 36 15 C33.875 14.625 33.875 14.625 32 14 C32 13.01 32 12.02 32 11 C26.31432595 9.07093202 20.60459341 7.23097934 14.875 5.4375 C14.20662109 5.22778564 13.53824219 5.01807129 12.84960938 4.80200195 C8.58311977 3.47108839 4.30171677 2.212302 0 1 C0 0.67 0 0.34 0 0 Z " fill="#7197C7" transform="translate(236,109)"/>
<path d="M0 0 C0 4.62 0 9.24 0 14 C0.99 14.33 1.98 14.66 3 15 C-0.38188161 14.69255622 -2.58993491 14.27337672 -5.4375 12.375 C-7 10 -7 10 -6.9375 6.4375 C-5.68804798 1.85617591 -4.90008768 0 0 0 Z " fill="#64A3D4" transform="translate(188,250)"/>
<path d="M0 0 C2 0.3125 2 0.3125 4 1 C4.33 1.66 4.66 2.32 5 3 C6.9127605 3.79179388 8.85707774 4.50785739 10.8125 5.1875 C19.3700169 8.37300739 27.70589118 12.23198181 34 19 C30.03262818 18.35948455 27.26351243 16.36577545 23.9375 14.1875 C16.16007205 9.25643897 8.40394063 5.16409417 -1 6 C-1.042721 4.33388095 -1.04063832 2.66617115 -1 1 C-0.67 0.67 -0.34 0.34 0 0 Z " fill="#7BACD5" transform="translate(232,146)"/>
<path d="M0 0 C0.66 0.33 1.32 0.66 2 1 C-2.39278028 8.61615147 -7.38132787 14.88474304 -13.44921875 21.17578125 C-16.00635248 24.00703345 -17.97150418 26.78386025 -20 30 C-21.65 29.67 -23.3 29.34 -25 29 C-25 27.68 -25 26.36 -25 25 C-23.515 24.7525 -23.515 24.7525 -22 24.5 C-11.64693549 21.49427159 -5.13047802 8.67405142 0 0 Z " fill="#7AB0D9" transform="translate(293,268)"/>
<path d="M0 0 C3.38522101 2.7369872 4.77532273 6.47478382 6.4375 10.375 C6.74316895 11.08454834 7.04883789 11.79409668 7.36376953 12.52514648 C12.14944586 23.85784106 15.21658039 34.65491755 15 47 C14.67 47 14.34 47 14 47 C13.87995605 46.38705078 13.75991211 45.77410156 13.63623047 45.14257812 C10.84456694 31.09759548 7.8461982 17.54588343 1.3203125 4.69140625 C0 2 0 2 0 0 Z " fill="#6D88BD" transform="translate(319,168)"/>
<path d="M0 0 C0.66 0.33 1.32 0.66 2 1 C0.96552734 1.94746094 0.96552734 1.94746094 -0.08984375 2.9140625 C-9.9651222 12.31521921 -16.65565489 22.9489324 -23 35 C-23.99 34.67 -24.98 34.34 -26 34 C-25.01 33.505 -25.01 33.505 -24 33 C-22.97537097 30.95970371 -22.00622192 28.89145708 -21.0625 26.8125 C-18.39614144 21.21757763 -15.27531344 16.30291398 -11.4375 11.4375 C-10.99092041 10.86684814 -10.54434082 10.29619629 -10.08422852 9.70825195 C-7.05157321 5.96958165 -3.77951858 2.98032522 0 0 Z " fill="#83BCE0" transform="translate(156,159)"/>
<path d="M0 0 C2 2 2 2 2.1953125 4.8203125 C2.16050781 6.45613281 2.16050781 6.45613281 2.125 8.125 C2.10695312 9.22070312 2.08890625 10.31640625 2.0703125 11.4453125 C2.04710937 12.28835938 2.02390625 13.13140625 2 14 C2.99 14.33 3.98 14.66 5 15 C2.07238473 14.67470941 -0.32615294 14.40430823 -2.875 12.875 C-4.70099685 9.83167192 -4.42460581 7.45750445 -4 4 C-2 1.5625 -2 1.5625 0 0 Z " fill="#66A7D6" transform="translate(243,250)"/>
<path d="M0 0 C1.9375 0.3125 1.9375 0.3125 4 1 C4.33 1.99 4.66 2.98 5 4 C4.67 4.66 4.34 5.32 4 6 C2.88625 6.12181641 2.88625 6.12181641 1.75 6.24609375 C-2.1564524 7.3170388 -3.74154566 9.90724195 -6 13.0625 C-6.43425293 13.64797607 -6.86850586 14.23345215 -7.31591797 14.83666992 C-10.43896439 19.09116149 -13.32336716 23.44972418 -16 28 C-16.33 27.34 -16.66 26.68 -17 26 C-13.49892094 19.16399479 -8.65758974 13.11441781 -3.69921875 7.2890625 C-1.95212526 4.93550667 -0.95983851 2.75770862 0 0 Z " fill="#749CCB" transform="translate(144,153)"/>
<path d="M0 0 C1.98 0.495 1.98 0.495 4 1 C4.144375 2.175625 4.28875 3.35125 4.4375 4.5625 C6.11412303 12.33706309 11.39911886 21.39911886 17 27 C16.67 27.99 16.34 28.98 16 30 C11.18777704 23.52031984 7.21559524 16.89445038 3.578125 9.6875 C2.1279072 6.76993867 2.1279072 6.76993867 -1 5 C-0.67 3.35 -0.34 1.7 0 0 Z " fill="#7FB3DA" transform="translate(113,265)"/>
<path d="M0 0 C2.0625 0.4375 2.0625 0.4375 4 1 C3.36781609 5.67816092 3.36781609 5.67816092 1.5 7.3125 C-0.33612548 9.37814116 -0.23787227 10.35535326 -0.4375 13.0625 C-0.623125 14.361875 -0.80875 15.66125 -1 17 C-3.0625 18.5 -3.0625 18.5 -5 19 C-5.66 18.34 -6.32 17.68 -7 17 C-6.75987738 14.51873298 -6.38339122 13.34697411 -4.51953125 11.66015625 C-2.6340383 9.60017038 -2.36347771 8.10159375 -1.875 5.375 C-1.08333333 1.08333333 -1.08333333 1.08333333 0 0 Z " fill="#6A9CCD" transform="translate(262,301)"/>
<path d="M0 0 C5.72521057 5.20473688 10.27989541 11.49608324 13.6875 18.4375 C15.09871176 21.19272297 16.39569287 22.3835335 19 24 C18.67 25.32 18.34 26.64 18 28 C16.35 27.67 14.7 27.34 13 27 C12.91363281 25.98164063 12.82726562 24.96328125 12.73828125 23.9140625 C11.92752155 19.61574917 10.54293079 17.03706123 8.1875 13.375 C7.50042969 12.28960937 6.81335938 11.20421875 6.10546875 10.0859375 C4.05733443 6.98982132 4.05733443 6.98982132 1.73828125 4.2265625 C0 2 0 2 0 0 Z " fill="#667FB8" transform="translate(290,161)"/>
<path d="M0 0 C2.125 0.9375 2.125 0.9375 4 2 C3.67 3.32 3.34 4.64 3 6 C-1.00203816 5.88088488 -5.00388006 5.75658828 -9.00561523 5.62768555 C-10.3642958 5.58462706 -11.72302041 5.54293435 -13.08178711 5.50268555 C-15.04552303 5.44427107 -17.00909364 5.38038197 -18.97265625 5.31640625 C-20.74008179 5.26141968 -20.74008179 5.26141968 -22.54321289 5.20532227 C-26.07288765 4.9956707 -29.50818611 4.5478502 -33 4 C-33 3.67 -33 3.34 -33 3 C-22.77 3 -12.54 3 -2 3 C-2 2.34 -2 1.68 -2 1 C-1.34 0.67 -0.68 0.34 0 0 Z " fill="#5C81BB" transform="translate(231,331)"/>
<path d="M0 0 C1.32 0 2.64 0 4 0 C4 1.65 4 3.3 4 5 C1 6 1 6 -1.0625 6.5 C-3.06256771 6.94398007 -3.06256771 6.94398007 -5 8 C-5.72159424 9.64363134 -6.39351421 11.31050386 -7 13 C-8.65 12.67 -10.3 12.34 -12 12 C-11.74609375 10.140625 -11.74609375 10.140625 -11 8 C-9.22265625 6.734375 -9.22265625 6.734375 -7.0625 5.75 C-5.99708984 5.24726563 -5.99708984 5.24726563 -4.91015625 4.734375 C-3 4 -3 4 -1 4 C-0.67 2.68 -0.34 1.36 0 0 Z " fill="#6AA0D0" transform="translate(164,138)"/>
<path d="M0 0 C2.125 0.375 2.125 0.375 4 1 C3.67 2.65 3.34 4.3 3 6 C1.205625 6.0309375 1.205625 6.0309375 -0.625 6.0625 C-6.15222145 6.61786675 -10.50709492 9.01546522 -15.30126953 11.64868164 C-16.84089969 12.48352139 -18.41826021 13.24799091 -20 14 C-20.66 13.67 -21.32 13.34 -22 13 C-10.47860719 6.1639736 -10.47860719 6.1639736 -5.375 3.6875 C-2.02305827 2.23387679 -2.02305827 2.23387679 0 0 Z " fill="#6F90C2" transform="translate(175,111)"/>
<path d="M0 0 C2.125 0.9375 2.125 0.9375 4 2 C3.67 3.32 3.34 4.64 3 6 C1.98808594 6.20367187 0.97617188 6.40734375 -0.06640625 6.6171875 C-4.72289743 7.94761355 -7.55850264 10.78091766 -10.9375 14.125 C-11.52595703 14.68832031 -12.11441406 15.25164062 -12.72070312 15.83203125 C-14.1576054 17.21052286 -15.58030727 18.60379091 -17 20 C-17 17 -17 17 -15.4609375 15.1328125 C-14.77257812 14.47023437 -14.08421875 13.80765625 -13.375 13.125 C-12.64925781 12.42246094 -11.92351562 11.71992188 -11.17578125 10.99609375 C-9.34877797 9.31997405 -7.4969417 7.73599469 -5.5625 6.1875 C-2.77672016 4.19052724 -2.77672016 4.19052724 -2 1 C-1.34 0.67 -0.68 0.34 0 0 Z " fill="#698BC1" transform="translate(152,134)"/>
<path d="M0 0 C2.94378569 2.7888496 5.22637689 5.64939753 7.5 9 C12.29694005 15.73206928 18.0438002 21.31182919 24 27 C19.73059081 27 18.25794292 24.98528354 15.1875 22.19140625 C0 6.97678571 0 6.97678571 0 0 Z " fill="#81BDE1" transform="translate(129,275)"/>
<path d="M0 0 C1.65 0 3.3 0 5 0 C5.33 1.32 5.66 2.64 6 4 C2.20925463 4.88563089 -1.28695898 5.11681301 -5.17578125 5.09765625 C-6.33271484 5.09443359 -7.48964844 5.09121094 -8.68164062 5.08789062 C-9.87982422 5.07951172 -11.07800781 5.07113281 -12.3125 5.0625 C-13.53001953 5.05798828 -14.74753906 5.05347656 -16.00195312 5.04882812 C-19.00135226 5.03706578 -22.00065089 5.02062826 -25 5 C-25 4.67 -25 4.34 -25 4 C-23.17275391 3.90912109 -23.17275391 3.90912109 -21.30859375 3.81640625 C-19.68488723 3.73193597 -18.06118978 3.64729128 -16.4375 3.5625 C-15.23770508 3.50352539 -15.23770508 3.50352539 -14.01367188 3.44335938 C-9.28628494 3.19251844 -4.67523099 2.74678186 0 2 C0 1.34 0 0.68 0 0 Z " fill="#648CC2" transform="translate(232,321)"/>
<path d="M0 0 C1.65 0 3.3 0 5 0 C5 1.65 5 3.3 5 5 C4.34 5 3.68 5 3 5 C3.14179687 6.00160156 3.28359375 7.00320312 3.4296875 8.03515625 C4.68531267 18.62094005 4.68531267 18.62094005 2.73046875 22.5546875 C1.0625 24.4375 1.0625 24.4375 -2 27 C-2 24 -2 24 -0.54296875 22.296875 C1.60566387 19.09840417 1.56395767 15.98450828 1.6875 12.25 C1.72166016 11.55261719 1.75582031 10.85523438 1.79101562 10.13671875 C1.87308295 8.42502892 1.93822919 6.7125424 2 5 C1.34 5 0.68 5 0 5 C0 3.35 0 1.7 0 0 Z " fill="#6A9BCC" transform="translate(104,221)"/>
<path d="M0 0 C1.65 0.33 3.3 0.66 5 1 C4.34 9.25 3.68 17.5 3 26 C2.67 26 2.34 26 2 26 C1.98018066 25.41508789 1.96036133 24.83017578 1.93994141 24.22753906 C1.84446519 21.56791975 1.73487858 18.90906162 1.625 16.25 C1.5940625 15.32960937 1.563125 14.40921875 1.53125 13.4609375 C1.49257813 12.57148438 1.45390625 11.68203125 1.4140625 10.765625 C1.3826416 9.94868164 1.3512207 9.13173828 1.31884766 8.29003906 C1.1167288 5.94338502 1.1167288 5.94338502 -0.08837891 3.82714844 C-0.38921387 3.22418945 -0.69004883 2.62123047 -1 2 C-0.67 1.34 -0.34 0.68 0 0 Z " fill="#7F9ECA" transform="translate(311,208)"/>
<path d="M0 0 C1.65 0.33 3.3 0.66 5 1 C5 2.32 5 3.64 5 5 C5.59167969 5.25910156 6.18335938 5.51820313 6.79296875 5.78515625 C9.15831069 7.08714093 10.550917 8.40490423 12.3125 10.4375 C12.84488281 11.03433594 13.37726563 11.63117188 13.92578125 12.24609375 C14.45751953 13.11427734 14.45751953 13.11427734 15 14 C14.67 14.99 14.34 15.98 14 17 C12 16 12 16 11.25 14.3125 C8.90456855 9.97345182 5.56474699 6.74835726 1.125 4.625 C0.42375 4.41875 -0.2775 4.2125 -1 4 C-0.67 2.68 -0.34 1.36 0 0 Z " fill="#88BCDF" transform="translate(271,156)"/>
<path d="M0 0 C1.95161107 2.50868528 3.67488814 5.12878868 5.375 7.8125 C5.82488281 8.50537109 6.27476562 9.19824219 6.73828125 9.91210938 C7.83413388 11.60252035 8.91830308 13.30049595 10 15 C9.34 15.66 8.68 16.32 8 17 C7.63648438 16.3709375 7.27296875 15.741875 6.8984375 15.09375 C5.30056472 12.37326917 3.65564987 9.68566246 2 7 C1.54367187 6.21625 1.08734375 5.4325 0.6171875 4.625 C-1.47641692 1.37094056 -2.88617296 -0.59862089 -6.6015625 -1.9375 C-9.07655963 -2.43947125 -11.48387531 -2.80109686 -14 -3 C-14 -3.33 -14 -3.66 -14 -4 C-12.205625 -4.4021875 -12.205625 -4.4021875 -10.375 -4.8125 C-9.70210938 -4.96332031 -9.02921875 -5.11414063 -8.3359375 -5.26953125 C-4.63684617 -4.84271302 -2.46091191 -2.60588056 0 0 Z " fill="#7CA3CE" transform="translate(310,152)"/>
<path d="M0 0 C2.47999067 2.47999067 2.54722102 3.95418162 3.125 7.375 C3.37636719 8.80972656 3.37636719 8.80972656 3.6328125 10.2734375 C4 13 4 13 4 17 C4.66 17 5.32 17 6 17 C5.67 18.65 5.34 20.3 5 22 C3.68 22 2.36 22 1 22 C1.01160156 21.24976563 1.02320313 20.49953125 1.03515625 19.7265625 C1.0937829 13.07662583 0.81769308 6.59995127 0 0 Z " fill="#678DC2" transform="translate(301,202)"/>
<path d="M0 0 C3.03902523 3.32845621 3.94909471 6.81067211 5.05859375 11.07421875 C5.82814251 13.21151361 5.82814251 13.21151361 8.09765625 13.76953125 C8.72542969 13.84558594 9.35320312 13.92164063 10 14 C9.67 15.65 9.34 17.3 9 19 C7.35 18.67 5.7 18.34 4 18 C3.896875 16.824375 3.79375 15.64875 3.6875 14.4375 C3.32389977 11.42175691 2.69048317 8.95351945 1.4375 6.1875 C0 3 0 3 0 0 Z " fill="#6C9ACB" transform="translate(103,266)"/>
<path d="M0 0 C1.65 0 3.3 0 5 0 C5 1.65 5 3.3 5 5 C4.34 5 3.68 5 3 5 C3.06960938 5.80824219 3.13921875 6.61648438 3.2109375 7.44921875 C3.64788065 16.07364433 3.64788065 16.07364433 1.6640625 18.91015625 C0 20.25 0 20.25 -3 22 C-3.66 21.67 -4.32 21.34 -5 21 C-3.5459375 20.1028125 -3.5459375 20.1028125 -2.0625 19.1875 C0.32005008 17.25903593 0.94234929 16.25815916 1.62109375 13.21875 C1.85130638 10.47036542 1.99034134 7.7575482 2 5 C1.34 5 0.68 5 0 5 C0 3.35 0 1.7 0 0 Z " fill="#5C85BF" transform="translate(291,300)"/>
<path d="M0 0 C3.95286497 1.39848652 7.00854054 3.26132796 10.375 5.75 C11.81552734 6.81154297 11.81552734 6.81154297 13.28515625 7.89453125 C15.56480416 9.66248841 17.69166211 11.48670702 19.8125 13.4375 C22.71280158 16.02255141 25.04824711 16.80723157 29 17 C29 17.33 29 17.66 29 18 C25.5192664 18.50760698 23.21455566 18.83585233 20.24609375 16.79296875 C18.97113231 15.61714038 17.71205367 14.42397464 16.46484375 13.21875 C12.7574569 9.8815143 8.66766019 7.12646907 4.57202148 4.28955078 C3.03269504 3.21464553 1.51414791 2.11009158 0 1 C0 0.67 0 0.34 0 0 Z " fill="#6988BE" transform="translate(270,132)"/>
<path d="M0 0 C1.98 0 3.96 0 6 0 C5.01 0.495 5.01 0.495 4 1 C4 5.29 4 9.58 4 14 C3.01 14 2.02 14 1 14 C0.67 9.38 0.34 4.76 0 0 Z " fill="#5890C8" transform="translate(244,250)"/>
<path d="M0 0 C1.67542976 0.28604898 3.34385343 0.61781233 5 1 C4.67 2.32 4.34 3.64 4 5 C3.01 5 2.02 5 1 5 C0.7525 5.86625 0.505 6.7325 0.25 7.625 C-1.06778613 11.18302254 -2.80186822 13.9226155 -5 17 C-5.33 16.34 -5.66 15.68 -6 15 C-4.84749484 12.6995093 -3.48919357 10.56985017 -2.12890625 8.38671875 C-0.86138737 5.70694699 -0.87417503 3.92417221 -1 1 C-0.67 0.67 -0.34 0.34 0 0 Z " fill="#648FC4" transform="translate(304,264)"/>
<path d="M0 0 C1.32 0 2.64 0 4 0 C4.33 0.99 4.66 1.98 5 3 C4.67 3.66 4.34 4.32 4 5 C2.4221875 5.433125 2.4221875 5.433125 0.8125 5.875 C-3.26783394 7.07903297 -5.61213359 8.52107336 -9 11 C-9.66 10.67 -10.32 10.34 -11 10 C-9.71283353 8.99421411 -8.42011342 7.99553202 -7.125 7 C-6.40570313 6.443125 -5.68640625 5.88625 -4.9453125 5.3125 C-3 4 -3 4 -1 4 C-0.67 2.68 -0.34 1.36 0 0 Z " fill="#6492C7" transform="translate(281,310)"/>
<path d="M0 0 C0.33 0 0.66 0 1 0 C1.06058594 0.96421875 1.12117188 1.9284375 1.18359375 2.921875 C1.26738281 4.18515625 1.35117187 5.4484375 1.4375 6.75 C1.55931641 8.62945312 1.55931641 8.62945312 1.68359375 10.546875 C1.92515522 13.18317553 2.24283934 15.48037294 3 18 C1.35 18.33 -0.3 18.66 -2 19 C-2.33 17.68 -2.66 16.36 -3 15 C-2.01 14.67 -1.02 14.34 0 14 C0 9.38 0 4.76 0 0 Z " fill="#6594C8" transform="translate(306,287)"/>
<path d="M0 0 C0.66 0.33 1.32 0.66 2 1 C0.576875 2.3303125 0.576875 2.3303125 -0.875 3.6875 C-3.46748883 6.26164575 -4.9525021 8.43850715 -6 12 C-7.32 11.67 -8.64 11.34 -10 11 C-9.8125 8.625 -9.8125 8.625 -9 6 C-6.6875 4.9375 -6.6875 4.9375 -4 4 C-1.72808584 1.97959252 -1.72808584 1.97959252 0 0 Z " fill="#689DCE" transform="translate(225,138)"/>
<path d="M0 0 C1.36421031 2.72842061 0.87807211 4.60953318 0.5625 7.625 C0.46066406 8.62789063 0.35882813 9.63078125 0.25390625 10.6640625 C0.17011719 11.43492187 0.08632812 12.20578125 0 13 C-1.32 12.01 -2.64 11.02 -4 10 C-3.38461538 3.47692308 -3.38461538 3.47692308 -1.4375 1.0625 C-0.7259375 0.5365625 -0.7259375 0.5365625 0 0 Z " fill="#70B9E2" transform="translate(185,250)"/>
<path d="M0 0 C1.65 0.33 3.3 0.66 5 1 C5 2.32 5 3.64 5 5 C6.32 5.66 7.64 6.32 9 7 C8.67 7.66 8.34 8.32 8 9 C7.2575 8.54625 6.515 8.0925 5.75 7.625 C3.53069422 6.31359204 1.32032178 5.11719197 -1 4 C-0.67 2.68 -0.34 1.36 0 0 Z " fill="#6CA2D1" transform="translate(311,195)"/>
<path d="M0 0 C0.33 0.66 0.66 1.32 1 2 C-0.81817001 4.31459868 -1.75615543 4.95377187 -4.69921875 5.51171875 C-6.17841797 5.59873047 -6.17841797 5.59873047 -7.6875 5.6875 C-9.17830078 5.78611328 -9.17830078 5.78611328 -10.69921875 5.88671875 C-11.45847656 5.92410156 -12.21773438 5.96148437 -13 6 C-13.66 7.98 -14.32 9.96 -15 12 C-16 9 -16 9 -15.47265625 6.94921875 C-13.2840982 4.05242706 -10.89271134 3.74172808 -7.4375 2.8125 C-3.41015301 2.0011218 -3.41015301 2.0011218 0 0 Z " fill="#72A0CE" transform="translate(120,172)"/>
<path d="M0 0 C2 0.25 2 0.25 4 1 C4.33 1.99 4.66 2.98 5 4 C4.67 4.66 4.34 5.32 4 6 C1.6859378 6.73075648 -0.64828869 7.40138258 -3 8 C-1.125 1.125 -1.125 1.125 0 0 Z " fill="#648FC5" transform="translate(144,153)"/>
<path d="M0 0 C2.125 0.9375 2.125 0.9375 4 2 C3.67 3.32 3.34 4.64 3 6 C0.36 5.67 -2.28 5.34 -5 5 C-4.01 4.67 -3.02 4.34 -2 4 C-2 3.01 -2 2.02 -2 1 C-1.34 0.67 -0.68 0.34 0 0 Z " fill="#6F9ECD" transform="translate(231,331)"/>
<path d="M0 0 C0.33 0 0.66 0 1 0 C1.33 4.29 1.66 8.58 2 13 C0.68 12.01 -0.64 11.02 -2 10 C-2.46913089 5.62144505 -2.46943529 3.70415293 0 0 Z " fill="#6FB9E2" transform="translate(241,251)"/>
<path d="M0 0 C1.32 0.33 2.64 0.66 4 1 C3.67 1.33 3.34 1.66 3 2 C2.76572222 4.01594582 2.58663876 6.038474 2.4375 8.0625 C2.31181641 9.71958984 2.31181641 9.71958984 2.18359375 11.41015625 C2.12300781 12.26480469 2.06242188 13.11945313 2 14 C1.34 14 0.68 14 0 14 C0 9.38 0 4.76 0 0 Z " fill="#578FC7" transform="translate(188,250)"/>
<path d="M0 0 C1.65 0.33 3.3 0.66 5 1 C4.40072174 4.35595828 3.15377564 6.37801226 1 9 C-1.09230769 4.56923077 -1.09230769 4.56923077 -0.625 1.6875 C-0.41875 1.130625 -0.2125 0.57375 0 0 Z " fill="#659BCD" transform="translate(126,206)"/>
<path d="M0 0 C2.125 0.375 2.125 0.375 4 1 C3.67 2.65 3.34 4.3 3 6 C1.35 5.67 -0.3 5.34 -2 5 C-2 2 -2 2 0 0 Z " fill="#6C9CCD" transform="translate(175,111)"/>
<path d="M0 0 C1.65 1.32 3.3 2.64 5 4 C4.67 5.32 4.34 6.64 4 8 C2.35 7.67 0.7 7.34 -1 7 C-0.67 4.69 -0.34 2.38 0 0 Z " fill="#6296CA" transform="translate(129,249)"/>
<path d="M0 0 C2.0625 0.4375 2.0625 0.4375 4 1 C4 2.98 4 4.96 4 7 C1.525 6.01 1.525 6.01 -1 5 C-1 1 -1 1 0 0 Z " fill="#6597CA" transform="translate(283,184)"/>
<path d="M0 0 C1.65 0.33 3.3 0.66 5 1 C4.67 2.65 4.34 4.3 4 6 C2.35 5.67 0.7 5.34 -1 5 C-0.67 3.35 -0.34 1.7 0 0 Z " fill="#699DCE" transform="translate(118,153)"/>
<path d="M0 0 C2.125 0.9375 2.125 0.9375 4 2 C3.67 3.32 3.34 4.64 3 6 C1.35 6 -0.3 6 -2 6 C-2.33 5.34 -2.66 4.68 -3 4 C-2.67 3.01 -2.34 2.02 -2 1 C-1.34 0.67 -0.68 0.34 0 0 Z " fill="#6A9BCC" transform="translate(152,134)"/>
<path d="M0 0 C1.65 0 3.3 0 5 0 C5.5625 1.9375 5.5625 1.9375 6 4 C5 5 5 5 1.9375 5.0625 C0.4834375 5.0315625 0.4834375 5.0315625 -1 5 C-0.67 3.35 -0.34 1.7 0 0 Z " fill="#6C9DCD" transform="translate(245,307)"/>
<path d="M0 0 C2.125 0.9375 2.125 0.9375 4 2 C3.67 3.32 3.34 4.64 3 6 C1.35 6 -0.3 6 -2 6 C-2 4.35 -2 2.7 -2 1 C-1.34 0.67 -0.68 0.34 0 0 Z " fill="#6492C7" transform="translate(212,134)"/>
<path d="M0 0 C2.125 0.9375 2.125 0.9375 4 2 C3.67 3.32 3.34 4.64 3 6 C1.35 5.67 -0.3 5.34 -2 5 C-2 3.68 -2 2.36 -2 1 C-1.34 0.67 -0.68 0.34 0 0 Z " fill="#669BCD" transform="translate(270,292)"/>
<path d="M0 0 C2.0625 0.4375 2.0625 0.4375 4 1 C4 2.32 4 3.64 4 5 C2.68 5.33 1.36 5.66 0 6 C-0.38218767 4.34385343 -0.71395102 2.67542976 -1 1 C-0.67 0.67 -0.34 0.34 0 0 Z " fill="#669BCD" transform="translate(95,233)"/>
<path d="M0 0 C1.32 0.66 2.64 1.32 4 2 C3.67 3.32 3.34 4.64 3 6 C1.35 5.67 -0.3 5.34 -2 5 C-1.125 1.125 -1.125 1.125 0 0 Z " fill="#679BCC" transform="translate(305,183)"/>
<path d="M0 0 C2.125 0.9375 2.125 0.9375 4 2 C3.67 3.32 3.34 4.64 3 6 C1.35 5.67 -0.3 5.34 -2 5 C-2 3.68 -2 2.36 -2 1 C-1.34 0.67 -0.68 0.34 0 0 Z " fill="#649ACC" transform="translate(302,158)"/>
<path d="M0 0 C1.32 0 2.64 0 4 0 C4.33 1.32 4.66 2.64 5 4 C3.125 5.0625 3.125 5.0625 1 6 C0.34 5.67 -0.32 5.34 -1 5 C-0.67 3.35 -0.34 1.7 0 0 Z " fill="#679CCD" transform="translate(176,121)"/>
<path d="M0 0 C2.125 0.375 2.125 0.375 4 1 C4 2.32 4 3.64 4 5 C2.68 5.33 1.36 5.66 0 6 C-0.66 4.68 -1.32 3.36 -2 2 C-1.34 1.34 -0.68 0.68 0 0 Z " fill="#6398CB" transform="translate(148,310)"/>
<path d="M0 0 C2.0625 0.4375 2.0625 0.4375 4 1 C3.67 2.65 3.34 4.3 3 6 C1.68 5.67 0.36 5.34 -1 5 C-1 1 -1 1 0 0 Z " fill="#6499CC" transform="translate(147,265)"/>
<path d="M0 0 C1.67542976 0.28604898 3.34385343 0.61781233 5 1 C5 2.32 5 3.64 5 5 C3.35 5 1.7 5 0 5 C-0.5625 3.0625 -0.5625 3.0625 -1 1 C-0.67 0.67 -0.34 0.34 0 0 Z " fill="#6299CC" transform="translate(271,156)"/>
<path d="M0 0 C2.0625 0.4375 2.0625 0.4375 4 1 C3.67 2.65 3.34 4.3 3 6 C1.68 6 0.36 6 -1 6 C-1.042721 4.33388095 -1.04063832 2.66617115 -1 1 C-0.67 0.67 -0.34 0.34 0 0 Z " fill="#669ACC" transform="translate(232,146)"/>
<path d="M0 0 C1.98 0.495 1.98 0.495 4 1 C3.67 2.65 3.34 4.3 3 6 C1.68 5.67 0.36 5.34 -1 5 C-0.67 3.35 -0.34 1.7 0 0 Z " fill="#649BCD" transform="translate(255,335)"/>
<path d="M0 0 C0.99 0.33 1.98 0.66 3 1 C3 2.65 3 4.3 3 6 C1.35 5.67 -0.3 5.34 -2 5 C-2 3.68 -2 2.36 -2 1 C-1.34 0.67 -0.68 0.34 0 0 Z " fill="#649ACC" transform="translate(162,330)"/>
<path d="M0 0 C1.65 0.33 3.3 0.66 5 1 C4.67 2.32 4.34 3.64 4 5 C2.35 4.67 0.7 4.34 -1 4 C-0.67 2.68 -0.34 1.36 0 0 Z " fill="#6298CB" transform="translate(118,295)"/>
<path d="M0 0 C4.13621084 3.3810038 7.81316569 6.66590534 11 11 C7.20450741 10.45418801 5.69020705 8.94590705 3.25 6.0625 C2.63640625 5.35222656 2.0228125 4.64195312 1.390625 3.91015625 C0 2 0 2 0 0 Z " fill="#8EC7E6" transform="translate(146,282)"/>
<path d="M0 0 C1.98 0.495 1.98 0.495 4 1 C3.67 2.65 3.34 4.3 3 6 C1.68 5.67 0.36 5.34 -1 5 C-0.67 3.35 -0.34 1.7 0 0 Z " fill="#6098CC" transform="translate(113,265)"/>
<path d="M0 0 C1.98 0.495 1.98 0.495 4 1 C3.67 2.65 3.34 4.3 3 6 C1.68 5.67 0.36 5.34 -1 5 C-0.67 3.35 -0.34 1.7 0 0 Z " fill="#6397CA" transform="translate(114,159)"/>
<path d="M0 0 C0.99 0.33 1.98 0.66 3 1 C3 2.65 3 4.3 3 6 C1.35 5.67 -0.3 5.34 -2 5 C-2 3.68 -2 2.36 -2 1 C-1.34 0.67 -0.68 0.34 0 0 Z " fill="#659CCE" transform="translate(282,125)"/>
<path d="M0 0 C0.99 0.33 1.98 0.66 3 1 C3 2.65 3 4.3 3 6 C1.35 5.67 -0.3 5.34 -2 5 C-2 3.68 -2 2.36 -2 1 C-1.34 0.67 -0.68 0.34 0 0 Z " fill="#6298CC" transform="translate(165,124)"/>
<path d="M0 0 C2.5654594 2.5654594 2.54046087 4.47686668 3 8 C1.02 8.99 1.02 8.99 -1 10 C-1.125 3.375 -1.125 3.375 0 0 Z " fill="#4E75B5" transform="translate(250,253)"/>
<path d="M0 0 C0.99 0.33 1.98 0.66 3 1 C3 2.65 3 4.3 3 6 C1.35 5.67 -0.3 5.34 -2 5 C-2 3.68 -2 2.36 -2 1 C-1.34 0.67 -0.68 0.34 0 0 Z " fill="#5F97CB" transform="translate(96,216)"/>
<path d="M0 0 C5.67853635 1.41963409 9.53174216 4.39363961 14 8 C12.15234375 8.640625 12.15234375 8.640625 10 9 C7.5625 6.75 7.5625 6.75 5 4 C3.3497306 2.9731657 1.68756133 1.96432076 0 1 C0 0.67 0 0.34 0 0 Z " fill="#6B8EC2" transform="translate(262,139)"/>
<path d="M0 0 C1.65 0 3.3 0 5 0 C5 1.65 5 3.3 5 5 C3.35 4.67 1.7 4.34 0 4 C0 2.68 0 1.36 0 0 Z " fill="#5E95CA" transform="translate(105,208)"/>
<path d="M0 0 C0.66 0.33 1.32 0.66 2 1 C2.125 6.75 2.125 6.75 1 9 C0.34 9 -0.32 9 -1 9 C-1.09765625 2.84765625 -1.09765625 2.84765625 -1 1 C-0.67 0.67 -0.34 0.34 0 0 Z " fill="#4E6FB1" transform="translate(194,253)"/>
<path d="M0 0 C2.475 0.495 2.475 0.495 5 1 C4.67 2.32 4.34 3.64 4 5 C2.68 5 1.36 5 0 5 C0 3.35 0 1.7 0 0 Z " fill="#5B92C9" transform="translate(187,108)"/>
<path d="M0 0 C0.99 0 1.98 0 3 0 C3 1.65 3 3.3 3 5 C1.68 4.67 0.36 4.34 -1 4 C-0.67 2.68 -0.34 1.36 0 0 Z " fill="#64A3D3" transform="translate(315,286)"/>
<path d="M0 0 C0.99 0 1.98 0 3 0 C3 1.65 3 3.3 3 5 C2.01 5.33 1.02 5.66 0 6 C0 4.02 0 2.04 0 0 Z " fill="#618EC4" transform="translate(165,138)"/>
</svg>
