<?xml version="1.0" encoding="UTF-8"?>
<svg version="1.1" xmlns="http://www.w3.org/2000/svg" width="1050" height="481">
<path d="M0 0 C346.5 0 693 0 1050 0 C1050 158.73 1050 317.46 1050 481 C703.5 481 357 481 0 481 C0 322.27 0 163.54 0 0 Z " fill="#121212" transform="translate(0,0)"/>
<path d="M0 0 C5.28 0 10.56 0 16 0 C18.13418656 5.58044113 20.08900437 11.18792114 21.91796875 16.875 C22.18007645 17.68493408 22.44218414 18.49486816 22.7122345 19.3293457 C23.5390657 21.88567115 24.3633258 24.44281684 25.1875 27 C25.75178249 28.7461489 26.31623403 30.49224318 26.88085938 32.23828125 C28.25586006 36.49155898 29.62855747 40.7455737 31 45 C32.71114461 42.43328309 33.56729455 40.66446286 34.51220703 37.80395508 C34.7923465 36.96331009 35.07248596 36.1226651 35.3611145 35.25654602 C35.65702484 34.35333115 35.95293518 33.45011627 36.2578125 32.51953125 C36.56572723 31.59154221 36.87364197 30.66355316 37.19088745 29.70744324 C38.17315755 26.74384347 39.14914738 23.77821836 40.125 20.8125 C40.78995194 18.80259781 41.45531157 16.79283045 42.12109375 14.78320312 C43.7521302 9.85702065 45.3775373 4.9290126 47 0 C51.95 0 56.9 0 62 0 C63.81909248 5.26382203 65.63371353 10.5291569 67.44433594 15.79589844 C68.05999214 17.58472534 68.67683552 19.37314414 69.29492188 21.16113281 C70.18677568 23.74175494 71.07424905 26.3238492 71.9609375 28.90625 C72.37199234 30.09112 72.37199234 30.09112 72.79135132 31.29992676 C74.45324681 36.15673574 75.82052773 41.00341704 77 46 C80.38973821 38.51372709 83.01257971 31.0467952 85.21166992 23.14086914 C86.38708974 18.94166319 87.7421769 14.87750384 89.30859375 10.80761719 C90.16851427 8.55943516 90.93713083 6.28683937 91.6875 4 C92.120625 2.68 92.55375 1.36 93 0 C97.95 0 102.9 0 108 0 C106.57939372 6.93091776 104.64960996 13.56187867 102.4453125 20.28125 C102.10249237 21.33477661 101.75967224 22.38830322 101.40646362 23.47375488 C100.68404857 25.68973284 99.95949474 27.90501457 99.23291016 30.11962891 C98.12901328 33.48775497 97.03478949 36.8589171 95.94140625 40.23046875 C95.23495647 42.39341917 94.52794387 44.55618586 93.8203125 46.71875 C93.49725128 47.71588013 93.17419006 48.71301025 92.84133911 49.74035645 C90.88455991 55.67661759 88.63171668 61.32944218 86 67 C80.39 67 74.78 67 69 67 C64.05 52.81 59.1 38.62 54 24 C49.4343542 37.77614018 49.4343542 37.77614018 44.87524414 51.55444336 C44.30378612 53.27465588 43.7321056 54.99479452 43.16015625 56.71484375 C42.86298706 57.61658325 42.56581787 58.51832275 42.25964355 59.4473877 C41.97552612 60.29998169 41.69140869 61.15257568 41.39868164 62.03100586 C41.15219376 62.77491074 40.90570587 63.51881561 40.65174866 64.28526306 C40 66 40 66 39 67 C36.13732433 67.07325168 33.299281 67.09238205 30.4375 67.0625 C29.63119141 67.05798828 28.82488281 67.05347656 27.99414062 67.04882812 C25.99606244 67.03700518 23.99802217 67.01906914 22 67 C18.85675843 59.46556265 16.19999568 51.82251887 13.671875 44.0625 C13.08107147 42.25966553 13.08107147 42.25966553 12.47833252 40.42041016 C11.6532172 37.89975974 10.829402 35.37873071 10.0078125 32.85693359 C8.95403094 29.62301696 7.89458146 26.39098981 6.83347702 23.1594696 C5.81836166 20.06559866 4.80779391 16.9702442 3.796875 13.875 C3.41569519 12.71363525 3.03451538 11.55227051 2.64178467 10.35571289 C2.2943219 9.28699951 1.94685913 8.21828613 1.58886719 7.1171875 C1.28116394 6.17472168 0.97346069 5.23225586 0.65643311 4.26123047 C0 2 0 2 0 0 Z " fill="#FCFCFC" transform="translate(258,292)"/>
<path d="M0 0 C4.29 0 8.58 0 13 0 C16.09558256 3.47556942 17.62761817 5.74773522 19.5625 9.8125 C20.62686498 11.82338779 21.69464946 13.83246888 22.765625 15.83984375 C23.29349609 16.86319824 23.82136719 17.88655273 24.36523438 18.94091797 C26.93256056 23.74506926 29.85961387 28.30126731 32.8125 32.875 C33.81939328 34.45548532 34.82594206 36.0361902 35.83203125 37.6171875 C36.55419394 38.74510782 37.27664119 39.8728464 38 41 C38.54414551 40.07775635 39.08829102 39.1555127 39.64892578 38.20532227 C41.692763 34.74287422 43.73994836 31.28241546 45.78808594 27.82250977 C46.66951654 26.33247998 47.55007098 24.8419315 48.4296875 23.35083008 C50.52379901 19.80154904 52.63097981 16.26241767 54.77441406 12.74267578 C56.13303611 10.50257773 57.33805662 8.31364596 58.49902344 5.95654297 C59.8046875 3.46484375 59.8046875 3.46484375 63 0 C67.29 0 71.58 0 76 0 C76 22.11 76 44.22 76 67 C71.38 67 66.76 67 62 67 C61.34 54.79 60.68 42.58 60 30 C55.94573339 36.87919609 55.94573339 36.87919609 51.89379883 43.75976562 C50.80605591 45.6029942 49.71286225 47.44301243 48.61547852 49.28051758 C47.59302181 51.00171227 46.58618117 52.73236327 45.60131836 54.4753418 C45.18116455 55.19890869 44.76101074 55.92247559 44.328125 56.66796875 C43.97266602 57.29727295 43.61720703 57.92657715 43.25097656 58.57495117 C41.60054131 60.45504301 40.38489739 60.57457098 37.9375 60.8125 C35.0253699 60.74906746 34.18204591 60.18775865 32.1328125 58.07421875 C29.19203427 53.83540471 26.56017065 49.44084111 23.9375 45 C23.40833984 44.11054688 22.87917969 43.22109375 22.33398438 42.3046875 C21.34716721 40.64554697 20.36187243 38.98549924 19.37866211 37.32421875 C17.92751722 34.87780485 16.46344539 32.43907565 15 30 C14.67 42.21 14.34 54.42 14 67 C9.38 67 4.76 67 0 67 C0 44.89 0 22.78 0 0 Z " fill="#FCFCFC" transform="translate(519,292)"/>
<path d="M0 0 C5.78696817 4.28746586 8.76767837 9.21374225 11 16 C11 19.63 11 23.26 11 27 C-1.87 27.33 -14.74 27.66 -28 28 C-24.94364964 33.09391726 -23.48877243 35.17040919 -18 37 C-12.11417896 37.49879839 -8.85721488 36.83947883 -3.859375 33.6796875 C-2 33 -2 33 0.0625 33.71875 C2.73162687 35.48381777 4.80602982 37.68414259 7 40 C5.63166868 44.10499396 3.71196951 44.86905454 0 47 C-9.59402505 50.23639981 -20.47689472 50.72058549 -29.78125 46.33203125 C-36.45896252 42.32305243 -41.29149431 37.78451213 -43.546875 30.1484375 C-45.23870705 22.12682003 -44.25001394 14.98216575 -40 8 C-31.14854272 -5.22481043 -13.53357217 -7.92781177 0 0 Z " fill="#FAFAFA" transform="translate(496,311)"/>
<path d="M0 0 C4.49386088 4.49386088 6.04981515 8.63565393 6.23852539 14.88378906 C6.23836789 16.38607701 6.23276769 17.88837107 6.22265625 19.390625 C6.2212413 20.18402283 6.21982635 20.97742065 6.21836853 21.79486084 C6.21278415 24.32161272 6.20023454 26.84827504 6.1875 29.375 C6.18248298 31.09114455 6.17792043 32.80729049 6.17382812 34.5234375 C6.16281984 38.72399269 6.14556596 42.92448117 6.125 47.125 C1.505 47.125 -3.115 47.125 -7.875 47.125 C-8.37 45.145 -8.37 45.145 -8.875 43.125 C-9.638125 43.764375 -10.40125 44.40375 -11.1875 45.0625 C-15.34802195 48.2554587 -18.56284862 48.30950925 -23.6875 48.375 C-25.49154297 48.41367187 -25.49154297 48.41367187 -27.33203125 48.453125 C-32.60552407 47.96473096 -36.64509599 45.94397072 -40.25 42.0625 C-43.24884319 38.33762109 -43.64530837 35.19046035 -43.32421875 30.48828125 C-42.51118803 26.21103268 -40.72562023 23.48884571 -37.2265625 20.91015625 C-30.78635258 16.95884842 -24.85938108 16.98763066 -17.5625 17.0625 C-16.72654297 17.06701172 -15.89058594 17.07152344 -15.02929688 17.07617188 C-12.97783351 17.08789452 -10.92640727 17.10582797 -8.875 17.125 C-10.47647465 12.32329598 -10.47647465 12.32329598 -13.73828125 8.7109375 C-21.74996244 6.51394997 -28.77000519 8.19532386 -35.875 12.125 C-36.76934157 10.72046357 -37.63993192 9.30078131 -38.5 7.875 C-38.98726562 7.08609375 -39.47453125 6.2971875 -39.9765625 5.484375 C-40.875 3.125 -40.875 3.125 -40.3828125 0.96875 C-31.97875813 -9.30771027 -9.91346806 -6.46530526 0 0 Z " fill="#FAFAFA" transform="translate(649.875,311.875)"/>
<path d="M0 0 C-0.61651583 1.6490302 -1.24347742 3.29415841 -1.875 4.9375 C-2.39707031 6.31228516 -2.39707031 6.31228516 -2.9296875 7.71484375 C-4 10 -4 10 -6 11 C-7.8125 10.44140625 -7.8125 10.44140625 -10 9.5625 C-15.54483727 7.60971402 -21.76288141 6.56066788 -27.29296875 9.01953125 C-28.13794922 9.50486328 -28.13794922 9.50486328 -29 10 C-29 11.32 -29 12.64 -29 14 C-25.10859482 15.71485652 -21.3607775 16.59279804 -17.1875 17.375 C-10.64929069 18.73884031 -5.19835962 20.21433194 -0.0625 24.6875 C1.88836852 28.93350796 2.79479877 33.45664393 1.375 38 C-1.41134698 43.38693749 -5.45974499 46.13244362 -11.1796875 48.0859375 C-15.34251228 49.08195079 -19.05528933 49.34427742 -23.3125 49.3125 C-24.05580566 49.30976074 -24.79911133 49.30702148 -25.56494141 49.30419922 C-32.71908245 49.16874541 -38.97717722 48.01521519 -45 44 C-44.43454163 40.04179141 -43.19097652 37.3340947 -41 34 C-38.68567299 34.53407546 -36.55802433 35.1704393 -34.3359375 36.02734375 C-30.499058 37.1460592 -27.24061737 37.23087628 -23.25 37.1875 C-21.93515625 37.18105469 -20.6203125 37.17460937 -19.265625 37.16796875 C-16.11526817 37.22458354 -16.11526817 37.22458354 -14 36 C-14.495 33.525 -14.495 33.525 -15 31 C-16.27875 30.76925781 -17.5575 30.53851563 -18.875 30.30078125 C-20.58350073 29.97222342 -22.29182501 29.64274716 -24 29.3125 C-24.83917969 29.16361328 -25.67835938 29.01472656 -26.54296875 28.86132812 C-32.35954408 27.71153998 -37.48082502 25.97850775 -42 22 C-44.84031865 17.23165817 -44.83403405 12.40209208 -44 7 C-41.76286946 2.0143948 -37.9039412 -0.35133299 -33 -2.4375 C-21.52658008 -6.02877371 -11.03577533 -4.10633501 0 0 Z " fill="#F9F9F9" transform="translate(445,311)"/>
<path d="M0 0 C2.23038503 2.23038503 3.71613281 4.30726562 5.125 7.125 C5.125 7.785 5.125 8.445 5.125 9.125 C3.5524835 10.01929374 1.96646259 10.88987427 0.375 11.75 C-0.50671875 12.23726563 -1.3884375 12.72453125 -2.296875 13.2265625 C-4.875 14.125 -4.875 14.125 -7.02734375 13.40625 C-8.60848441 12.30981419 -10.15232007 11.15991372 -11.6875 10 C-15.52939092 7.74006417 -17.48326675 7.49760954 -21.875 8.125 C-26.20981226 10.20904435 -28.79754771 12.44679844 -30.46875 17.0625 C-31.5447144 22.5250885 -30.90396751 27.49856748 -27.9375 32.1875 C-24.09090496 35.80096807 -20.67409905 35.45131937 -15.578125 35.41796875 C-11.98820749 35.02888809 -10.28263587 33.76563289 -7.875 31.125 C-7.215 30.465 -6.555 29.805 -5.875 29.125 C-2.245 31.105 1.385 33.085 5.125 35.125 C2.86282772 40.78043071 2.86282772 40.78043071 -0.6875 43.3125 C-1.35394531 43.80105469 -2.02039063 44.28960937 -2.70703125 44.79296875 C-9.95481217 49.24610982 -17.6629606 48.78163889 -25.875 48.125 C-29.25337967 47.25331208 -31.93072445 45.97203 -34.875 44.125 C-35.50792969 43.78597656 -36.14085937 43.44695312 -36.79296875 43.09765625 C-42.26733593 39.81770491 -45.09110537 35.18395488 -46.875 29.125 C-47.91486681 21.1865046 -47.97958653 13.81312979 -43.4296875 6.98828125 C-32.64240537 -5.94019507 -14.37775248 -9.37679509 0 0 Z " fill="#FAFAFA" transform="translate(784.875,311.875)"/>
<path d="M0 0 C4.95 0 9.9 0 15 0 C15 4.29 15 8.58 15 13 C19.29 13 23.58 13 28 13 C28 16.63 28 20.26 28 24 C23.71 24 19.42 24 15 24 C15.08670905 28.10522522 15.19356706 32.20819147 15.3125 36.3125 C15.33505859 37.47974609 15.35761719 38.64699219 15.38085938 39.84960938 C15.4340332 41.52700195 15.4340332 41.52700195 15.48828125 43.23828125 C15.51446533 44.26993408 15.54064941 45.30158691 15.56762695 46.36450195 C15.79939093 49.01569261 15.79939093 49.01569261 17.34448242 50.84448242 C19.87777843 52.61267148 21.99379281 52.25051727 25 52 C25.99 51.67 26.98 51.34 28 51 C31 57.5 31 57.5 31 62 C24.86348459 64.87757502 18.64561761 64.74256901 12 64 C7.37077801 62.2448116 3.41564907 59.40500713 1 55 C-0.11972093 51.5476491 -0.11469965 48.31632669 -0.09765625 44.703125 C-0.09443359 43.49785156 -0.09121094 42.29257812 -0.08789062 41.05078125 C-0.07951172 39.79652344 -0.07113281 38.54226563 -0.0625 37.25 C-0.05798828 35.98027344 -0.05347656 34.71054687 -0.04882812 33.40234375 C-0.03704556 30.26818164 -0.02059416 27.13411459 0 24 C-2.64 24 -5.28 24 -8 24 C-8 20.37 -8 16.74 -8 13 C-5.36 13 -2.72 13 0 13 C0 8.71 0 4.42 0 0 Z " fill="#FDFDFD" transform="translate(672,296)"/>
<path d="M0 0 C7.98633345 2.47851728 12.31077592 11.87759501 16.5625 18.625 C17.16384766 19.53636719 17.76519531 20.44773438 18.38476562 21.38671875 C22.60573789 28.08805615 22.60573789 28.08805615 22.6953125 32.91015625 C21.59537019 36.21399756 20.30962489 39.05149752 18.5625 42.0625 C18.01464844 43.02027344 17.46679688 43.97804687 16.90234375 44.96484375 C16.48082031 45.67769531 16.05929687 46.39054687 15.625 47.125 C14.635 47.125 13.645 47.125 12.625 47.125 C11.23046875 45.39672852 11.23046875 45.39672852 9.8125 43.00390625 C9.03519531 41.72483398 9.03519531 41.72483398 8.2421875 40.41992188 C7.70851563 39.51822266 7.17484375 38.61652344 6.625 37.6875 C5.5703884 35.91325609 4.50822548 34.1434725 3.4375 32.37890625 C2.96957031 31.58814697 2.50164063 30.7973877 2.01953125 29.98266602 C0.67586125 27.82592765 0.67586125 27.82592765 -2.375 27.125 C-2.71144531 28.12080078 -2.71144531 28.12080078 -3.0546875 29.13671875 C-4.78369847 33.05001281 -7.09203095 36.41323157 -9.5 39.9375 C-9.96792969 40.63037109 -10.43585937 41.32324219 -10.91796875 42.03710938 C-12.06612437 43.73591105 -13.21999367 45.43084864 -14.375 47.125 C-17.7864243 46.5213471 -18.29951632 46.21478854 -20.68359375 43.37890625 C-23.08280644 39.51434147 -25.10585614 35.73123337 -25.375 31.125 C-23.66744222 25.07894277 -19.64312596 20.04158882 -15.88134766 15.11035156 C-13.93964641 12.5512082 -12.2016891 9.87094506 -10.4375 7.1875 C-7.54166994 2.9881761 -5.30167922 0.19635849 0 0 Z " fill="#568FC6" transform="translate(527.375,130.875)"/>
<path d="M0 0 C4.95 0 9.9 0 15 0 C15 16.83 15 33.66 15 51 C10.05 51 5.1 51 0 51 C0 34.17 0 17.34 0 0 Z " fill="#FBFBFB" transform="translate(712,308)"/>
<path d="M0 0 C4.95 0 9.9 0 15 0 C15 16.83 15 33.66 15 51 C10.05 51 5.1 51 0 51 C0 34.17 0 17.34 0 0 Z " fill="#FEFEFE" transform="translate(375,308)"/>
<path d="M0 0 C3.7733577 1.09770406 5.28274379 1.72477055 7.4375 5 C8.85392791 11.18077634 5.99447979 15.13954902 2.78125 20.328125 C2.41773438 20.89724609 2.05421875 21.46636719 1.6796875 22.05273438 C0.23876607 24.31153732 -1.17738935 26.58509441 -2.59375 28.859375 C-4.68442865 32.20318992 -6.77925045 35.54420731 -8.890625 38.875 C-9.3330957 39.57367188 -9.77556641 40.27234375 -10.23144531 40.9921875 C-11.60068969 43.05760676 -13.05695193 45.03230933 -14.5625 47 C-16.359375 46.859375 -16.359375 46.859375 -18.5625 46 C-20.265625 43.453125 -20.265625 43.453125 -21.8125 40.25 C-22.33328125 39.20328125 -22.8540625 38.1565625 -23.390625 37.078125 C-24.59485905 33.91500356 -24.9124603 32.32659921 -24.5625 29 C-23.1730957 26.20092773 -23.1730957 26.20092773 -21.23828125 23.18359375 C-20.18930664 21.54293945 -20.18930664 21.54293945 -19.11914062 19.86914062 C-18.75022705 19.30557861 -18.38131348 18.7420166 -18.0012207 18.16137695 C-16.88203842 16.44827353 -15.78472766 14.72260152 -14.68945312 12.99414062 C-6.2950083 0 -6.2950083 0 0 0 Z " fill="#568FC5" transform="translate(576.5625,131)"/>
<path d="M0 0 C7.53124162 2.68972915 11.34879591 10.90793768 15.25 17.5 C16.20274934 19.088767 17.15585944 20.67731774 18.109375 22.265625 C18.52155273 22.95946289 18.93373047 23.65330078 19.35839844 24.36816406 C20.3620751 26.02264219 21.4265921 27.63988814 22.5 29.25 C22.5 36.17025458 18.94493461 41.42416257 15.5 47.25 C11.12470203 45.74505696 9.29646705 42.41596 6.9375 38.6875 C6.06395582 37.33063018 5.19025155 35.97386341 4.31640625 34.6171875 C3.63408936 33.54936035 3.63408936 33.54936035 2.93798828 32.45996094 C1.46534046 30.19673377 -0.05831202 27.97612351 -1.59765625 25.7578125 C-2.60686483 24.27610569 -3.61598158 22.79433632 -4.625 21.3125 C-5.1104126 20.62792725 -5.5958252 19.94335449 -6.09594727 19.23803711 C-9.36903534 14.34942809 -10.24224402 11.13805344 -9.5 5.25 C-6.44681358 1.60106989 -4.77117922 0.34079852 0 0 Z " fill="#568FC5" transform="translate(478.5,130.75)"/>
<path d="M0 0 C2.475 0.495 2.475 0.495 5 1 C5.33 1.99 5.66 2.98 6 4 C7.43991037 5.99963019 7.43991037 5.99963019 10 7 C14.00012101 6.36506016 17.70726474 5.40989167 21.5625 4.1875 C37.8254227 -0.40854337 57.20355386 0.01791389 73 6 C74.16144531 6.4125 75.32289063 6.825 76.51953125 7.25 C90.26726928 12.58539558 101.07427965 21.250948 111 32 C110.505 32.99 110.505 32.99 110 34 C109.28714844 33.21753906 108.57429687 32.43507812 107.83984375 31.62890625 C106.87322852 30.60598334 105.90573344 29.58389135 104.9375 28.5625 C104.47150391 28.04623047 104.00550781 27.52996094 103.52539062 26.99804688 C99.88134254 23.20526214 97.21809669 22.15775641 92 22 C90.783125 22.268125 89.56625 22.53625 88.3125 22.8125 C83.22273753 23.59104875 79.79265731 21.01653657 75.4375 18.64453125 C71.52092681 16.77080703 67.69468404 15.57014062 63.5 14.5 C62.81744141 14.31606689 62.13488281 14.13213379 61.43164062 13.94262695 C58.54903634 13.24671465 56.50607083 12.83130972 53.65625 13.78125 C50.44616636 16.14338702 49.35694198 18.31687176 48 22 C46.68 21.67 45.36 21.34 44 21 C44.1875 19.1875 44.1875 19.1875 45 17 C47.375 15.4375 47.375 15.4375 50 14 C50.45375 13.443125 50.9075 12.88625 51.375 12.3125 C54.06203959 10.14219879 56.63701917 10.80773329 60 11 C62.71006768 11.57123976 65.30959178 12.3807422 67.9375 13.25 C68.64334229 13.47453857 69.34918457 13.69907715 70.07641602 13.93041992 C73.7207128 15.12270807 77.08465105 16.42652247 80.4375 18.3125 C84.83095613 20.3936108 88.23341849 20.39721513 93 20 C83.59328417 9.56335178 65.49729223 4.7754614 51.91503906 3.859375 C38.47714235 3.2921358 27.05321289 4.86065682 14.31640625 9.27734375 C11 10 11 10 8.671875 9.13671875 C8.03765625 8.65847656 7.4034375 8.18023437 6.75 7.6875 C4.36690032 5.94783723 2.84999202 4.94999734 0 4 C0 2.68 0 1.36 0 0 Z " fill="#3F618C" transform="translate(480,67)"/>
<path d="M0 0 C2.3125 -0.3125 2.3125 -0.3125 5 0 C6.04349839 1.63978318 7.03182008 3.31464976 8 5 C9.17232448 6.12220135 10.38612953 7.20172498 11.625 8.25 C30.02637325 23.96504139 44.46995881 46.41353268 47 71 C47.29651808 75.89719262 47.40259591 80.7819178 47.4375 85.6875 C47.4478125 86.88673096 47.458125 88.08596191 47.46875 89.3215332 C47.35518162 100.83847143 45.27994671 111.80013321 41 122.5 C40.7525 123.1496875 40.505 123.799375 40.25 124.46875 C38.71452961 128.43538185 36.91792428 132.20737227 35 136 C34.30028027 137.98867713 33.62335603 139.98608051 33 142 C31.68 141.34 30.36 140.68 29 140 C29.93360818 137.91733561 30.68128448 136.28738113 32.390625 134.74609375 C44.16908775 121.96703344 45.54450793 96.20569129 45.08886719 80.03417969 C44.33012147 62.66640673 38.4231705 46.98294894 30 32 C29.38253906 30.86175781 28.76507812 29.72351563 28.12890625 28.55078125 C26.27621895 25.54257172 24.73489184 23.24063428 22 21 C18.80642222 20.53951081 16.05774084 20.73719869 12.85546875 21.078125 C9.25725756 20.97967873 8.22019103 20.04534898 5.75 17.5 C4.8001534 16.36018408 3.87048651 15.20151659 3 14 C3.99 14 4.98 14 6 14 C6.53625 14.66 7.0725 15.32 7.625 16 C11.16482992 18.98090941 14.54803614 18.34245876 19 18 C17.41984377 16.39270369 15.83574348 14.78928424 14.25 13.1875 C12.92742188 11.84751953 12.92742188 11.84751953 11.578125 10.48046875 C7.90913053 6.95045134 4.79477394 4.73144614 0 3 C0 2.01 0 1.02 0 0 Z " fill="#384D7E" transform="translate(580,68)"/>
<path d="M0 0 C3.0625 1.5625 3.0625 1.5625 5 4 C5.79082445 8.3495345 5.50272587 10.23780272 3.0625 13.9375 C-0.54109294 16.36440953 -2.65124908 16.68016437 -6.91015625 16.41796875 C-9 16 -9 16 -11.5 14.375 C-13.35921047 11.43125008 -13.9288308 9.48729073 -14 6 C-10.90703115 -0.6277904 -6.79931648 -0.82060716 0 0 Z " fill="#F9F9F9" transform="translate(724,284)"/>
<path d="M0 0 C3.50368509 2.43112843 4.75445216 3.82137038 5.625 8 C4.75445216 12.17862962 3.50368509 13.56887157 0 16 C-4.34260644 16.88861164 -7.74859362 16.81341415 -11.5 14.375 C-13.35921047 11.43125008 -13.9288308 9.48729073 -14 6 C-10.95709378 -0.52051332 -6.75318891 -1.02462177 0 0 Z " fill="#FAFAFA" transform="translate(387,284)"/>
<path d="M0 0 C0 3 0 3 -2.265625 5.59375 C-3.25278939 6.57027111 -4.2479569 7.53875255 -5.25 8.5 C-5.98669922 9.22896484 -5.98669922 9.22896484 -6.73828125 9.97265625 C-8.81748149 12.00750022 -10.85151302 13.89765741 -13.25 15.55078125 C-15.47972682 17.39727377 -15.9512263 18.93173072 -16.75 21.6875 C-17.11351562 22.89986328 -17.11351562 22.89986328 -17.484375 24.13671875 C-17.65453125 24.75160156 -17.8246875 25.36648437 -18 26 C-17.21625 25.484375 -16.4325 24.96875 -15.625 24.4375 C-14.75875 23.963125 -13.8925 23.48875 -13 23 C-12.34 23.33 -11.68 23.66 -11 24 C-15.04152276 26.99006968 -19.06877107 29.68067366 -23.7265625 31.60546875 C-32.53633632 35.05458862 -32.53633632 35.05458862 -38.3125 42.3125 C-38.61800781 43.15425781 -38.92351562 43.99601562 -39.23828125 44.86328125 C-42.2766394 48.54838526 -46.42619348 48.53876656 -51 49 C-55.87915166 49.30580872 -60.73693075 49.38113617 -65.625 49.375 C-66.28786011 49.37512085 -66.95072021 49.3752417 -67.63366699 49.37536621 C-81.17409663 49.34020901 -92.52303276 47.44407013 -104.88671875 41.734375 C-107.35714827 40.87588932 -109.40302554 40.87265274 -112 41 C-112.33 39.68 -112.66 38.36 -113 37 C-111.02 36.505 -111.02 36.505 -109 36 C-108.67 36.99 -108.34 37.98 -108 39 C-104.9904833 40.19342903 -102.10822688 41.12438468 -99 42 C-97.81792969 42.34417969 -96.63585937 42.68835938 -95.41796875 43.04296875 C-84.52154218 46.11734729 -74.3235319 47.17957036 -63 47.1875 C-62.07960938 47.19974609 -61.15921875 47.21199219 -60.2109375 47.22460938 C-54.07392932 47.23757489 -47.82624145 47.11869774 -42 45 C-40.10803897 42.94819451 -40.10803897 42.94819451 -39.3125 40.3125 C-36.74591319 35.09749318 -33.60897874 33.61228889 -28.375 31.625 C-23.07505306 29.61987686 -23.07505306 29.61987686 -19.59375 25.32421875 C-19.10847498 23.29081092 -18.64808242 21.25132662 -18.2109375 19.20703125 C-15.90319874 13.09524568 -10.40820539 9.33702497 -5.484375 5.26171875 C-3.54536341 3.6135589 -1.76366903 1.83283252 0 0 Z " fill="#3F628D" transform="translate(590,207)"/>
<path d="M0 0 C4.34205109 3.25653832 4.90810277 4.54051384 6 10 C-2.25 10 -10.5 10 -19 10 C-16.69791667 3.09375 -16.69791667 3.09375 -12 0 C-7.8139988 -1.39533373 -4.25759008 -1.09054062 0 0 Z " fill="#171717" transform="translate(486,319)"/>
<path d="M0 0 C0.69738281 0.01353516 1.39476562 0.02707031 2.11328125 0.04101562 C3.82585541 0.0762055 5.53802941 0.13000845 7.25 0.1875 C7.4921875 6.828125 7.4921875 6.828125 5.3125 10.0625 C1.416803 12.7656367 -2.024229 13.51720495 -6.75 13.1875 C-10.48435785 11.7187843 -10.48435785 11.7187843 -11.75 9.1875 C-12.0625 6.25 -12.0625 6.25 -11.75 3.1875 C-8.39302608 -0.4855249 -4.64681028 -0.17129074 0 0 Z " fill="#181818" transform="translate(633.75,337.8125)"/>
<path d="M0 0 C0 4.07036313 -1.96151903 6.67765744 -4 10.0625 C-6.85315132 14.25899186 -6.85315132 14.25899186 -8 19 C-3.90302219 18.28757005 -3.90302219 18.28757005 0 17 C1.59688639 14.51686936 1.59688639 14.51686936 2 12 C2.33 12.66 2.66 13.32 3 14 C2.1875 16.4375 2.1875 16.4375 0 19 C-1.63189329 19.43164413 -3.28105547 19.80006324 -4.9375 20.125 C-8.27593886 20.98150909 -9.60108099 21.38818638 -11.5078125 24.3125 C-13.42740971 29.43142591 -14.46768874 34.57752792 -14.82421875 40.02734375 C-15.00899373 42.10092958 -15.44845276 43.99559661 -16 46 C-17.32 45.67 -18.64 45.34 -20 45 C-18.42273748 38.42807282 -16.39455921 32.12489 -14 25.8125 C-13.73960937 25.11447266 -13.47921875 24.41644531 -13.2109375 23.69726562 C-11.95177197 20.35538944 -10.59995136 17.19990271 -9 14 C-11.97 14.66 -14.94 15.32 -18 16 C-21.79788629 28.29791752 -25 40.044324 -25 53 C-26.32 53 -27.64 53 -29 53 C-28.85949219 52.33613281 -28.71898437 51.67226562 -28.57421875 50.98828125 C-28.15112802 48.78648255 -27.78741394 46.57307344 -27.45703125 44.35546875 C-24.2873476 23.23271725 -24.2873476 23.23271725 -19 15 C-15.73861886 13.3757043 -13.23052338 12.84776229 -9.609375 12.58203125 C-8.74828125 12.38996094 -7.8871875 12.19789062 -7 12 C-5.71443935 9.68777076 -5.71443935 9.68777076 -5 7 C-3.44702457 4.56700516 -1.72694108 2.31773671 0 0 Z " fill="#497A9E" transform="translate(450,97)"/>
<path d="M0 0 C1.32 0 2.64 0 4 0 C4.33 0.99 4.66 1.98 5 3 C7.14876175 4.43742716 9.23864806 5.7044595 11.5 6.9375 C12.46220459 7.46972168 12.46220459 7.46972168 13.44384766 8.01269531 C15.2886691 9.02267814 17.14184638 10.01480801 19 11 C19.78117187 11.41894531 20.56234375 11.83789062 21.3671875 12.26953125 C36.30181805 19.56251232 57.88740492 22.72208354 74 18 C74.495 19.98 74.495 19.98 75 22 C57.77878061 27.74040646 32.95666742 20.15390589 17 13 C16.67 12.67 16.34 12.34 16 12 C12.14073418 11.84247895 8.59402871 12.05601158 4.8125 12.75 C1 13 1 13 -1.5 11.0625 C-1.995 10.381875 -2.49 9.70125 -3 9 C-2.09507812 9.10828125 -2.09507812 9.10828125 -1.171875 9.21875 C-0.37265625 9.3115625 0.4265625 9.404375 1.25 9.5 C2.03890625 9.5928125 2.8278125 9.685625 3.640625 9.78125 C6.26890397 10.06154619 6.26890397 10.06154619 10 10 C6.98112756 6.51668565 4.43090471 5.20842856 0 4 C0 2.68 0 1.36 0 0 Z " fill="#446E95" transform="translate(466,226)"/>
<path d="M0 0 C1.70884005 1.62339805 3.38942408 3.2790698 5 5 C1.58997792 3.74649014 -1.18239166 2.30774442 -4.125 0.1875 C-17.22141061 -8.62903786 -34.17896213 -13.74025162 -50 -14 C-50.65363525 -14.01973877 -51.30727051 -14.03947754 -51.98071289 -14.05981445 C-57.53563147 -14.16289542 -62.73109832 -13.56260772 -68.1875 -12.5625 C-68.95513672 -12.42779297 -69.72277344 -12.29308594 -70.51367188 -12.15429688 C-71.9970987 -11.89371204 -73.48004083 -11.63034771 -74.96240234 -11.36376953 C-77.63782784 -10.88612947 -80.31824638 -10.44054326 -83 -10 C-83.33 -9.01 -83.66 -8.02 -84 -7 C-85.32 -7.33 -86.64 -7.66 -88 -8 C-87.67 -9.32 -87.34 -10.64 -87 -12 C-85.989375 -12.103125 -84.97875 -12.20625 -83.9375 -12.3125 C-81.17641786 -12.64016769 -78.54393597 -13.10572138 -75.83203125 -13.734375 C-49.65778441 -19.78556402 -22.25670879 -15.27940722 0 0 Z " fill="#40638E" transform="translate(578,76)"/>
<path d="M0 0 C3.91899922 1.48651694 4.89900813 3.4880479 7 7 C8.2004273 8.33883577 9.43136336 9.65078803 10.6875 10.9375 C21.54584776 23.03338004 27.24552627 37.97355726 29 54 C29.31323028 55.67056149 29.63678515 57.33958925 30 59 C28.68 59 27.36 59 26 59 C26.03222656 57.84757812 26.06445312 56.69515625 26.09765625 55.5078125 C26.09092207 51.13059533 25.44684067 47.12417507 24.4375 42.875 C24.26621582 42.14651855 24.09493164 41.41803711 23.91845703 40.66748047 C21.73958187 32.09549854 17.90387533 24.355813 13 17 C10.59329805 16.94149562 10.59329805 16.94149562 7.875 17.3125 C4.19116838 17.45325246 2.54050362 17.38197837 -0.50390625 15.23046875 C-2.4630149 13.2293041 -4.2795276 11.20851471 -6 9 C-3 9 -3 9 -1.67578125 10.3125 C-1.22589844 10.869375 -0.77601563 11.42625 -0.3125 12 C1.53908217 13.98683629 2.47040162 14.90266841 5.16796875 15.3984375 C7.61644997 15.4064026 7.61644997 15.4064026 11 15 C6.08194359 8.52360259 6.08194359 8.52360259 -1 5 C-0.67 3.35 -0.34 1.7 0 0 Z " fill="#436999" transform="translate(573,93)"/>
<path d="M0 0 C2.3125 -0.3125 2.3125 -0.3125 5 0 C6.04349839 1.63978318 7.03182008 3.31464976 8 5 C9.17232448 6.12220135 10.38612953 7.20172498 11.625 8.25 C23.82554529 18.66944378 32.65952537 30.07796672 39.1875 44.75 C39.49123535 45.4294165 39.7949707 46.10883301 40.10791016 46.80883789 C42.12899295 51.61302114 42.12899295 51.61302114 41 55 C40.27296875 53.25976562 40.27296875 53.25976562 39.53125 51.484375 C35.46963643 41.95036843 31.18447032 33.36480464 25 25 C24.32130859 23.84564453 24.32130859 23.84564453 23.62890625 22.66796875 C22.07641479 20.70193058 22.07641479 20.70193058 19.328125 20.85546875 C18.31234375 20.96503906 17.2965625 21.07460937 16.25 21.1875 C10.64635765 21.42551879 10.64635765 21.42551879 7.65625 19.45703125 C5.9569773 17.71249104 4.4280014 15.97104419 3 14 C3.99 14 4.98 14 6 14 C6.53625 14.66 7.0725 15.32 7.625 16 C11.16482992 18.98090941 14.54803614 18.34245876 19 18 C17.41984377 16.39270369 15.83574348 14.78928424 14.25 13.1875 C12.92742188 11.84751953 12.92742188 11.84751953 11.578125 10.48046875 C7.90913053 6.95045134 4.79477394 4.73144614 0 3 C0 2.01 0 1.02 0 0 Z " fill="#406391" transform="translate(580,68)"/>
<path d="M0 0 C5.34863191 -0.12591853 10.6963561 -0.21540049 16.04614258 -0.2746582 C17.85651721 -0.29942284 19.6667962 -0.33324485 21.47680664 -0.37719727 C37.21624814 -0.74913291 52.05533441 1.15164258 66.33203125 8.21875 C68.49517371 9.23193148 70.63841262 9.69527905 73 10 C73 11.32 73 12.64 73 14 C71.68 14 70.36 14 69 14 C68.4328125 13.40445313 67.865625 12.80890625 67.28125 12.1953125 C64.08754353 9.12191689 60.67468624 8.18509496 56.5 6.875 C55.68756836 6.61638184 54.87513672 6.35776367 54.03808594 6.09130859 C38.43798735 1.25150032 21.1658022 0.12892427 5 3 C4.34 3.66 3.68 4.32 3 5 C0.875 4.625 0.875 4.625 -1 4 C-0.67 2.68 -0.34 1.36 0 0 Z " fill="#3D5C88" transform="translate(501,52)"/>
<path d="M0 0 C1.875 1.0625 1.875 1.0625 3 3 C3.4375 6.5 3.4375 6.5 3 10 C1.375 12 1.375 12 -1 13 C-4.125 12.875 -4.125 12.875 -7 12 C-9.31282587 8.53076119 -9.42478586 7.07794425 -9 3 C-6.79086995 -0.68188342 -4.01844539 -0.50230567 0 0 Z " fill="#5DA2D2" transform="translate(505,174)"/>
<path d="M0 0 C2 2 2 2 2.375 5.4375 C2 9 2 9 0.375 11 C-2.83596428 12.35198496 -4.69946166 12.00451167 -8 11 C-10.31282587 7.53076119 -10.42478586 6.07794425 -10 2 C-7.65131237 -2.28290097 -4.2151329 -0.99630414 0 0 Z " fill="#5794C7" transform="translate(555,175)"/>
<path d="M0 0 C5.03701836 1.60946149 9.78846656 3.62106152 14.609375 5.78125 C23.12438879 8.8419462 31.44752106 9.33985843 40.4375 9.3125 C41.49259766 9.32861328 42.54769531 9.34472656 43.63476562 9.36132812 C50.74384672 9.36570294 57.33128948 8.59527188 64 6 C64.66 5.34 65.32 4.68 66 4 C68.125 4.375 68.125 4.375 70 5 C69.67 6.32 69.34 7.64 69 9 C67.97648438 8.9690625 66.95296875 8.938125 65.8984375 8.90625 C62.17787225 8.99572251 59.20915646 9.56273875 55.625 10.5 C37.23688221 14.59926193 18.62621736 11.64717563 2.16015625 2.40625 C1.44730469 1.9421875 0.73445313 1.478125 0 1 C0 0.67 0 0.34 0 0 Z " fill="#40638E" transform="translate(485,219)"/>
<path d="M0 0 C1.87109375 0.1328125 1.87109375 0.1328125 4 1 C5.16015625 3.5546875 5.16015625 3.5546875 6.0625 6.875 C6.38863281 8.06996094 6.71476563 9.26492187 7.05078125 10.49609375 C7.36402344 11.65238281 7.67726563 12.80867187 8 14 C8.30292969 14.83660156 8.60585938 15.67320312 8.91796875 16.53515625 C13.63404349 30.15199176 12.64179322 48.38543342 6.91015625 61.4921875 C6.00227245 63.35964956 5.01137569 65.18649876 4 67 C2.77257123 63.31771369 3.3916678 62.39946715 4.8125 58.875 C10.56315448 43.65267931 11.14225743 26.37988292 4.39453125 11.24609375 C3 8 3 8 3 5 C1.68 4.67 0.36 4.34 -1 4 C-0.67 2.68 -0.34 1.36 0 0 Z " fill="#374B7F" transform="translate(582,118)"/>
<path d="M0 0 C3.75444772 3.24397456 5.60664697 6.88244335 7.5 11.375 C7.80115723 12.07818359 8.10231445 12.78136719 8.41259766 13.50585938 C13.62472391 25.98804662 16.18898199 38.17663568 16.125 51.6875 C16.13080078 52.92983398 16.13080078 52.92983398 16.13671875 54.19726562 C16.13020965 58.26219926 16.01755932 62.03474899 15 66 C14.67 66 14.34 66 14 66 C13.98018066 65.21874756 13.96036133 64.43749512 13.93994141 63.63256836 C13.84424528 60.06722682 13.73474661 56.50243558 13.625 52.9375 C13.5940625 51.70837891 13.563125 50.47925781 13.53125 49.21289062 C13.21254702 39.28839106 13.21254702 39.28839106 10 30 C10.66 30 11.32 30 12 30 C7.39164617 16.31075534 7.39164617 16.31075534 0.84765625 3.49609375 C0 2 0 2 0 0 Z " fill="#334571" transform="translate(603,103)"/>
<path d="M0 0 C3.41390155 1.29625585 6.64838761 2.81561319 9.90576172 4.46264648 C27.03070762 12.93443929 43.07298003 13.59325198 62 13 C62 12.34 62 11.68 62 11 C63.65 11 65.3 11 67 11 C67 12.32 67 13.64 67 15 C62.57500714 15.10062959 58.15066097 15.172275 53.72485352 15.21972656 C52.22668832 15.23955498 50.72859737 15.26662655 49.23071289 15.30175781 C35.21931829 15.62158824 22.7963585 13.66431824 10.25 6.9375 C9.5796875 6.59912109 8.909375 6.26074219 8.21875 5.91210938 C5.06453919 4.28138239 2.29524248 2.74915237 0 0 Z " fill="#426694" transform="translate(477,224)"/>
<path d="M0 0 C2.475 0.495 2.475 0.495 5 1 C5 4.63 5 8.26 5 12 C5.66 11.67 6.32 11.34 7 11 C6.68095703 12.2375 6.68095703 12.2375 6.35546875 13.5 C5.92247357 17.76333712 6.93643295 21.03215354 8.3125 25 C8.53873047 25.68578125 8.76496094 26.3715625 8.99804688 27.078125 C9.44354829 28.4236163 9.89789863 29.76621574 10.36181641 31.10546875 C10.95476624 32.86571769 11.47099633 34.65130188 11.98046875 36.4375 C12.31691406 37.283125 12.65335937 38.12875 13 39 C13.99 39.33 14.98 39.66 16 40 C16 41.32 16 42.64 16 44 C14.35 43.67 12.7 43.34 11 43 C10.89429688 42.17371094 10.78859375 41.34742188 10.6796875 40.49609375 C9.90345685 36.50341313 8.56018885 32.85080692 7.125 29.0625 C4.21076661 21.12327701 2.42579791 13.32912159 1 5 C0.67224264 3.33222783 0.3411543 1.66508337 0 0 Z " fill="#426A90" transform="translate(421,160)"/>
<path d="M0 0 C0.66 0 1.32 0 2 0 C2.25394531 0.64066406 2.50789062 1.28132812 2.76953125 1.94140625 C3.11371094 2.80636719 3.45789063 3.67132813 3.8125 4.5625 C4.17214844 5.47386719 4.53179688 6.38523438 4.90234375 7.32421875 C5.81887487 9.55846722 6.82066092 11.70485812 7.875 13.875 C9 17 9 17 8.1875 19.4375 C7.795625 19.953125 7.40375 20.46875 7 21 C6.34 19.02 5.68 17.04 5 15 C0.22237362 13.98312954 0.22237362 13.98312954 -4.4375 14.9375 C-4.953125 15.288125 -5.46875 15.63875 -6 16 C-4.27933894 10.55123997 -2.15294651 5.28830549 0 0 Z " fill="#171B22" transform="translate(550,161)"/>
<path d="M0 0 C3.3927565 1.69637825 4.2740609 5.47851108 5.75 8.8125 C6.09160156 9.53759766 6.43320312 10.26269531 6.78515625 11.00976562 C9.18684082 16.41108505 9.18684082 16.41108505 8.203125 19.51171875 C7.80609375 20.00285156 7.4090625 20.49398437 7 21 C6.5359375 19.5459375 6.5359375 19.5459375 6.0625 18.0625 C5.30476658 15.15934208 5.30476658 15.15934208 4 14 C-0.03160191 13.73706944 -1.55892734 13.70595156 -5 16 C-5.33 15.34 -5.66 14.68 -6 14 C-5.0390625 11.7578125 -5.0390625 11.7578125 -3.625 9.125 C-2.00168588 6.08695402 -0.6775 3.38749998 0 0 Z " fill="#16191E" transform="translate(501,161)"/>
<path d="M0 0 C2.475 0.495 2.475 0.495 5 1 C5.33 1.99 5.66 2.98 6 4 C7.43991037 5.99963019 7.43991037 5.99963019 10 7 C14.03814283 6.35902495 17.79356429 5.36262807 21.703125 4.1875 C32.38987712 1.27801775 43.00304474 1.71126885 54 2 C54 2.33 54 2.66 54 3 C52.741875 3.02578125 51.48375 3.0515625 50.1875 3.078125 C37.54058162 3.45421846 26.32357229 5.12249781 14.31640625 9.2734375 C11 10 11 10 8.671875 9.13671875 C8.03765625 8.65847656 7.4034375 8.18023437 6.75 7.6875 C4.36690032 5.94783723 2.84999202 4.94999734 0 4 C0 2.68 0 1.36 0 0 Z " fill="#5088AF" transform="translate(480,67)"/>
<path d="M0 0 C0 3 0 3 -2.265625 5.59375 C-3.25278939 6.57027111 -4.2479569 7.53875255 -5.25 8.5 C-5.74113281 8.98597656 -6.23226562 9.47195312 -6.73828125 9.97265625 C-8.81748149 12.00750022 -10.85151302 13.89765741 -13.25 15.55078125 C-15.47972682 17.39727377 -15.9512263 18.93173072 -16.75 21.6875 C-16.99234375 22.49574219 -17.2346875 23.30398437 -17.484375 24.13671875 C-17.65453125 24.75160156 -17.8246875 25.36648437 -18 26 C-17.21625 25.484375 -16.4325 24.96875 -15.625 24.4375 C-14.75875 23.963125 -13.8925 23.48875 -13 23 C-12.34 23.33 -11.68 23.66 -11 24 C-17.20661995 28.45957137 -23.69569765 32.5931725 -31 35 C-31.99 34.67 -32.98 34.34 -34 34 C-32.66195312 33.55914062 -32.66195312 33.55914062 -31.296875 33.109375 C-24.32736168 30.69902154 -24.32736168 30.69902154 -19.703125 25.3515625 C-19.2224442 23.31668044 -18.74880676 21.28012511 -18.28125 19.2421875 C-15.86726601 13.13363045 -10.44156714 9.36463749 -5.484375 5.26171875 C-3.54536341 3.6135589 -1.76366903 1.83283252 0 0 Z " fill="#4A7DA3" transform="translate(590,207)"/>
<path d="M0 0 C0.33 0.66 0.66 1.32 1 2 C0.1875 4.4375 0.1875 4.4375 -2 7 C-3.63189329 7.43164413 -5.28105547 7.80006324 -6.9375 8.125 C-10.27593886 8.98150909 -11.60108099 9.38818638 -13.5078125 12.3125 C-15.42740971 17.43142591 -16.46768874 22.57752792 -16.82421875 28.02734375 C-17.00899373 30.10092958 -17.44845276 31.99559661 -18 34 C-19.32 33.67 -20.64 33.34 -22 33 C-20.41518565 26.39660688 -18.37894254 20.04116089 -16 13.6875 C-15.60941406 12.61532227 -15.60941406 12.61532227 -15.2109375 11.52148438 C-13.23954417 6.23954417 -13.23954417 6.23954417 -11 4 C-10.67 4.99 -10.34 5.98 -10 7 C-5.90302219 6.28757005 -5.90302219 6.28757005 -2 5 C-0.40311361 2.51686936 -0.40311361 2.51686936 0 0 Z " fill="#4F87AD" transform="translate(452,109)"/>
<path d="M0 0 C0.66 0.33 1.32 0.66 2 1 C-2.84336575 6.57211292 -7.61104494 11.81090572 -13.46875 16.33203125 C-15.41861647 18.45599295 -15.65539698 20.18095587 -16 23 C-17.32 23 -18.64 23 -20 23 C-19.91911312 20.24984625 -19.5165216 18.51930608 -17.55078125 16.54296875 C-16.31846542 15.52985009 -15.07706532 14.52770842 -13.828125 13.53515625 C-11.75628341 11.88710093 -11.75628341 11.88710093 -9.5 9 C-6.63295845 5.55955014 -3.46455736 2.81557688 0 0 Z " fill="#325064" transform="translate(461,73)"/>
<path d="M0 0 C0.66 0 1.32 0 2 0 C7.68820297 10.5231755 11.93012436 21.01739288 13 33 C13.31323028 34.67056149 13.63678515 36.33958925 14 38 C12.68 38 11.36 38 10 38 C10.03351562 36.84886719 10.06703125 35.69773438 10.1015625 34.51171875 C10.09574777 30.10318562 9.40778967 26.08643838 8.375 21.8125 C8.20258789 21.08361572 8.03017578 20.35473145 7.85253906 19.60375977 C6.09579105 12.63080978 3.32801032 6.37868644 0 0 Z " fill="#3A5482" transform="translate(589,114)"/>
<path d="M0 0 C0 0.33 0 0.66 0 1 C-1.05743408 1.12060791 -1.05743408 1.12060791 -2.13623047 1.24365234 C-5.38299819 1.61645892 -8.62898583 1.99569048 -11.875 2.375 C-12.98359375 2.50132813 -14.0921875 2.62765625 -15.234375 2.7578125 C-21.90096669 3.54211741 -28.44374681 4.55521323 -35 6 C-35.33 6.99 -35.66 7.98 -36 9 C-37.32 8.67 -38.64 8.34 -40 8 C-39.67 6.68 -39.34 5.36 -39 4 C-37.989375 3.896875 -36.97875 3.79375 -35.9375 3.6875 C-31.88637329 3.20335832 -27.97942446 2.33023861 -24 1.4375 C-15.93606014 -0.23538178 -8.20329211 -0.29104979 0 0 Z " fill="#497D9E" transform="translate(530,60)"/>
<path d="M0 0 C2.0625 0.4375 2.0625 0.4375 4 1 C3.67 2.32 3.34 3.64 3 5 C-5.91 4.67 -14.82 4.34 -24 4 C-20.86464471 1.90976314 -19.96533251 1.73160364 -16.3671875 1.62109375 C-15.47902344 1.58693359 -14.59085938 1.55277344 -13.67578125 1.51757812 C-12.75152344 1.49115234 -11.82726562 1.46472656 -10.875 1.4375 C-9.03892384 1.37782118 -7.2029691 1.31423412 -5.3671875 1.24609375 C-4.14684814 1.21020142 -4.14684814 1.21020142 -2.90185547 1.17358398 C-0.99034084 1.20364375 -0.99034084 1.20364375 0 0 Z " fill="#344B70" transform="translate(537,244)"/>
<path d="M0 0 C2.0625 0.4375 2.0625 0.4375 4 1 C4 1.66 4 2.32 4 3 C10.28896562 5.18759031 16.61451774 7.03173419 23.0625 8.6875 C24.3609082 9.02491211 24.3609082 9.02491211 25.68554688 9.36914062 C27.78965238 9.91551056 29.89472496 10.45815403 32 11 C32 11.33 32 11.66 32 12 C26.04854063 12.37196621 21.5610976 11.1012581 16 9.0625 C10.63715794 7.12341868 5.68582121 5.59731366 0 5 C-0.5625 3.0625 -0.5625 3.0625 -1 1 C-0.67 0.67 -0.34 0.34 0 0 Z " fill="#497B9D" transform="translate(478,243)"/>
<path d="M0 0 C1.98 0.495 1.98 0.495 4 1 C3.88879348 5.12549057 3.75848948 9.25017507 3.625 13.375 C3.57859375 15.10943359 3.57859375 15.10943359 3.53125 16.87890625 C3.29730173 23.78038036 2.63321078 30.28483607 1 37 C0.67 37 0.34 37 0 37 C-0.12507626 30.49603473 -0.12507626 30.49603473 0.4934082 28.04321289 C1.43515658 24.24490339 1.18457887 20.33136533 1.1875 16.4375 C1.19974609 15.57447266 1.21199219 14.71144531 1.22460938 13.82226562 C1.22654297 12.99275391 1.22847656 12.16324219 1.23046875 11.30859375 C1.23457764 10.55376709 1.23868652 9.79894043 1.24291992 9.02124023 C1.11650308 6.68568088 1.11650308 6.68568088 -1 4 C-0.625 1.8125 -0.625 1.8125 0 0 Z " fill="#3C528B" transform="translate(607,138)"/>
<path d="M0 0 C0.33 0.66 0.66 1.32 1 2 C-2.60733004 9.50116282 -7.96454197 15.3426567 -13.9609375 21.00390625 C-16.05363073 22.83533528 -16.05363073 22.83533528 -17 25 C-18.32 25 -19.64 25 -21 25 C-20.67 23.35 -20.34 21.7 -20 20 C-18.9790625 19.9690625 -18.9790625 19.9690625 -17.9375 19.9375 C-9.33032813 17.19053025 -4.53661811 7.17610501 0 0 Z " fill="#4D82AB" transform="translate(591,190)"/>
<path d="M0 0 C4.56507558 0.68254528 8.61276142 2.34839558 12.8125 4.1875 C13.87500977 4.65071655 13.87500977 4.65071655 14.95898438 5.12329102 C20.22432934 7.49136417 24.59236736 10.23514712 29 14 C25.41930917 14 24.28480964 13.10526964 21.3125 11.1875 C14.27021905 6.85378865 8.22485048 4.73436165 0 4 C0 2.68 0 1.36 0 0 Z " fill="#4A7BA5" transform="translate(538,86)"/>
<path d="M0 0 C1.32 0.33 2.64 0.66 4 1 C3.8125 2.8125 3.8125 2.8125 3 5 C1.36209288 6.04644066 -0.31008021 7.0398183 -2 8 C-2.721875 8.825 -3.44375 9.65 -4.1875 10.5 C-7.97620205 13.86773516 -12.01468119 15.20559147 -17 16 C-19.30859375 15.5703125 -19.30859375 15.5703125 -21 15 C-20.13117188 14.78085938 -19.26234375 14.56171875 -18.3671875 14.3359375 C-11.266369 12.382021 -6.4954461 10.95342862 -2 5 C-0.61559265 2.30152621 -0.61559265 2.30152621 0 0 Z " fill="#446B99" transform="translate(521,75)"/>
<path d="M0 0 C11.55 0 23.1 0 35 0 C35 0.33 35 0.66 35 1 C34.37544922 1.02505615 33.75089844 1.0501123 33.10742188 1.07592773 C30.23812877 1.19300381 27.36907575 1.31521751 24.5 1.4375 C23.51773438 1.47681641 22.53546875 1.51613281 21.5234375 1.55664062 C11.51052997 1.30486743 11.51052997 1.30486743 3 5 C0.875 4.625 0.875 4.625 -1 4 C-0.67 2.68 -0.34 1.36 0 0 Z " fill="#5087B1" transform="translate(501,52)"/>
<path d="M0 0 C0.33 0 0.66 0 1 0 C1.0501123 0.59949463 1.10022461 1.19898926 1.15185547 1.81665039 C1.38575757 4.56592826 1.63029759 7.31416322 1.875 10.0625 C1.95363281 11.00544922 2.03226562 11.94839844 2.11328125 12.91992188 C2.58879613 18.16887456 3.18136899 23.03581092 5 28 C5.66 28.33 6.32 28.66 7 29 C7 30.32 7 31.64 7 33 C5.35 32.67 3.7 32.34 2 32 C1.93941406 31.32453125 1.87882812 30.6490625 1.81640625 29.953125 C1.73261719 29.06109375 1.64882813 28.1690625 1.5625 27.25 C1.48128906 26.36828125 1.40007812 25.4865625 1.31640625 24.578125 C1.0737294 22.09367098 1.0737294 22.09367098 0.48632812 20.109375 C-0.02611001 17.88675175 -0.11392752 15.94985338 -0.09765625 13.671875 C-0.09282227 12.47304687 -0.09282227 12.47304687 -0.08789062 11.25 C-0.07951172 10.425 -0.07113281 9.6 -0.0625 8.75 C-0.05798828 7.90953125 -0.05347656 7.0690625 -0.04882812 6.203125 C-0.03707961 4.13538599 -0.01914522 2.06768376 0 0 Z " fill="#4E84AD" transform="translate(448,147)"/>
<path d="M0 0 C4 2 4 2 5 3 C5.3125 6.375 5.3125 6.375 5 10 C3.25 12 3.25 12 1 13 C-1.25 12.6875 -1.25 12.6875 -3 12 C-2.01 12 -1.02 12 0 12 C0 8.04 0 4.08 0 0 Z " fill="#4C79B0" transform="translate(503,174)"/>
<path d="M0 0 C3.81412592 3.27763349 5.65115961 7.01077328 7.5625 11.5625 C7.86478516 12.27051758 8.16707031 12.97853516 8.47851562 13.70800781 C14.93099654 29.15337157 14.93099654 29.15337157 13 35 C12.01 33.35 11.02 31.7 10 30 C10.66 30 11.32 30 12 30 C7.39164617 16.31075534 7.39164617 16.31075534 0.84765625 3.49609375 C0 2 0 2 0 0 Z " fill="#446B98" transform="translate(603,103)"/>
<path d="M0 0 C2.0625 0.4375 2.0625 0.4375 4 1 C3.67 2.32 3.34 3.64 3 5 C1.205625 5.0309375 1.205625 5.0309375 -0.625 5.0625 C-6.15222145 5.61786675 -10.50709492 8.01546522 -15.30126953 10.64868164 C-16.84089969 11.48352139 -18.41826021 12.24799091 -20 13 C-20.66 12.67 -21.32 12.34 -22 12 C-15.90187537 8.1506415 -9.771556 4.84910351 -3.15234375 1.98046875 C-1.06423943 1.18102457 -1.06423943 1.18102457 0 0 Z " fill="#47739E" transform="translate(504,78)"/>
<path d="M0 0 C1.9375 0.0625 1.9375 0.0625 4 1 C4.268125 1.845625 4.53625 2.69125 4.8125 3.5625 C6.47477827 8.37435815 9.58764922 11.30938885 13 15 C14.68866966 16.98271662 16.34256287 18.9909853 18 21 C14.4567789 19.4975457 12.22928476 17.43747735 9.5625 14.6875 C7.08105482 12.136558 4.60184381 9.61487615 2 7.1875 C0.03332119 5.03644505 -0.79351443 3.89079803 -1 1 C-0.67 0.67 -0.34 0.34 0 0 Z " fill="#518CB2" transform="translate(466,187)"/>
<path d="M0 0 C2.39670949 0.54449517 4.65865617 1.23547957 7 2 C7 2.33 7 2.66 7 3 C6.10796875 2.88140625 5.2159375 2.7628125 4.296875 2.640625 C3.12640625 2.51171875 1.9559375 2.3828125 0.75 2.25 C-0.41015625 2.11078125 -1.5703125 1.9715625 -2.765625 1.828125 C-6.06607943 1.69596831 -6.06607943 1.69596831 -8.34375 3.8125 C-10.09592127 6.12668847 -11.08482487 8.2544746 -12 11 C-13.32 10.67 -14.64 10.34 -16 10 C-15.8125 8.1875 -15.8125 8.1875 -15 6 C-12.625 4.4375 -12.625 4.4375 -10 3 C-9.54625 2.443125 -9.0925 1.88625 -8.625 1.3125 C-5.90085986 -0.88776704 -3.38067866 -0.28172322 0 0 Z " fill="#48789D" transform="translate(540,78)"/>
<path d="M0 0 C2.0625 0.4375 2.0625 0.4375 4 1 C3.67 2.32 3.34 3.64 3 5 C2.34 5 1.68 5 1 5 C0.67 8.3 0.34 11.6 0 15 C-1.32 15.33 -2.64 15.66 -4 16 C-4.33 14.68 -4.66 13.36 -5 12 C-4.01 11.67 -3.02 11.34 -2 11 C-1.93941406 10.28972656 -1.87882813 9.57945312 -1.81640625 8.84765625 C-1.69072266 7.46900391 -1.69072266 7.46900391 -1.5625 6.0625 C-1.48128906 5.14597656 -1.40007813 4.22945312 -1.31640625 3.28515625 C-1 1 -1 1 0 0 Z " fill="#4C7CAA" transform="translate(564,218)"/>
<path d="M0 0 C2.3125 -0.3125 2.3125 -0.3125 5 0 C6.04349839 1.63978318 7.03182008 3.31464976 8 5 C9.25751157 6.18321657 10.55362214 7.32606068 11.875 8.4375 C15.36948051 11.37750574 18.19350578 14.40417928 21 18 C17.63361113 16.54974765 15.51960775 14.70513547 13 12.0625 C8.98737181 7.86961703 5.49986612 4.98606277 0 3 C0 2.01 0 1.02 0 0 Z " fill="#4E85AD" transform="translate(580,68)"/>
<path d="M0 0 C1.32 0.33 2.64 0.66 4 1 C4 4 4 4 2.22265625 5.8359375 C1.48917969 6.55007812 0.75570312 7.26421875 0 8 C-1.8635959 10.79739771 -3.58324693 13.6594704 -5.31640625 16.5390625 C-7 19 -7 19 -10 21 C-8.52727266 17.92001735 -6.81872188 15.07472098 -5 12.1875 C-2.54184692 8.14054066 -1.00282589 4.6129991 0 0 Z " fill="#3C5888" transform="translate(601,186)"/>
<path d="M0 0 C0.66 0.33 1.32 0.66 2 1 C-2.77130576 3.93317977 -7.50751572 6.82801116 -12.5625 9.25 C-16.04460934 10.59406259 -16.04460934 10.59406259 -17 13 C-18.32 12.67 -19.64 12.34 -21 12 C-20.67 10.68 -20.34 9.36 -20 8 C-18.98550781 7.90976563 -17.97101562 7.81953125 -16.92578125 7.7265625 C-12.6783607 6.94047273 -9.90093009 5.54513027 -6.1875 3.375 C-4.15723378 2.19281967 -2.10075091 1.05184451 0 0 Z " fill="#4E82AE" transform="translate(579,239)"/>
<path d="M0 0 C2.475 0.495 2.475 0.495 5 1 C5 4.63 5 8.26 5 12 C5.66 11.67 6.32 11.34 7 11 C6.34 13.31 5.68 15.62 5 18 C3.03645581 15.05468371 2.55070294 13.51565155 1.9375 10.125 C1.78152344 9.28195313 1.62554687 8.43890625 1.46484375 7.5703125 C1.31144531 6.72210938 1.15804688 5.87390625 1 5 C0.66977587 3.33271451 0.33735118 1.66585806 0 0 Z " fill="#497BA0" transform="translate(421,160)"/>
<path d="M0 0 C0.99 0.66 1.98 1.32 3 2 C3.4375 5.4375 3.4375 5.4375 3 9 C1.25 11 1.25 11 -1 12 C-3.25 11.6875 -3.25 11.6875 -5 11 C-4.01 11 -3.02 11 -2 11 C-2.04125 10.113125 -2.0825 9.22625 -2.125 8.3125 C-2.00102754 5.02722987 -1.38612096 2.94550705 0 0 Z " fill="#4A72AE" transform="translate(554,175)"/>
<path d="M0 0 C2.0625 0.4375 2.0625 0.4375 4 1 C3.82984375 1.53753906 3.6596875 2.07507813 3.484375 2.62890625 C2.89973925 5.49079252 3.08832318 8.02364283 3.25 10.9375 C3.33055667 16.435493 3.33055667 16.435493 1.890625 18.89453125 C0.5 20.25 0.5 20.25 -2 22 C-1.67386719 21.4740625 -1.34773438 20.948125 -1.01171875 20.40625 C0.28768319 17.31578051 0.22968276 14.84394258 0.1875 11.5 C0.18105469 10.3759375 0.17460937 9.251875 0.16796875 8.09375 C0.02909285 5.53584979 -0.36898847 3.45457695 -1 1 C-0.67 0.67 -0.34 0.34 0 0 Z " fill="#4B7CA9" transform="translate(430,149)"/>
<path d="M0 0 C0.33 0.66 0.66 1.32 1 2 C0.01 3.485 0.01 3.485 -1 5 C-1.4603764 8.19806665 -1.4603764 8.19806665 -1.625 11.6875 C-1.69976563 12.86699219 -1.77453125 14.04648438 -1.8515625 15.26171875 C-1.90054688 16.16535156 -1.94953125 17.06898438 -2 18 C-1.34 18 -0.68 18 0 18 C0 19.32 0 20.64 0 22 C-1.65 21.67 -3.3 21.34 -5 21 C-5 20.01 -5 19.02 -5 18 C-4.34 18 -3.68 18 -3 18 C-3.03480469 17.03578125 -3.06960938 16.0715625 -3.10546875 15.078125 C-3.13253906 13.81484375 -3.15960937 12.5515625 -3.1875 11.25 C-3.22230469 9.99703125 -3.25710938 8.7440625 -3.29296875 7.453125 C-2.98802939 3.85890643 -2.45605371 2.55274874 0 0 Z " fill="#5289B9" transform="translate(605,200)"/>
<path d="M0 0 C0.99 0.33 1.98 0.66 3 1 C3 2.32 3 3.64 3 5 C1.989375 5.350625 0.97875 5.70125 -0.0625 6.0625 C-4.67991575 8.00369927 -7.69387232 11.33210759 -11 15 C-11.66 14.67 -12.32 14.34 -13 14 C-11.54474941 12.51780033 -10.085701 11.03932861 -8.625 9.5625 C-7.81289063 8.73878906 -7.00078125 7.91507812 -6.1640625 7.06640625 C-4 5 -4 5 -2 4 C-0.86649466 1.98330173 -0.86649466 1.98330173 0 0 Z " fill="#3C5A88" transform="translate(470,75)"/>
<path d="M0 0 C1 3 1 3 0.29296875 4.83203125 C-0.07183594 5.48558594 -0.43664062 6.13914063 -0.8125 6.8125 C-2.58718662 10.13466423 -3.91411712 13.3803904 -5 17 C-6.32 16.34 -7.64 15.68 -9 15 C-8.05029764 12.88143321 -7.25157967 11.24064143 -5.5625 9.625 C-3.81443488 7.80701228 -2.89245221 6.08412361 -1.8125 3.8125 C-1.46832031 3.09707031 -1.12414062 2.38164062 -0.76953125 1.64453125 C-0.51558594 1.10183594 -0.26164063 0.55914062 0 0 Z " fill="#3D5C8A" transform="translate(618,193)"/>
<path d="M0 0 C0.99 0 1.98 0 3 0 C2.67 3.3 2.34 6.6 2 10 C0.68 9.34 -0.64 8.68 -2 8 C-2.125 5.125 -2.125 5.125 -2 2 C-1.34 1.34 -0.68 0.68 0 0 Z " fill="#60A9D6" transform="translate(547,175)"/>
<path d="M0 0 C3.9101173 1.48314794 4.94331612 3.46250372 7 7 C8.62836738 8.7041054 10.28769752 10.38025441 12 12 C11.67 12.66 11.34 13.32 11 14 C10.46890625 13.43410156 9.9378125 12.86820313 9.390625 12.28515625 C8.68421875 11.55167969 7.9778125 10.81820312 7.25 10.0625 C6.20585938 8.96615234 6.20585938 8.96615234 5.140625 7.84765625 C2.99400275 5.99482354 1.76467068 5.39228435 -1 5 C-0.67 3.35 -0.34 1.7 0 0 Z " fill="#4F85B0" transform="translate(573,93)"/>
<path d="M0 0 C1.32 0 2.64 0 4 0 C4 1.32 4 2.64 4 4 C3.34 4 2.68 4 2 4 C2 7.63 2 11.26 2 15 C0.02 15.99 0.02 15.99 -2 17 C-1.01 15.515 -1.01 15.515 0 14 C0.24192775 11.61974291 0.24192775 11.61974291 0.125 9.0625 C0.10695313 8.20785156 0.08890625 7.35320312 0.0703125 6.47265625 C0.04710937 5.65667969 0.02390625 4.84070313 0 4 C0 2.68 0 1.36 0 0 Z " fill="#4870A5" transform="translate(590,217)"/>
<path d="M0 0 C1.32 0 2.64 0 4 0 C4 3.96 4 7.92 4 12 C2.35 12 0.7 12 -1 12 C-1.33 11.34 -1.66 10.68 -2 10 C-1.01 10 -0.02 10 1 10 C1.33 7.03 1.66 4.06 2 1 C1.34 0.67 0.68 0.34 0 0 Z " fill="#5690C3" transform="translate(499,174)"/>
<path d="M0 0 C-0.84884766 0.16435547 -0.84884766 0.16435547 -1.71484375 0.33203125 C-2.81505859 0.56986328 -2.81505859 0.56986328 -3.9375 0.8125 C-4.66839844 0.96332031 -5.39929688 1.11414063 -6.15234375 1.26953125 C-6.76207031 1.51058594 -7.37179687 1.75164062 -8 2 C-8.33 2.99 -8.66 3.98 -9 5 C-10.32 4.67 -11.64 4.34 -13 4 C-12.67 2.68 -12.34 1.36 -12 0 C-3.96428571 -1.20535714 -3.96428571 -1.20535714 0 0 Z " fill="#5189B3" transform="translate(503,64)"/>
<path d="M0 0 C0 0.99 0 1.98 0 3 C-0.474375 3.45375 -0.94875 3.9075 -1.4375 4.375 C-3.44583349 6.46366683 -3.61869524 8.1783448 -4 11 C-5.32 11 -6.64 11 -8 11 C-7.91433603 8.087425 -7.42089045 6.43201976 -5.375 4.33203125 C-3.61608625 2.83908228 -1.83686981 1.39563738 0 0 Z " fill="#538CB8" transform="translate(449,85)"/>
<path d="M0 0 C1.65 0.33 3.3 0.66 5 1 C4.67 1.99 4.34 2.98 4 4 C0.04 4.66 -3.92 5.32 -8 6 C-3.5 2.625 -3.5 2.625 0 2 C0 1.34 0 0.68 0 0 Z " fill="#4974A6" transform="translate(489,56)"/>
<path d="M0 0 C2.0625 0.4375 2.0625 0.4375 4 1 C4 1.66 4 2.32 4 3 C5.98 3.66 7.96 4.32 10 5 C6.30581799 6.231394 3.7943739 5.64432764 0 5 C-0.5625 3.0625 -0.5625 3.0625 -1 1 C-0.67 0.67 -0.34 0.34 0 0 Z " fill="#5188B4" transform="translate(478,243)"/>
<path d="M0 0 C2.375 0.1875 2.375 0.1875 5 1 C6.59660706 3.88909849 7 5.69058796 7 9 C6.401875 8.360625 5.80375 7.72125 5.1875 7.0625 C3.09189663 4.79689611 3.09189663 4.79689611 0 4 C0 2.68 0 1.36 0 0 Z " fill="#5086B3" transform="translate(441,213)"/>
<path d="M0 0 C1.98 1.65 3.96 3.3 6 5 C5.67 6.32 5.34 7.64 5 9 C3.68 8.67 2.36 8.34 1 8 C0.67 5.36 0.34 2.72 0 0 Z " fill="#4975A6" transform="translate(599,113)"/>
<path d="M0 0 C1.32 0 2.64 0 4 0 C4.33 0.99 4.66 1.98 5 3 C6.95597184 4.39712274 8.95436401 5.73779907 11 7 C10.01 7.495 10.01 7.495 9 8 C7.31791365 7.02616054 5.65261839 6.02304948 4 5 C1.80869466 4.30420546 1.80869466 4.30420546 0 4 C0 2.68 0 1.36 0 0 Z " fill="#5591BD" transform="translate(466,226)"/>
<path d="M0 0 C1.98 0.495 1.98 0.495 4 1 C4 3.31 4 5.62 4 8 C2.35 6.68 0.7 5.36 -1 4 C-0.67 2.68 -0.34 1.36 0 0 Z " fill="#4F83B0" transform="translate(437,187)"/>
<path d="M0 0 C1.32 0 2.64 0 4 0 C4.33 2.31 4.66 4.62 5 7 C3.02 6.01 1.04 5.02 -1 4 C-0.67 2.68 -0.34 1.36 0 0 Z " fill="#4F84B1" transform="translate(598,96)"/>
<path d="M0 0 C1.32 0.33 2.64 0.66 4 1 C3.67 2.32 3.34 3.64 3 5 C0.69 5.33 -1.62 5.66 -4 6 C-3.67 5.34 -3.34 4.68 -3 4 C-2.34 4 -1.68 4 -1 4 C-0.67 2.68 -0.34 1.36 0 0 Z " fill="#4C7CAC" transform="translate(481,78)"/>
<path d="M0 0 C1.875 0.1875 1.875 0.1875 4 1 C5.25 3.5625 5.25 3.5625 6 6 C3.69 5.34 1.38 4.68 -1 4 C-0.67 2.68 -0.34 1.36 0 0 Z " fill="#5188B7" transform="translate(607,127)"/>
<path d="M0 0 C0.33 0 0.66 0 1 0 C1.66 2.64 2.32 5.28 3 8 C1.35 8.33 -0.3 8.66 -2 9 C-1.41196203 5.97580475 -0.77321882 2.98241547 0 0 Z " fill="#548EBE" transform="translate(423,141)"/>
<path d="M0 0 C1.32 0.33 2.64 0.66 4 1 C3.67 2.32 3.34 3.64 3 5 C1.35 5 -0.3 5 -2 5 C-1.34 3.35 -0.68 1.7 0 0 Z " fill="#4E7FB0" transform="translate(581,225)"/>
<path d="M0 0 C1.485 0.99 1.485 0.99 3 2 C3.375 5.5 3.375 5.5 3 9 C2.01 9.66 1.02 10.32 0 11 C0 7.37 0 3.74 0 0 Z " fill="#4768A7" transform="translate(505,175)"/>
<path d="M0 0 C0.99 0.33 1.98 0.66 3 1 C3 2.32 3 3.64 3 5 C2.34 5 1.68 5 1 5 C1 6.65 1 8.3 1 10 C0.67 10 0.34 10 0 10 C-0.19412181 8.52168779 -0.38012131 7.04230684 -0.5625 5.5625 C-0.66691406 4.73878906 -0.77132813 3.91507813 -0.87890625 3.06640625 C-0.91886719 2.38449219 -0.95882813 1.70257813 -1 1 C-0.67 0.67 -0.34 0.34 0 0 Z " fill="#538CBD" transform="translate(449,136)"/>
<path d="M0 0 C-1.485 2.475 -1.485 2.475 -3 5 C-3.99 4.67 -4.98 4.34 -6 4 C-6 2.68 -6 1.36 -6 0 C-2.25 -1.125 -2.25 -1.125 0 0 Z " fill="#4F84B4" transform="translate(477,85)"/>
<path d="M0 0 C2.0625 0.4375 2.0625 0.4375 4 1 C3.6875 2.9375 3.6875 2.9375 3 5 C2.01 5.33 1.02 5.66 0 6 C-0.38218767 4.34385343 -0.71395102 2.67542976 -1 1 C-0.67 0.67 -0.34 0.34 0 0 Z " fill="#4F82B3" transform="translate(564,218)"/>
<path d="M0 0 C1.32 0.66 2.64 1.32 4 2 C4 3.32 4 4.64 4 6 C2.35 5.67 0.7 5.34 -1 5 C-0.67 3.35 -0.34 1.7 0 0 Z " fill="#4F82B4" transform="translate(433,198)"/>
<path d="M0 0 C1.32 0 2.64 0 4 0 C3.67 1.65 3.34 3.3 3 5 C1.68 4.67 0.36 4.34 -1 4 C-0.67 2.68 -0.34 1.36 0 0 Z " fill="#5289B7" transform="translate(525,84)"/>
<path d="M0 0 C1.98 0.495 1.98 0.495 4 1 C3.67 2.32 3.34 3.64 3 5 C1.68 4.67 0.36 4.34 -1 4 C-0.67 2.68 -0.34 1.36 0 0 Z " fill="#4F81B1" transform="translate(551,223)"/>
<path d="M0 0 C1.98 0.495 1.98 0.495 4 1 C3.67 2.32 3.34 3.64 3 5 C1.68 4.67 0.36 4.34 -1 4 C-0.67 2.68 -0.34 1.36 0 0 Z " fill="#4E7EB1" transform="translate(607,138)"/>
<path d="M0 0 C1.98 0.495 1.98 0.495 4 1 C3.67 2.32 3.34 3.64 3 5 C1.68 4.67 0.36 4.34 -1 4 C-0.67 2.68 -0.34 1.36 0 0 Z " fill="#4F83B4" transform="translate(582,118)"/>
<path d="M0 0 C1.98 0.495 1.98 0.495 4 1 C3.67 2.32 3.34 3.64 3 5 C1.68 5 0.36 5 -1 5 C-0.67 3.35 -0.34 1.7 0 0 Z " fill="#4C7AAF" transform="translate(464,91)"/>
<path d="M0 0 C2.0625 0.4375 2.0625 0.4375 4 1 C4 1.99 4 2.98 4 4 C2.68 4.33 1.36 4.66 0 5 C-0.5625 3.0625 -0.5625 3.0625 -1 1 C-0.67 0.67 -0.34 0.34 0 0 Z " fill="#5185B8" transform="translate(601,186)"/>
<path d="M0 0 C2.0625 0.4375 2.0625 0.4375 4 1 C3.67 2.32 3.34 3.64 3 5 C2.01 5 1.02 5 0 5 C-0.5625 3.0625 -0.5625 3.0625 -1 1 C-0.67 0.67 -0.34 0.34 0 0 Z " fill="#4F83B4" transform="translate(504,78)"/>
<path d="M0 0 C1.32 0.66 2.64 1.32 4 2 C3.67 2.99 3.34 3.98 3 5 C1.68 5 0.36 5 -1 5 C-0.67 3.35 -0.34 1.7 0 0 Z " fill="#4F83B4" transform="translate(571,61)"/>
<path d="M0 0 C1.65 0 3.3 0 5 0 C5 1.32 5 2.64 5 4 C3.35 3.67 1.7 3.34 0 3 C0 2.01 0 1.02 0 0 Z " fill="#5083B5" transform="translate(539,235)"/>
<path d="M0 0 C1.98 0.495 1.98 0.495 4 1 C3.67 2.32 3.34 3.64 3 5 C1.68 4.34 0.36 3.68 -1 3 C-0.67 2.01 -0.34 1.02 0 0 Z " fill="#5186B8" transform="translate(610,205)"/>
<path d="M0 0 C0.99 0.33 1.98 0.66 3 1 C3 2.32 3 3.64 3 5 C1.35 5 -0.3 5 -2 5 C-1.34 3.35 -0.68 1.7 0 0 Z " fill="#5389BE" transform="translate(470,75)"/>
<path d="M0 0 C0.99 0.33 1.98 0.66 3 1 C3 2.32 3 3.64 3 5 C1.68 5 0.36 5 -1 5 C-0.67 3.35 -0.34 1.7 0 0 Z " fill="#538ABE" transform="translate(600,147)"/>
<path d="M0 0 C2.475 0.495 2.475 0.495 5 1 C4.67 1.99 4.34 2.98 4 4 C2.68 4 1.36 4 0 4 C0 2.68 0 1.36 0 0 Z " fill="#5288BC" transform="translate(437,97)"/>
<path d="M0 0 C1.32 0.33 2.64 0.66 4 1 C3.67 2.32 3.34 3.64 3 5 C2.01 4.67 1.02 4.34 0 4 C0 2.68 0 1.36 0 0 Z " fill="#548BC1" transform="translate(537,244)"/>
<path d="M0 0 C0.33 0 0.66 0 1 0 C1 2.31 1 4.62 1 7 C0.01 6.67 -0.98 6.34 -2 6 C-1.125 1.125 -1.125 1.125 0 0 Z " fill="#64B3DF" transform="translate(498,177)"/>
<path d="M0 0 C1.65 0 3.3 0 5 0 C5.33 1.65 5.66 3.3 6 5 C5.01 5.495 5.01 5.495 4 6 C3.67 4.35 3.34 2.7 3 1 C2.01 0.67 1.02 0.34 0 0 Z " fill="#5184BB" transform="translate(548,174)"/>
<path d="M0 0 C0.99 0 1.98 0 3 0 C3 2.64 3 5.28 3 8 C0.37613513 4.93882432 0 4.26826873 0 0 Z " fill="#5694C0" transform="translate(421,160)"/>
</svg>
